<?xml version="1.0" encoding="UTF-8" standalone="no"?>
<!DOCTYPE svg PUBLIC "-//W3C//DTD SVG 1.1//EN"
 "http://www.w3.org/Graphics/SVG/1.1/DTD/svg11.dtd">
<!-- Generated by graphviz version 2.38.0 (20140413.2041)
 -->
<!-- Title: Model::processNode Pages: 1 -->
<svg width="587pt" height="28pt"
 viewBox="0.00 0.00 587.00 28.00" xmlns="http://www.w3.org/2000/svg" xmlns:xlink="http://www.w3.org/1999/xlink">
<g id="graph0" class="graph" transform="scale(1 1) rotate(0) translate(4 24)">
<title>Model::processNode</title>
<polygon fill="white" stroke="none" points="-4,4 -4,-24 583,-24 583,4 -4,4"/>
<!-- Node18 -->
<g id="node1" class="node"><title>Node18</title>
<polygon fill="#bfbfbf" stroke="black" points="0,-0.5 0,-19.5 106,-19.5 106,-0.5 0,-0.5"/>
<text text-anchor="middle" x="53" y="-7.5" font-family="Helvetica,sans-Serif" font-size="10.00">Model::processNode</text>
</g>
<!-- Node19 -->
<g id="node2" class="node"><title>Node19</title>
<g id="a_node2"><a xlink:href="classModel.html#a95ae1a9980ded3d98b1c8785cb889d96" target="_top" xlink:title="Model::processMesh">
<polygon fill="white" stroke="black" points="142,-0.5 142,-19.5 249,-19.5 249,-0.5 142,-0.5"/>
<text text-anchor="middle" x="195.5" y="-7.5" font-family="Helvetica,sans-Serif" font-size="10.00">Model::processMesh</text>
</a>
</g>
</g>
<!-- Node18&#45;&gt;Node19 -->
<g id="edge1" class="edge"><title>Node18&#45;&gt;Node19</title>
<path fill="none" stroke="midnightblue" d="M106.317,-10C114.526,-10 123.085,-10 131.504,-10"/>
<polygon fill="midnightblue" stroke="midnightblue" points="131.671,-13.5001 141.671,-10 131.671,-6.5001 131.671,-13.5001"/>
</g>
<!-- Node20 -->
<g id="node3" class="node"><title>Node20</title>
<g id="a_node3"><a xlink:href="classModel.html#aa7d0215f3ee74bef71ddeef173dd36dd" target="_top" xlink:title="Model::loadMaterialTextures">
<polygon fill="white" stroke="black" points="285,-0.5 285,-19.5 424,-19.5 424,-0.5 285,-0.5"/>
<text text-anchor="middle" x="354.5" y="-7.5" font-family="Helvetica,sans-Serif" font-size="10.00">Model::loadMaterialTextures</text>
</a>
</g>
</g>
<!-- Node19&#45;&gt;Node20 -->
<g id="edge2" class="edge"><title>Node19&#45;&gt;Node20</title>
<path fill="none" stroke="midnightblue" d="M249.215,-10C257.411,-10 266.028,-10 274.651,-10"/>
<polygon fill="midnightblue" stroke="midnightblue" points="274.752,-13.5001 284.752,-10 274.752,-6.5001 274.752,-13.5001"/>
</g>
<!-- Node21 -->
<g id="node4" class="node"><title>Node21</title>
<g id="a_node4"><a xlink:href="classModel.html#a4633dd862f3066d920c2c4177a30310e" target="_top" xlink:title="Model::TextureFromFile">
<polygon fill="white" stroke="black" points="460,-0.5 460,-19.5 579,-19.5 579,-0.5 460,-0.5"/>
<text text-anchor="middle" x="519.5" y="-7.5" font-family="Helvetica,sans-Serif" font-size="10.00">Model::TextureFromFile</text>
</a>
</g>
</g>
<!-- Node20&#45;&gt;Node21 -->
<g id="edge3" class="edge"><title>Node20&#45;&gt;Node21</title>
<path fill="none" stroke="midnightblue" d="M424.154,-10C432.628,-10 441.293,-10 449.768,-10"/>
<polygon fill="midnightblue" stroke="midnightblue" points="449.987,-13.5001 459.987,-10 449.987,-6.5001 449.987,-13.5001"/>
</g>
</g>
</svg>
