<?xml version="1.0" encoding="UTF-8" standalone="no"?>
<!DOCTYPE svg PUBLIC "-//W3C//DTD SVG 1.1//EN"
 "http://www.w3.org/Graphics/SVG/1.1/DTD/svg11.dtd">
<!-- Generated by graphviz version 2.38.0 (20140413.2041)
 -->
<!-- Title: Model::processMesh Pages: 1 -->
<svg width="445pt" height="28pt"
 viewBox="0.00 0.00 445.00 28.00" xmlns="http://www.w3.org/2000/svg" xmlns:xlink="http://www.w3.org/1999/xlink">
<g id="graph0" class="graph" transform="scale(1 1) rotate(0) translate(4 24)">
<title>Model::processMesh</title>
<polygon fill="white" stroke="none" points="-4,4 -4,-24 441,-24 441,4 -4,4"/>
<!-- Node15 -->
<g id="node1" class="node"><title>Node15</title>
<polygon fill="#bfbfbf" stroke="black" points="0,-0.5 0,-19.5 107,-19.5 107,-0.5 0,-0.5"/>
<text text-anchor="middle" x="53.5" y="-7.5" font-family="Helvetica,sans-Serif" font-size="10.00">Model::processMesh</text>
</g>
<!-- Node16 -->
<g id="node2" class="node"><title>Node16</title>
<g id="a_node2"><a xlink:href="classModel.html#aa7d0215f3ee74bef71ddeef173dd36dd" target="_top" xlink:title="Model::loadMaterialTextures">
<polygon fill="white" stroke="black" points="143,-0.5 143,-19.5 282,-19.5 282,-0.5 143,-0.5"/>
<text text-anchor="middle" x="212.5" y="-7.5" font-family="Helvetica,sans-Serif" font-size="10.00">Model::loadMaterialTextures</text>
</a>
</g>
</g>
<!-- Node15&#45;&gt;Node16 -->
<g id="edge1" class="edge"><title>Node15&#45;&gt;Node16</title>
<path fill="none" stroke="midnightblue" d="M107.215,-10C115.411,-10 124.028,-10 132.651,-10"/>
<polygon fill="midnightblue" stroke="midnightblue" points="132.752,-13.5001 142.752,-10 132.752,-6.5001 132.752,-13.5001"/>
</g>
<!-- Node17 -->
<g id="node3" class="node"><title>Node17</title>
<g id="a_node3"><a xlink:href="classModel.html#a4633dd862f3066d920c2c4177a30310e" target="_top" xlink:title="Model::TextureFromFile">
<polygon fill="white" stroke="black" points="318,-0.5 318,-19.5 437,-19.5 437,-0.5 318,-0.5"/>
<text text-anchor="middle" x="377.5" y="-7.5" font-family="Helvetica,sans-Serif" font-size="10.00">Model::TextureFromFile</text>
</a>
</g>
</g>
<!-- Node16&#45;&gt;Node17 -->
<g id="edge2" class="edge"><title>Node16&#45;&gt;Node17</title>
<path fill="none" stroke="midnightblue" d="M282.154,-10C290.628,-10 299.293,-10 307.768,-10"/>
<polygon fill="midnightblue" stroke="midnightblue" points="307.987,-13.5001 317.987,-10 307.987,-6.5001 307.987,-13.5001"/>
</g>
</g>
</svg>
