<?xml version="1.0" encoding="UTF-8" standalone="no"?>
<!DOCTYPE svg PUBLIC "-//W3C//DTD SVG 1.1//EN"
 "http://www.w3.org/Graphics/SVG/1.1/DTD/svg11.dtd">
<!-- Generated by graphviz version 2.38.0 (20140413.2041)
 -->
<!-- Title: SICAD::renderBackground Pages: 1 -->
<svg width="296pt" height="142pt"
 viewBox="0.00 0.00 296.00 142.00" xmlns="http://www.w3.org/2000/svg" xmlns:xlink="http://www.w3.org/1999/xlink">
<g id="graph0" class="graph" transform="scale(1 1) rotate(0) translate(4 138)">
<title>SICAD::renderBackground</title>
<polygon fill="white" stroke="none" points="-4,4 -4,-138 292,-138 292,4 -4,4"/>
<!-- Node18 -->
<g id="node1" class="node"><title>Node18</title>
<polygon fill="#bfbfbf" stroke="black" points="0,-57.5 0,-76.5 131,-76.5 131,-57.5 0,-57.5"/>
<text text-anchor="middle" x="65.5" y="-64.5" font-family="Helvetica,sans-Serif" font-size="10.00">SICAD::renderBackground</text>
</g>
<!-- Node19 -->
<g id="node2" class="node"><title>Node19</title>
<g id="a_node2"><a xlink:href="classShader.html#a3d9c30f7fb8c679a7389c31e51fac596" target="_top" xlink:title="Shader::get_program">
<polygon fill="white" stroke="black" points="174,-114.5 174,-133.5 281,-133.5 281,-114.5 174,-114.5"/>
<text text-anchor="middle" x="227.5" y="-121.5" font-family="Helvetica,sans-Serif" font-size="10.00">Shader::get_program</text>
</a>
</g>
</g>
<!-- Node18&#45;&gt;Node19 -->
<g id="edge1" class="edge"><title>Node18&#45;&gt;Node19</title>
<path fill="none" stroke="midnightblue" d="M90.7394,-76.5731C111.015,-84.4821 140.754,-95.8546 167,-105 173.048,-107.107 179.472,-109.254 185.777,-111.309"/>
<polygon fill="midnightblue" stroke="midnightblue" points="184.925,-114.711 195.516,-114.445 187.07,-108.048 184.925,-114.711"/>
</g>
<!-- Node20 -->
<g id="node3" class="node"><title>Node20</title>
<g id="a_node3"><a xlink:href="classSICAD.html#a8033a99745f595ea5205e3830cabc389" target="_top" xlink:title="SICAD::getMipmapsOpt">
<polygon fill="white" stroke="black" points="167,-76.5 167,-95.5 288,-95.5 288,-76.5 167,-76.5"/>
<text text-anchor="middle" x="227.5" y="-83.5" font-family="Helvetica,sans-Serif" font-size="10.00">SICAD::getMipmapsOpt</text>
</a>
</g>
</g>
<!-- Node18&#45;&gt;Node20 -->
<g id="edge2" class="edge"><title>Node18&#45;&gt;Node20</title>
<path fill="none" stroke="midnightblue" d="M131.117,-74.6733C139.595,-75.68 148.312,-76.7152 156.869,-77.7313"/>
<polygon fill="midnightblue" stroke="midnightblue" points="156.472,-81.2087 166.815,-78.9124 157.298,-74.2576 156.472,-81.2087"/>
</g>
<!-- Node21 -->
<g id="node4" class="node"><title>Node21</title>
<g id="a_node4"><a xlink:href="classShader.html#a8e53260be208ebf6c804a0d309e74097" target="_top" xlink:title="Activate the shader program. ">
<polygon fill="white" stroke="black" points="188,-38.5 188,-57.5 267,-57.5 267,-38.5 188,-38.5"/>
<text text-anchor="middle" x="227.5" y="-45.5" font-family="Helvetica,sans-Serif" font-size="10.00">Shader::install</text>
</a>
</g>
</g>
<!-- Node18&#45;&gt;Node21 -->
<g id="edge3" class="edge"><title>Node18&#45;&gt;Node21</title>
<path fill="none" stroke="midnightblue" d="M131.117,-59.3267C146.61,-57.4869 162.904,-55.552 177.553,-53.8124"/>
<polygon fill="midnightblue" stroke="midnightblue" points="178.377,-57.2393 187.894,-52.5844 177.551,-50.2881 178.377,-57.2393"/>
</g>
<!-- Node22 -->
<g id="node5" class="node"><title>Node22</title>
<g id="a_node5"><a xlink:href="classShader.html#afa6fb33b37c9385cf62a836092da570b" target="_top" xlink:title="Deactivate the shader program. ">
<polygon fill="white" stroke="black" points="183,-0.5 183,-19.5 272,-19.5 272,-0.5 183,-0.5"/>
<text text-anchor="middle" x="227.5" y="-7.5" font-family="Helvetica,sans-Serif" font-size="10.00">Shader::uninstall</text>
</a>
</g>
</g>
<!-- Node18&#45;&gt;Node22 -->
<g id="edge4" class="edge"><title>Node18&#45;&gt;Node22</title>
<path fill="none" stroke="midnightblue" d="M90.7394,-57.4269C111.015,-49.5179 140.754,-38.1454 167,-29 173.048,-26.8926 179.472,-24.7463 185.777,-22.6911"/>
<polygon fill="midnightblue" stroke="midnightblue" points="187.07,-25.9519 195.516,-19.5554 184.925,-19.2888 187.07,-25.9519"/>
</g>
</g>
</svg>
