<?xml version="1.0" encoding="UTF-8" standalone="no"?>
<!DOCTYPE svg PUBLIC "-//W3C//DTD SVG 1.1//EN"
 "http://www.w3.org/Graphics/SVG/1.1/DTD/svg11.dtd">
<!-- Generated by graphviz version 2.38.0 (20140413.2041)
 -->
<!-- Title: Superimpose Pages: 1 -->
<svg width="136pt" height="84pt"
 viewBox="0.00 0.00 136.00 84.00" xmlns="http://www.w3.org/2000/svg" xmlns:xlink="http://www.w3.org/1999/xlink">
<g id="graph0" class="graph" transform="scale(1 1) rotate(0) translate(4 80)">
<title>Superimpose</title>
<polygon fill="white" stroke="none" points="-4,4 -4,-80 132,-80 132,4 -4,4"/>
<!-- Node0 -->
<g id="node1" class="node"><title>Node0</title>
<polygon fill="#bfbfbf" stroke="black" points="22,-56.5 22,-75.5 96,-75.5 96,-56.5 22,-56.5"/>
<text text-anchor="middle" x="59" y="-63.5" font-family="Helvetica,sans-Serif" font-size="10.00">Superimpose</text>
</g>
<!-- Node1 -->
<g id="node2" class="node"><title>Node1</title>
<g id="a_node2"><a xlink:href="classSICAD.html" target="_top" xlink:title="A Superimpose derived class to superimpose mesh models on images. ">
<polygon fill="white" stroke="black" points="0,-0.5 0,-19.5 46,-19.5 46,-0.5 0,-0.5"/>
<text text-anchor="middle" x="23" y="-7.5" font-family="Helvetica,sans-Serif" font-size="10.00">SICAD</text>
</a>
</g>
</g>
<!-- Node0&#45;&gt;Node1 -->
<g id="edge1" class="edge"><title>Node0&#45;&gt;Node1</title>
<path fill="none" stroke="midnightblue" d="M47.3771,-47.5656C41.1832,-38.2747 33.8323,-27.2484 28.8341,-19.7511"/>
<polygon fill="midnightblue" stroke="midnightblue" points="44.5961,-49.7039 53.0553,-56.083 50.4205,-45.821 44.5961,-49.7039"/>
</g>
<!-- Node2 -->
<g id="node3" class="node"><title>Node2</title>
<g id="a_node3"><a xlink:href="classSISkeleton.html" target="_top" xlink:title="SISkeleton">
<polygon fill="white" stroke="black" points="64,-0.5 64,-19.5 128,-19.5 128,-0.5 64,-0.5"/>
<text text-anchor="middle" x="96" y="-7.5" font-family="Helvetica,sans-Serif" font-size="10.00">SISkeleton</text>
</a>
</g>
</g>
<!-- Node0&#45;&gt;Node2 -->
<g id="edge2" class="edge"><title>Node0&#45;&gt;Node2</title>
<path fill="none" stroke="midnightblue" d="M70.9458,-47.5656C77.3117,-38.2747 84.8668,-27.2484 90.0039,-19.7511"/>
<polygon fill="midnightblue" stroke="midnightblue" points="67.8749,-45.8553 65.1098,-56.083 73.6494,-49.812 67.8749,-45.8553"/>
</g>
</g>
</svg>
