<?xml version="1.0" encoding="UTF-8" standalone="no"?>
<!DOCTYPE svg PUBLIC "-//W3C//DTD SVG 1.1//EN"
 "http://www.w3.org/Graphics/SVG/1.1/DTD/svg11.dtd">
<!-- Generated by graphviz version 2.38.0 (20140413.2041)
 -->
<!-- Title: src Pages: 1 -->
<svg width="122pt" height="151pt"
 viewBox="0.00 0.00 122.00 151.00" xmlns="http://www.w3.org/2000/svg" xmlns:xlink="http://www.w3.org/1999/xlink">
<g id="graph0" class="graph" transform="scale(1 1) rotate(0) translate(4 147)">
<title>src</title>
<polygon fill="white" stroke="none" points="-4,4 -4,-147 118,-147 118,4 -4,4"/>
<g id="clust1" class="cluster"><title>clusterdir_a628133ec9c02294b45e12274cafdc9b</title>
<g id="a_clust1"><a xlink:href="dir_a628133ec9c02294b45e12274cafdc9b.html" target="_top" xlink:title="SuperimposeMesh">
<polygon fill="#ddddee" stroke="black" points="8,-64 8,-135 106,-135 106,-64 8,-64"/>
<text text-anchor="middle" x="57" y="-123" font-family="Helvetica,sans-Serif" font-size="10.00">SuperimposeMesh</text>
</a>
</g>
</g>
<!-- dir_26265cd6f588e7a6ba8ae9f594739ddc -->
<g id="node1" class="node"><title>dir_26265cd6f588e7a6ba8ae9f594739ddc</title>
<g id="a_node1"><a xlink:href="dir_26265cd6f588e7a6ba8ae9f594739ddc.html" target="_top" xlink:title="src">
<polygon fill="#eeeeff" stroke="black" points="84,-108 30,-108 30,-72 84,-72 84,-108"/>
<text text-anchor="middle" x="57" y="-87.5" font-family="Helvetica,sans-Serif" font-size="10.00">src</text>
</a>
</g>
</g>
<!-- dir_d928d84bd4abafedbf1d45bcdfe43945 -->
<g id="node2" class="node"><title>dir_d928d84bd4abafedbf1d45bcdfe43945</title>
<g id="a_node2"><a xlink:href="dir_d928d84bd4abafedbf1d45bcdfe43945.html" target="_top" xlink:title="include">
<polygon fill="white" stroke="red" points="84,-36 30,-36 30,-0 84,-0 84,-36"/>
<text text-anchor="middle" x="57" y="-15.5" font-family="Helvetica,sans-Serif" font-size="10.00">include</text>
</a>
</g>
</g>
<!-- dir_26265cd6f588e7a6ba8ae9f594739ddc&#45;&gt;dir_d928d84bd4abafedbf1d45bcdfe43945 -->
<g id="edge1" class="edge"><title>dir_26265cd6f588e7a6ba8ae9f594739ddc&#45;&gt;dir_d928d84bd4abafedbf1d45bcdfe43945</title>
<path fill="none" stroke="black" d="M57,-71.6966C57,-63.9827 57,-54.7125 57,-46.1124"/>
<polygon fill="black" stroke="black" points="60.5001,-46.1043 57,-36.1043 53.5001,-46.1044 60.5001,-46.1043"/>
<g id="a_edge1&#45;headlabel"><a xlink:href="dir_000002_000003.html" target="_top" xlink:title="5">
<text text-anchor="middle" x="63.3393" y="-47.199" font-family="Helvetica,sans-Serif" font-size="10.00">5</text>
</a>
</g>
</g>
</g>
</svg>
