<?xml version="1.0" encoding="UTF-8" standalone="no"?>
<!DOCTYPE svg PUBLIC "-//W3C//DTD SVG 1.1//EN"
 "http://www.w3.org/Graphics/SVG/1.1/DTD/svg11.dtd">
<!-- Generated by graphviz version 2.38.0 (20140413.2041)
 -->
<!-- Title: SuperimposeMesh Pages: 1 -->
<svg width="226pt" height="183pt"
 viewBox="0.00 0.00 226.00 183.00" xmlns="http://www.w3.org/2000/svg" xmlns:xlink="http://www.w3.org/1999/xlink">
<g id="graph0" class="graph" transform="scale(1 1) rotate(0) translate(4 179)">
<title>SuperimposeMesh</title>
<polygon fill="white" stroke="none" points="-4,4 -4,-179 222,-179 222,4 -4,4"/>
<g id="clust1" class="cluster"><title>clusterdir_68267d1309a1af8e8297ef4c3efbcdba</title>
<g id="a_clust1"><a xlink:href="dir_68267d1309a1af8e8297ef4c3efbcdba.html" target="_top" xlink:title="src">
<polygon fill="#ddddee" stroke="black" points="8,-8 8,-167 210,-167 210,-8 8,-8"/>
<text text-anchor="middle" x="109" y="-155" font-family="Helvetica,sans-Serif" font-size="10.00">src</text>
</a>
</g>
</g>
<g id="clust2" class="cluster"><title>clusterdir_a628133ec9c02294b45e12274cafdc9b</title>
<g id="a_clust2"><a xlink:href="dir_a628133ec9c02294b45e12274cafdc9b.html" target="_top">
<polygon fill="#eeeeff" stroke="black" points="16,-16 16,-140 202,-140 202,-16 16,-16"/>
</a>
</g>
</g>
<!-- dir_a628133ec9c02294b45e12274cafdc9b -->
<g id="node1" class="node"><title>dir_a628133ec9c02294b45e12274cafdc9b</title>
<text text-anchor="middle" x="145" y="-111.5" font-family="Helvetica,sans-Serif" font-size="10.00">SuperimposeMesh</text>
</g>
<!-- dir_d928d84bd4abafedbf1d45bcdfe43945 -->
<g id="node2" class="node"><title>dir_d928d84bd4abafedbf1d45bcdfe43945</title>
<g id="a_node2"><a xlink:href="dir_d928d84bd4abafedbf1d45bcdfe43945.html" target="_top" xlink:title="include">
<polygon fill="white" stroke="red" points="78,-60 24,-60 24,-24 78,-24 78,-60"/>
<text text-anchor="middle" x="51" y="-39.5" font-family="Helvetica,sans-Serif" font-size="10.00">include</text>
</a>
</g>
</g>
<!-- dir_26265cd6f588e7a6ba8ae9f594739ddc -->
<g id="node3" class="node"><title>dir_26265cd6f588e7a6ba8ae9f594739ddc</title>
<g id="a_node3"><a xlink:href="dir_26265cd6f588e7a6ba8ae9f594739ddc.html" target="_top" xlink:title="src">
<polygon fill="white" stroke="black" points="78,-132 24,-132 24,-96 78,-96 78,-132"/>
<text text-anchor="middle" x="51" y="-111.5" font-family="Helvetica,sans-Serif" font-size="10.00">src</text>
</a>
</g>
</g>
<!-- dir_26265cd6f588e7a6ba8ae9f594739ddc&#45;&gt;dir_d928d84bd4abafedbf1d45bcdfe43945 -->
<g id="edge1" class="edge"><title>dir_26265cd6f588e7a6ba8ae9f594739ddc&#45;&gt;dir_d928d84bd4abafedbf1d45bcdfe43945</title>
<path fill="none" stroke="black" d="M51,-95.6966C51,-87.9827 51,-78.7125 51,-70.1124"/>
<polygon fill="black" stroke="black" points="54.5001,-70.1043 51,-60.1043 47.5001,-70.1044 54.5001,-70.1043"/>
<g id="a_edge1&#45;headlabel"><a xlink:href="dir_000002_000003.html" target="_top" xlink:title="5">
<text text-anchor="middle" x="57.3393" y="-71.199" font-family="Helvetica,sans-Serif" font-size="10.00">5</text>
</a>
</g>
</g>
</g>
</svg>
