<?xml version="1.0" encoding="UTF-8" standalone="no"?>
<!DOCTYPE svg PUBLIC "-//W3C//DTD SVG 1.1//EN"
 "http://www.w3.org/Graphics/SVG/1.1/DTD/svg11.dtd">
<!-- Generated by graphviz version 2.38.0 (20140413.2041)
 -->
<!-- Title: Graphical Class Hierarchy Pages: 1 -->
<svg width="182pt" height="66pt"
 viewBox="0.00 0.00 182.00 66.00" xmlns="http://www.w3.org/2000/svg" xmlns:xlink="http://www.w3.org/1999/xlink">
<g id="graph0" class="graph" transform="scale(1 1) rotate(0) translate(4 62)">
<title>Graphical Class Hierarchy</title>
<polygon fill="white" stroke="none" points="-4,4 -4,-62 178,-62 178,4 -4,4"/>
<!-- Node0 -->
<g id="node1" class="node"><title>Node0</title>
<g id="a_node1"><a xlink:href="classSuperimpose.html" target="_top" xlink:title="Superimpose">
<polygon fill="white" stroke="black" points="0,-19.5 0,-38.5 74,-38.5 74,-19.5 0,-19.5"/>
<text text-anchor="middle" x="37" y="-26.5" font-family="Helvetica,sans-Serif" font-size="10.00">Superimpose</text>
</a>
</g>
</g>
<!-- Node1 -->
<g id="node2" class="node"><title>Node1</title>
<g id="a_node2"><a xlink:href="classSICAD.html" target="_top" xlink:title="A Superimpose derived class to superimpose mesh models on images. ">
<polygon fill="white" stroke="black" points="119,-38.5 119,-57.5 165,-57.5 165,-38.5 119,-38.5"/>
<text text-anchor="middle" x="142" y="-45.5" font-family="Helvetica,sans-Serif" font-size="10.00">SICAD</text>
</a>
</g>
</g>
<!-- Node0&#45;&gt;Node1 -->
<g id="edge1" class="edge"><title>Node0&#45;&gt;Node1</title>
<path fill="none" stroke="midnightblue" d="M84.0625,-37.497C96.1982,-39.7356 108.741,-42.0493 118.955,-43.9335"/>
<polygon fill="midnightblue" stroke="midnightblue" points="84.4934,-34.0175 74.0244,-35.6453 83.2235,-40.9013 84.4934,-34.0175"/>
</g>
<!-- Node2 -->
<g id="node3" class="node"><title>Node2</title>
<g id="a_node3"><a xlink:href="classSISkeleton.html" target="_top" xlink:title="SISkeleton">
<polygon fill="white" stroke="black" points="110,-0.5 110,-19.5 174,-19.5 174,-0.5 110,-0.5"/>
<text text-anchor="middle" x="142" y="-7.5" font-family="Helvetica,sans-Serif" font-size="10.00">SISkeleton</text>
</a>
</g>
</g>
<!-- Node0&#45;&gt;Node2 -->
<g id="edge2" class="edge"><title>Node0&#45;&gt;Node2</title>
<path fill="none" stroke="midnightblue" d="M84.1302,-20.4905C92.8728,-18.8778 101.824,-17.2266 109.961,-15.7256"/>
<polygon fill="midnightblue" stroke="midnightblue" points="83.2235,-17.0987 74.0244,-22.3547 84.4934,-23.9825 83.2235,-17.0987"/>
</g>
</g>
</svg>
