<?xml version="1.0" encoding="UTF-8" standalone="no"?>
<!DOCTYPE svg PUBLIC "-//W3C//DTD SVG 1.1//EN"
 "http://www.w3.org/Graphics/SVG/1.1/DTD/svg11.dtd">
<!-- Generated by graphviz version 2.38.0 (20140413.2041)
 -->
<!-- Title: Mesh.h Pages: 1 -->
<svg width="480pt" height="207pt"
 viewBox="0.00 0.00 480.00 207.00" xmlns="http://www.w3.org/2000/svg" xmlns:xlink="http://www.w3.org/1999/xlink">
<g id="graph0" class="graph" transform="scale(1 1) rotate(0) translate(4 203)">
<title>Mesh.h</title>
<polygon fill="white" stroke="none" points="-4,4 -4,-203 476,-203 476,4 -4,4"/>
<!-- Node9 -->
<g id="node1" class="node"><title>Node9</title>
<polygon fill="#bfbfbf" stroke="black" points="263,-179.5 263,-198.5 312,-198.5 312,-179.5 263,-179.5"/>
<text text-anchor="middle" x="287.5" y="-186.5" font-family="Helvetica,sans-Serif" font-size="10.00">Mesh.h</text>
</g>
<!-- Node10 -->
<g id="node2" class="node"><title>Node10</title>
<g id="a_node2"><a xlink:href="Model_8h.html" target="_top" xlink:title="Model.h">
<polygon fill="white" stroke="black" points="226,-123.5 226,-142.5 277,-142.5 277,-123.5 226,-123.5"/>
<text text-anchor="middle" x="251.5" y="-130.5" font-family="Helvetica,sans-Serif" font-size="10.00">Model.h</text>
</a>
</g>
</g>
<!-- Node9&#45;&gt;Node10 -->
<g id="edge1" class="edge"><title>Node9&#45;&gt;Node10</title>
<path fill="none" stroke="midnightblue" d="M275.877,-170.566C269.683,-161.275 262.332,-150.248 257.334,-142.751"/>
<polygon fill="midnightblue" stroke="midnightblue" points="273.096,-172.704 281.555,-179.083 278.92,-168.821 273.096,-172.704"/>
</g>
<!-- Node17 -->
<g id="node9" class="node"><title>Node17</title>
<g id="a_node9"><a xlink:href="Mesh_8cpp.html" target="_top" xlink:title="Mesh.cpp">
<polygon fill="white" stroke="black" points="295,-123.5 295,-142.5 354,-142.5 354,-123.5 295,-123.5"/>
<text text-anchor="middle" x="324.5" y="-130.5" font-family="Helvetica,sans-Serif" font-size="10.00">Mesh.cpp</text>
</a>
</g>
</g>
<!-- Node9&#45;&gt;Node17 -->
<g id="edge8" class="edge"><title>Node9&#45;&gt;Node17</title>
<path fill="none" stroke="midnightblue" d="M299.446,-170.566C305.812,-161.275 313.367,-150.248 318.504,-142.751"/>
<polygon fill="midnightblue" stroke="midnightblue" points="296.375,-168.855 293.61,-179.083 302.149,-172.812 296.375,-168.855"/>
</g>
<!-- Node11 -->
<g id="node3" class="node"><title>Node11</title>
<g id="a_node3"><a xlink:href="SICAD_8h.html" target="_top" xlink:title="SICAD.h">
<polygon fill="white" stroke="black" points="186.5,-67.5 186.5,-86.5 240.5,-86.5 240.5,-67.5 186.5,-67.5"/>
<text text-anchor="middle" x="213.5" y="-74.5" font-family="Helvetica,sans-Serif" font-size="10.00">SICAD.h</text>
</a>
</g>
</g>
<!-- Node10&#45;&gt;Node11 -->
<g id="edge2" class="edge"><title>Node10&#45;&gt;Node11</title>
<path fill="none" stroke="midnightblue" d="M239.435,-114.855C232.855,-105.505 224.989,-94.3265 219.658,-86.7511"/>
<polygon fill="midnightblue" stroke="midnightblue" points="236.608,-116.919 245.225,-123.083 242.332,-112.891 236.608,-116.919"/>
</g>
<!-- Node16 -->
<g id="node8" class="node"><title>Node16</title>
<g id="a_node8"><a xlink:href="Model_8cpp.html" target="_top" xlink:title="Model.cpp">
<polygon fill="white" stroke="black" points="258.5,-67.5 258.5,-86.5 320.5,-86.5 320.5,-67.5 258.5,-67.5"/>
<text text-anchor="middle" x="289.5" y="-74.5" font-family="Helvetica,sans-Serif" font-size="10.00">Model.cpp</text>
</a>
</g>
</g>
<!-- Node10&#45;&gt;Node16 -->
<g id="edge7" class="edge"><title>Node10&#45;&gt;Node16</title>
<path fill="none" stroke="midnightblue" d="M263.565,-114.855C270.145,-105.505 278.011,-94.3265 283.342,-86.7511"/>
<polygon fill="midnightblue" stroke="midnightblue" points="260.668,-112.891 257.775,-123.083 266.392,-116.919 260.668,-112.891"/>
</g>
<!-- Node12 -->
<g id="node4" class="node"><title>Node12</title>
<g id="a_node4"><a xlink:href="SICAD_8cpp.html" target="_top" xlink:title="SICAD.cpp">
<polygon fill="white" stroke="black" points="0,-6 0,-25 65,-25 65,-6 0,-6"/>
<text text-anchor="middle" x="32.5" y="-13" font-family="Helvetica,sans-Serif" font-size="10.00">SICAD.cpp</text>
</a>
</g>
</g>
<!-- Node11&#45;&gt;Node12 -->
<g id="edge3" class="edge"><title>Node11&#45;&gt;Node12</title>
<path fill="none" stroke="midnightblue" d="M176.758,-64.3186C148.7,-55.3464 109.1,-42.5722 74.5,-31 68.7938,-29.0915 62.6657,-26.9999 56.9027,-25.014"/>
<polygon fill="midnightblue" stroke="midnightblue" points="175.952,-67.7352 186.543,-67.4429 178.081,-61.0669 175.952,-67.7352"/>
</g>
<!-- Node13 -->
<g id="node5" class="node"><title>Node13</title>
<g id="a_node5"><a xlink:href="tutorial__background_8cpp.html" target="_top" xlink:title="tutorial_background.cpp">
<polygon fill="white" stroke="black" points="83.5,-6 83.5,-25 203.5,-25 203.5,-6 83.5,-6"/>
<text text-anchor="middle" x="143.5" y="-13" font-family="Helvetica,sans-Serif" font-size="10.00">tutorial_background.cpp</text>
</a>
</g>
</g>
<!-- Node11&#45;&gt;Node13 -->
<g id="edge4" class="edge"><title>Node11&#45;&gt;Node13</title>
<path fill="none" stroke="midnightblue" d="M195.821,-60.9727C182.432,-49.5925 164.523,-34.3694 153.511,-25.0091"/>
<polygon fill="midnightblue" stroke="midnightblue" points="193.585,-63.6654 203.471,-67.4751 198.118,-58.3318 193.585,-63.6654"/>
</g>
<!-- Node14 -->
<g id="node6" class="node"><title>Node14</title>
<g id="a_node6"><a xlink:href="tutorial__superimpose_8cpp.html" target="_top" xlink:title="tutorial_superimpose.cpp">
<polygon fill="white" stroke="black" points="222,-6 222,-25 347,-25 347,-6 222,-6"/>
<text text-anchor="middle" x="284.5" y="-13" font-family="Helvetica,sans-Serif" font-size="10.00">tutorial_superimpose.cpp</text>
</a>
</g>
</g>
<!-- Node11&#45;&gt;Node14 -->
<g id="edge5" class="edge"><title>Node11&#45;&gt;Node14</title>
<path fill="none" stroke="midnightblue" d="M231.432,-60.9727C245.011,-49.5925 263.177,-34.3694 274.346,-25.0091"/>
<polygon fill="midnightblue" stroke="midnightblue" points="229.089,-58.3694 223.673,-67.4751 233.585,-63.7346 229.089,-58.3694"/>
</g>
<!-- Node15 -->
<g id="node7" class="node"><title>Node15</title>
<g id="a_node7"><a xlink:href="tutorial__superimpose__customshader_8cpp.html" target="_top" xlink:title="tutorial_superimpose\l_customshader.cpp">
<polygon fill="white" stroke="black" points="365,-0.5 365,-30.5 472,-30.5 472,-0.5 365,-0.5"/>
<text text-anchor="start" x="373" y="-18.5" font-family="Helvetica,sans-Serif" font-size="10.00">tutorial_superimpose</text>
<text text-anchor="middle" x="418.5" y="-7.5" font-family="Helvetica,sans-Serif" font-size="10.00">_customshader.cpp</text>
</a>
</g>
</g>
<!-- Node11&#45;&gt;Node15 -->
<g id="edge6" class="edge"><title>Node11&#45;&gt;Node15</title>
<path fill="none" stroke="midnightblue" d="M250.549,-65.2467C283.966,-55.5475 333.339,-41.2174 369.912,-30.6024"/>
<polygon fill="midnightblue" stroke="midnightblue" points="249.35,-61.9501 240.722,-68.0989 251.302,-68.6727 249.35,-61.9501"/>
</g>
</g>
</svg>
