<?xml version="1.0" encoding="UTF-8" standalone="no"?>
<!DOCTYPE svg PUBLIC "-//W3C//DTD SVG 1.1//EN"
 "http://www.w3.org/Graphics/SVG/1.1/DTD/svg11.dtd">
<!-- Generated by graphviz version 2.38.0 (20140413.2041)
 -->
<!-- Title: C:/Users/cfantacci/GitHub/superimpose&#45;mesh&#45;lib/src/SuperimposeMesh/include/SuperimposeMesh/Mesh.h Pages: 1 -->
<svg width="696pt" height="339pt"
 viewBox="0.00 0.00 696.00 339.00" xmlns="http://www.w3.org/2000/svg" xmlns:xlink="http://www.w3.org/1999/xlink">
<g id="graph0" class="graph" transform="scale(1 1) rotate(0) translate(4 335)">
<title>C:/Users/cfantacci/GitHub/superimpose&#45;mesh&#45;lib/src/SuperimposeMesh/include/SuperimposeMesh/Mesh.h</title>
<polygon fill="white" stroke="none" points="-4,4 -4,-335 692,-335 692,4 -4,4"/>
<!-- Node9 -->
<g id="node1" class="node"><title>Node9</title>
<polygon fill="#bfbfbf" stroke="black" points="432.5,-278.5 432.5,-330.5 602.5,-330.5 602.5,-278.5 432.5,-278.5"/>
<text text-anchor="start" x="440.5" y="-318.5" font-family="Helvetica,sans-Serif" font-size="10.00">C:/Users/cfantacci</text>
<text text-anchor="start" x="440.5" y="-307.5" font-family="Helvetica,sans-Serif" font-size="10.00">/GitHub/superimpose</text>
<text text-anchor="start" x="440.5" y="-296.5" font-family="Helvetica,sans-Serif" font-size="10.00">&#45;mesh&#45;lib/src/SuperimposeMesh</text>
<text text-anchor="middle" x="517.5" y="-285.5" font-family="Helvetica,sans-Serif" font-size="10.00">/include/SuperimposeMesh/Mesh.h</text>
</g>
<!-- Node10 -->
<g id="node2" class="node"><title>Node10</title>
<g id="a_node2"><a xlink:href="Model_8h.html" target="_top" xlink:title="C:/Users/cfantacci\l/GitHub/superimpose\l&#45;mesh&#45;lib/src/SuperimposeMesh\l/include/SuperimposeMesh/Model.h">
<polygon fill="white" stroke="black" points="340.5,-189.5 340.5,-241.5 512.5,-241.5 512.5,-189.5 340.5,-189.5"/>
<text text-anchor="start" x="348.5" y="-229.5" font-family="Helvetica,sans-Serif" font-size="10.00">C:/Users/cfantacci</text>
<text text-anchor="start" x="348.5" y="-218.5" font-family="Helvetica,sans-Serif" font-size="10.00">/GitHub/superimpose</text>
<text text-anchor="start" x="348.5" y="-207.5" font-family="Helvetica,sans-Serif" font-size="10.00">&#45;mesh&#45;lib/src/SuperimposeMesh</text>
<text text-anchor="middle" x="426.5" y="-196.5" font-family="Helvetica,sans-Serif" font-size="10.00">/include/SuperimposeMesh/Model.h</text>
</a>
</g>
</g>
<!-- Node9&#45;&gt;Node10 -->
<g id="edge1" class="edge"><title>Node9&#45;&gt;Node10</title>
<path fill="none" stroke="midnightblue" d="M483.886,-271.363C473.613,-261.542 462.471,-250.89 452.762,-241.607"/>
<polygon fill="midnightblue" stroke="midnightblue" points="481.532,-273.955 491.179,-278.336 486.37,-268.896 481.532,-273.955"/>
</g>
<!-- Node17 -->
<g id="node9" class="node"><title>Node17</title>
<g id="a_node9"><a xlink:href="Mesh_8cpp.html" target="_top" xlink:title="C:/Users/cfantacci\l/GitHub/superimpose\l&#45;mesh&#45;lib/src/SuperimposeMesh\l/src/Mesh.cpp">
<polygon fill="white" stroke="black" points="531,-189.5 531,-241.5 688,-241.5 688,-189.5 531,-189.5"/>
<text text-anchor="start" x="539" y="-229.5" font-family="Helvetica,sans-Serif" font-size="10.00">C:/Users/cfantacci</text>
<text text-anchor="start" x="539" y="-218.5" font-family="Helvetica,sans-Serif" font-size="10.00">/GitHub/superimpose</text>
<text text-anchor="start" x="539" y="-207.5" font-family="Helvetica,sans-Serif" font-size="10.00">&#45;mesh&#45;lib/src/SuperimposeMesh</text>
<text text-anchor="middle" x="609.5" y="-196.5" font-family="Helvetica,sans-Serif" font-size="10.00">/src/Mesh.cpp</text>
</a>
</g>
</g>
<!-- Node9&#45;&gt;Node17 -->
<g id="edge8" class="edge"><title>Node9&#45;&gt;Node17</title>
<path fill="none" stroke="midnightblue" d="M551.484,-271.363C561.869,-261.542 573.134,-250.89 582.95,-241.607"/>
<polygon fill="midnightblue" stroke="midnightblue" points="548.971,-268.922 544.11,-278.336 553.781,-274.008 548.971,-268.922"/>
</g>
<!-- Node11 -->
<g id="node3" class="node"><title>Node11</title>
<g id="a_node3"><a xlink:href="SICAD_8h.html" target="_top" xlink:title="C:/Users/cfantacci\l/GitHub/superimpose\l&#45;mesh&#45;lib/src/SuperimposeMesh\l/include/SuperimposeMesh/SICAD.h">
<polygon fill="white" stroke="black" points="247,-100.5 247,-152.5 422,-152.5 422,-100.5 247,-100.5"/>
<text text-anchor="start" x="255" y="-140.5" font-family="Helvetica,sans-Serif" font-size="10.00">C:/Users/cfantacci</text>
<text text-anchor="start" x="255" y="-129.5" font-family="Helvetica,sans-Serif" font-size="10.00">/GitHub/superimpose</text>
<text text-anchor="start" x="255" y="-118.5" font-family="Helvetica,sans-Serif" font-size="10.00">&#45;mesh&#45;lib/src/SuperimposeMesh</text>
<text text-anchor="middle" x="334.5" y="-107.5" font-family="Helvetica,sans-Serif" font-size="10.00">/include/SuperimposeMesh/SICAD.h</text>
</a>
</g>
</g>
<!-- Node10&#45;&gt;Node11 -->
<g id="edge2" class="edge"><title>Node10&#45;&gt;Node11</title>
<path fill="none" stroke="midnightblue" d="M392.516,-182.363C382.131,-172.542 370.866,-161.89 361.05,-152.607"/>
<polygon fill="midnightblue" stroke="midnightblue" points="390.219,-185.008 399.89,-189.336 395.029,-179.922 390.219,-185.008"/>
</g>
<!-- Node16 -->
<g id="node8" class="node"><title>Node16</title>
<g id="a_node8"><a xlink:href="Model_8cpp.html" target="_top" xlink:title="C:/Users/cfantacci\l/GitHub/superimpose\l&#45;mesh&#45;lib/src/SuperimposeMesh\l/src/Model.cpp">
<polygon fill="white" stroke="black" points="440,-100.5 440,-152.5 597,-152.5 597,-100.5 440,-100.5"/>
<text text-anchor="start" x="448" y="-140.5" font-family="Helvetica,sans-Serif" font-size="10.00">C:/Users/cfantacci</text>
<text text-anchor="start" x="448" y="-129.5" font-family="Helvetica,sans-Serif" font-size="10.00">/GitHub/superimpose</text>
<text text-anchor="start" x="448" y="-118.5" font-family="Helvetica,sans-Serif" font-size="10.00">&#45;mesh&#45;lib/src/SuperimposeMesh</text>
<text text-anchor="middle" x="518.5" y="-107.5" font-family="Helvetica,sans-Serif" font-size="10.00">/src/Model.cpp</text>
</a>
</g>
</g>
<!-- Node10&#45;&gt;Node16 -->
<g id="edge7" class="edge"><title>Node10&#45;&gt;Node16</title>
<path fill="none" stroke="midnightblue" d="M460.484,-182.363C470.869,-172.542 482.134,-161.89 491.95,-152.607"/>
<polygon fill="midnightblue" stroke="midnightblue" points="457.971,-179.922 453.11,-189.336 462.781,-185.008 457.971,-179.922"/>
</g>
<!-- Node12 -->
<g id="node4" class="node"><title>Node12</title>
<g id="a_node4"><a xlink:href="SICAD_8cpp.html" target="_top" xlink:title="C:/Users/cfantacci\l/GitHub/superimpose\l&#45;mesh&#45;lib/src/SuperimposeMesh\l/src/SICAD.cpp">
<polygon fill="white" stroke="black" points="0,-6 0,-58 157,-58 157,-6 0,-6"/>
<text text-anchor="start" x="8" y="-46" font-family="Helvetica,sans-Serif" font-size="10.00">C:/Users/cfantacci</text>
<text text-anchor="start" x="8" y="-35" font-family="Helvetica,sans-Serif" font-size="10.00">/GitHub/superimpose</text>
<text text-anchor="start" x="8" y="-24" font-family="Helvetica,sans-Serif" font-size="10.00">&#45;mesh&#45;lib/src/SuperimposeMesh</text>
<text text-anchor="middle" x="78.5" y="-13" font-family="Helvetica,sans-Serif" font-size="10.00">/src/SICAD.cpp</text>
</a>
</g>
</g>
<!-- Node11&#45;&gt;Node12 -->
<g id="edge3" class="edge"><title>Node11&#45;&gt;Node12</title>
<path fill="none" stroke="midnightblue" d="M255.662,-97.0137C221.202,-84.5623 181.137,-70.0855 147.833,-58.0518"/>
<polygon fill="midnightblue" stroke="midnightblue" points="254.628,-100.362 265.223,-100.468 257.007,-93.7781 254.628,-100.362"/>
</g>
<!-- Node13 -->
<g id="node5" class="node"><title>Node13</title>
<g id="a_node5"><a xlink:href="tutorial__background_8cpp.html" target="_top" xlink:title="C:/Users/cfantacci\l/GitHub/superimpose\l&#45;mesh&#45;lib/doc/tutorial\l_code/tutorial_background.cpp">
<polygon fill="white" stroke="black" points="175,-6 175,-58 324,-58 324,-6 175,-6"/>
<text text-anchor="start" x="183" y="-46" font-family="Helvetica,sans-Serif" font-size="10.00">C:/Users/cfantacci</text>
<text text-anchor="start" x="183" y="-35" font-family="Helvetica,sans-Serif" font-size="10.00">/GitHub/superimpose</text>
<text text-anchor="start" x="183" y="-24" font-family="Helvetica,sans-Serif" font-size="10.00">&#45;mesh&#45;lib/doc/tutorial</text>
<text text-anchor="middle" x="249.5" y="-13" font-family="Helvetica,sans-Serif" font-size="10.00">_code/tutorial_background.cpp</text>
</a>
</g>
</g>
<!-- Node11&#45;&gt;Node13 -->
<g id="edge4" class="edge"><title>Node11&#45;&gt;Node13</title>
<path fill="none" stroke="midnightblue" d="M304.287,-92.6214C293.899,-81.317 282.44,-68.8465 272.699,-58.2455"/>
<polygon fill="midnightblue" stroke="midnightblue" points="301.93,-95.2289 311.273,-100.224 307.084,-90.4925 301.93,-95.2289"/>
</g>
<!-- Node14 -->
<g id="node6" class="node"><title>Node14</title>
<g id="a_node6"><a xlink:href="tutorial__superimpose_8cpp.html" target="_top" xlink:title="C:/Users/cfantacci\l/GitHub/superimpose\l&#45;mesh&#45;lib/doc/tutorial\l_code/tutorial_superimpose.cpp">
<polygon fill="white" stroke="black" points="342,-6 342,-58 497,-58 497,-6 342,-6"/>
<text text-anchor="start" x="350" y="-46" font-family="Helvetica,sans-Serif" font-size="10.00">C:/Users/cfantacci</text>
<text text-anchor="start" x="350" y="-35" font-family="Helvetica,sans-Serif" font-size="10.00">/GitHub/superimpose</text>
<text text-anchor="start" x="350" y="-24" font-family="Helvetica,sans-Serif" font-size="10.00">&#45;mesh&#45;lib/doc/tutorial</text>
<text text-anchor="middle" x="419.5" y="-13" font-family="Helvetica,sans-Serif" font-size="10.00">_code/tutorial_superimpose.cpp</text>
</a>
</g>
</g>
<!-- Node11&#45;&gt;Node14 -->
<g id="edge5" class="edge"><title>Node11&#45;&gt;Node14</title>
<path fill="none" stroke="midnightblue" d="M364.713,-92.6214C375.101,-81.317 386.56,-68.8465 396.301,-58.2455"/>
<polygon fill="midnightblue" stroke="midnightblue" points="361.916,-90.4925 357.727,-100.224 367.07,-95.2289 361.916,-90.4925"/>
</g>
<!-- Node15 -->
<g id="node7" class="node"><title>Node15</title>
<g id="a_node7"><a xlink:href="tutorial__superimpose__customshader_8cpp.html" target="_top" xlink:title="C:/Users/cfantacci\l/GitHub/superimpose\l&#45;mesh&#45;lib/doc/tutorial\l_code/tutorial_superimpose\l_customshader.cpp">
<polygon fill="white" stroke="black" points="515.5,-0.5 515.5,-63.5 651.5,-63.5 651.5,-0.5 515.5,-0.5"/>
<text text-anchor="start" x="523.5" y="-51.5" font-family="Helvetica,sans-Serif" font-size="10.00">C:/Users/cfantacci</text>
<text text-anchor="start" x="523.5" y="-40.5" font-family="Helvetica,sans-Serif" font-size="10.00">/GitHub/superimpose</text>
<text text-anchor="start" x="523.5" y="-29.5" font-family="Helvetica,sans-Serif" font-size="10.00">&#45;mesh&#45;lib/doc/tutorial</text>
<text text-anchor="start" x="523.5" y="-18.5" font-family="Helvetica,sans-Serif" font-size="10.00">_code/tutorial_superimpose</text>
<text text-anchor="middle" x="583.5" y="-7.5" font-family="Helvetica,sans-Serif" font-size="10.00">_customshader.cpp</text>
</a>
</g>
</g>
<!-- Node11&#45;&gt;Node15 -->
<g id="edge6" class="edge"><title>Node11&#45;&gt;Node15</title>
<path fill="none" stroke="midnightblue" d="M416.26,-97.0064C444.891,-86.8327 477.202,-75.1305 506.5,-64 509.329,-62.9252 512.212,-61.8182 515.121,-60.6914"/>
<polygon fill="midnightblue" stroke="midnightblue" points="414.957,-93.7549 406.701,-100.395 417.296,-100.353 414.957,-93.7549"/>
</g>
</g>
</svg>
