<?xml version="1.0" encoding="UTF-8" standalone="no"?>
<!DOCTYPE svg PUBLIC "-//W3C//DTD SVG 1.1//EN"
 "http://www.w3.org/Graphics/SVG/1.1/DTD/svg11.dtd">
<!-- Generated by graphviz version 2.38.0 (20140413.2041)
 -->
<!-- Title: Mesh.h Pages: 1 -->
<svg width="554pt" height="140pt"
 viewBox="0.00 0.00 553.50 140.00" xmlns="http://www.w3.org/2000/svg" xmlns:xlink="http://www.w3.org/1999/xlink">
<g id="graph0" class="graph" transform="scale(1 1) rotate(0) translate(4 136)">
<title>Mesh.h</title>
<polygon fill="white" stroke="none" points="-4,4 -4,-136 549.5,-136 549.5,4 -4,4"/>
<!-- Node0 -->
<g id="node1" class="node"><title>Node0</title>
<polygon fill="#bfbfbf" stroke="black" points="253,-112.5 253,-131.5 302,-131.5 302,-112.5 253,-112.5"/>
<text text-anchor="middle" x="277.5" y="-119.5" font-family="Helvetica,sans-Serif" font-size="10.00">Mesh.h</text>
</g>
<!-- Node1 -->
<g id="node2" class="node"><title>Node1</title>
<g id="a_node2"><a xlink:href="Shader_8h.html" target="_top" xlink:title="SuperimposeMesh/Shader.h">
<polygon fill="white" stroke="black" points="19.5,-56.5 19.5,-75.5 159.5,-75.5 159.5,-56.5 19.5,-56.5"/>
<text text-anchor="middle" x="89.5" y="-63.5" font-family="Helvetica,sans-Serif" font-size="10.00">SuperimposeMesh/Shader.h</text>
</a>
</g>
</g>
<!-- Node0&#45;&gt;Node1 -->
<g id="edge1" class="edge"><title>Node0&#45;&gt;Node1</title>
<path fill="none" stroke="midnightblue" d="M252.922,-113.94C221.535,-104.925 166.816,-89.2079 129.414,-78.4646"/>
<polygon fill="midnightblue" stroke="midnightblue" points="129.935,-74.9728 119.357,-75.576 128.002,-81.7008 129.935,-74.9728"/>
</g>
<!-- Node4 -->
<g id="node5" class="node"><title>Node4</title>
<polygon fill="white" stroke="#bfbfbf" points="143.5,-0.5 143.5,-19.5 203.5,-19.5 203.5,-0.5 143.5,-0.5"/>
<text text-anchor="middle" x="173.5" y="-7.5" font-family="Helvetica,sans-Serif" font-size="10.00">GL/glew.h</text>
</g>
<!-- Node0&#45;&gt;Node4 -->
<g id="edge7" class="edge"><title>Node0&#45;&gt;Node4</title>
<path fill="none" stroke="midnightblue" d="M258.324,-112.42C242.78,-104.694 221.127,-92.0893 206.5,-76 194.153,-62.4188 185.204,-43.3638 179.766,-29.3961"/>
<polygon fill="midnightblue" stroke="midnightblue" points="183.01,-28.0756 176.294,-19.8815 176.434,-30.4754 183.01,-28.0756"/>
</g>
<!-- Node5 -->
<g id="node6" class="node"><title>Node5</title>
<polygon fill="white" stroke="#bfbfbf" points="215.5,-56.5 215.5,-75.5 257.5,-75.5 257.5,-56.5 215.5,-56.5"/>
<text text-anchor="middle" x="236.5" y="-63.5" font-family="Helvetica,sans-Serif" font-size="10.00">vector</text>
</g>
<!-- Node0&#45;&gt;Node5 -->
<g id="edge5" class="edge"><title>Node0&#45;&gt;Node5</title>
<path fill="none" stroke="midnightblue" d="M270.73,-112.083C264.938,-104.455 256.442,-93.2645 249.362,-83.9408"/>
<polygon fill="midnightblue" stroke="midnightblue" points="251.979,-81.5991 243.144,-75.7511 246.404,-85.8321 251.979,-81.5991"/>
</g>
<!-- Node6 -->
<g id="node7" class="node"><title>Node6</title>
<polygon fill="white" stroke="#bfbfbf" points="275.5,-56.5 275.5,-75.5 361.5,-75.5 361.5,-56.5 275.5,-56.5"/>
<text text-anchor="middle" x="318.5" y="-63.5" font-family="Helvetica,sans-Serif" font-size="10.00">assimp/scene.h</text>
</g>
<!-- Node0&#45;&gt;Node6 -->
<g id="edge6" class="edge"><title>Node0&#45;&gt;Node6</title>
<path fill="none" stroke="midnightblue" d="M284.27,-112.083C290.062,-104.455 298.558,-93.2645 305.638,-83.9408"/>
<polygon fill="midnightblue" stroke="midnightblue" points="308.596,-85.8321 311.856,-75.7511 303.021,-81.5991 308.596,-85.8321"/>
</g>
<!-- Node7 -->
<g id="node8" class="node"><title>Node7</title>
<polygon fill="white" stroke="#bfbfbf" points="379.5,-56.5 379.5,-75.5 453.5,-75.5 453.5,-56.5 379.5,-56.5"/>
<text text-anchor="middle" x="416.5" y="-63.5" font-family="Helvetica,sans-Serif" font-size="10.00">glm/vec2.hpp</text>
</g>
<!-- Node0&#45;&gt;Node7 -->
<g id="edge8" class="edge"><title>Node0&#45;&gt;Node7</title>
<path fill="none" stroke="midnightblue" d="M299.525,-112.444C322.604,-103.478 359.062,-89.314 385.141,-79.1827"/>
<polygon fill="midnightblue" stroke="midnightblue" points="386.524,-82.4002 394.578,-75.5164 383.989,-75.8753 386.524,-82.4002"/>
</g>
<!-- Node8 -->
<g id="node9" class="node"><title>Node8</title>
<polygon fill="white" stroke="#bfbfbf" points="471.5,-56.5 471.5,-75.5 545.5,-75.5 545.5,-56.5 471.5,-56.5"/>
<text text-anchor="middle" x="508.5" y="-63.5" font-family="Helvetica,sans-Serif" font-size="10.00">glm/vec3.hpp</text>
</g>
<!-- Node0&#45;&gt;Node8 -->
<g id="edge9" class="edge"><title>Node0&#45;&gt;Node8</title>
<path fill="none" stroke="midnightblue" d="M302.221,-115.221C340.252,-106.331 413.758,-89.1476 461.968,-77.8777"/>
<polygon fill="midnightblue" stroke="midnightblue" points="462.909,-81.2521 471.85,-75.5676 461.315,-74.4359 462.909,-81.2521"/>
</g>
<!-- Node2 -->
<g id="node3" class="node"><title>Node2</title>
<polygon fill="white" stroke="#bfbfbf" points="0,-0.5 0,-19.5 59,-19.5 59,-0.5 0,-0.5"/>
<text text-anchor="middle" x="29.5" y="-7.5" font-family="Helvetica,sans-Serif" font-size="10.00">exception</text>
</g>
<!-- Node1&#45;&gt;Node2 -->
<g id="edge2" class="edge"><title>Node1&#45;&gt;Node2</title>
<path fill="none" stroke="midnightblue" d="M79.86,-56.324C70.9904,-48.3414 57.6253,-36.3128 46.8921,-26.6529"/>
<polygon fill="midnightblue" stroke="midnightblue" points="49.0898,-23.922 39.3154,-19.8339 44.407,-29.1251 49.0898,-23.922"/>
</g>
<!-- Node3 -->
<g id="node4" class="node"><title>Node3</title>
<polygon fill="white" stroke="#bfbfbf" points="77,-0.5 77,-19.5 118,-19.5 118,-0.5 77,-0.5"/>
<text text-anchor="middle" x="97.5" y="-7.5" font-family="Helvetica,sans-Serif" font-size="10.00">string</text>
</g>
<!-- Node1&#45;&gt;Node3 -->
<g id="edge3" class="edge"><title>Node1&#45;&gt;Node3</title>
<path fill="none" stroke="midnightblue" d="M90.821,-56.083C91.8811,-48.9272 93.4059,-38.6353 94.7309,-29.6911"/>
<polygon fill="midnightblue" stroke="midnightblue" points="98.2002,-30.1561 96.2035,-19.7511 91.2758,-29.1302 98.2002,-30.1561"/>
</g>
<!-- Node1&#45;&gt;Node4 -->
<g id="edge4" class="edge"><title>Node1&#45;&gt;Node4</title>
<path fill="none" stroke="midnightblue" d="M102.996,-56.324C116.1,-47.9002 136.212,-34.9709 151.607,-25.0741"/>
<polygon fill="midnightblue" stroke="midnightblue" points="153.518,-28.0063 160.037,-19.6545 149.733,-22.118 153.518,-28.0063"/>
</g>
</g>
</svg>
