<?xml version="1.0" encoding="UTF-8" standalone="no"?>
<!DOCTYPE svg PUBLIC "-//W3C//DTD SVG 1.1//EN"
 "http://www.w3.org/Graphics/SVG/1.1/DTD/svg11.dtd">
<!-- Generated by graphviz version 2.38.0 (20140413.2041)
 -->
<!-- Title: Mesh.cpp Pages: 1 -->
<!--zoomable 196 -->
<svg id="main" version="1.1" xmlns="http://www.w3.org/2000/svg" xmlns:xlink="http://www.w3.org/1999/xlink" xml:space="preserve" onload="init(evt)">
<style type="text/css"><![CDATA[
.edge:hover path { stroke: red; }
.edge:hover polygon { stroke: red; fill: red; }
]]></style>
<script type="text/javascript"><![CDATA[
var edges = document.getElementsByTagName('g');
if (edges && edges.length) {
  for (var i=0;i<edges.length;i++) {
    if (edges[i].id.substr(0,4)=='edge') {
      edges[i].setAttribute('class','edge');
    }
  }
}
]]></script>
        <defs>
                <circle id="rim" cx="0" cy="0" r="7"/>
                <circle id="rim2" cx="0" cy="0" r="3.5"/>
                <g id="zoomPlus">
                        <use xlink:href="#rim" fill="#404040">
                                <set attributeName="fill" to="#808080" begin="zoomplus.mouseover" end="zoomplus.mouseout"/>
                        </use>
                        <path d="M-4,0h8M0,-4v8" fill="none" stroke="white" stroke-width="1.5" pointer-events="none"/>
                </g>
                <g id="zoomMin">
                        <use xlink:href="#rim" fill="#404040">
                                <set attributeName="fill" to="#808080" begin="zoomminus.mouseover" end="zoomminus.mouseout"/>
                        </use>
                        <path d="M-4,0h8" fill="none" stroke="white" stroke-width="1.5" pointer-events="none"/>
                </g>
                <g id="dirArrow">
                        <path fill="none" stroke="white" stroke-width="1.5" d="M0,-3.0v7 M-2.5,-0.5L0,-3.0L2.5,-0.5"/>
                </g>
               <g id="resetDef">
                       <use xlink:href="#rim2" fill="#404040">
                               <set attributeName="fill" to="#808080" begin="reset.mouseover" end="reset.mouseout"/>
                       </use>
               </g>
        </defs>

<script type="text/javascript">
var viewWidth = 925;
var viewHeight = 196;
var sectionId = 'dynsection-0';
</script>
<script xlink:href="svgpan.js"/>
<svg id="graph" class="graph">
<g id="viewport">
<title>Mesh.cpp</title>
<polygon fill="white" stroke="none" points="-4,4 -4,-192 920.843,-192 920.843,4 -4,4"/>
<!-- Node0 -->
<g id="node1" class="node"><title>Node0</title>
<polygon fill="#bfbfbf" stroke="black" points="566.343,-168.5 566.343,-187.5 625.343,-187.5 625.343,-168.5 566.343,-168.5"/>
<text text-anchor="middle" x="595.843" y="-175.5" font-family="Helvetica,sans-Serif" font-size="10.00">Mesh.cpp</text>
</g>
<!-- Node1 -->
<g id="node2" class="node"><title>Node1</title>
<g id="a_node2"><a xlink:href="Mesh_8h.html" target="_top" xlink:title="SuperimposeMesh/Mesh.h">
<polygon fill="white" stroke="black" points="151.343,-112.5 151.343,-131.5 284.343,-131.5 284.343,-112.5 151.343,-112.5"/>
<text text-anchor="middle" x="217.843" y="-119.5" font-family="Helvetica,sans-Serif" font-size="10.00">SuperimposeMesh/Mesh.h</text>
</a>
</g>
</g>
<!-- Node0&#45;&gt;Node1 -->
<g id="edge1" class="edge"><title>Node0&#45;&gt;Node1</title>
<path fill="none" stroke="midnightblue" d="M566.182,-172.763C506.62,-164.254 371.054,-144.887 287.698,-132.979"/>
<polygon fill="midnightblue" stroke="midnightblue" points="287.944,-129.479 277.549,-131.529 286.954,-136.409 287.944,-129.479"/>
</g>
<!-- Node4 -->
<g id="node5" class="node"><title>Node4</title>
<polygon fill="white" stroke="#bfbfbf" points="497.343,-0.5 497.343,-19.5 538.343,-19.5 538.343,-0.5 497.343,-0.5"/>
<text text-anchor="middle" x="517.843" y="-7.5" font-family="Helvetica,sans-Serif" font-size="10.00">string</text>
</g>
<!-- Node0&#45;&gt;Node4 -->
<g id="edge11" class="edge"><title>Node0&#45;&gt;Node4</title>
<path fill="none" stroke="midnightblue" d="M584.464,-168.2C574.475,-159.894 560.263,-146.569 551.843,-132 532.803,-99.0552 523.926,-54.848 520.201,-30.0087"/>
<polygon fill="midnightblue" stroke="midnightblue" points="523.626,-29.2179 518.799,-19.7862 516.69,-30.169 523.626,-29.2179"/>
</g>
<!-- Node10 -->
<g id="node11" class="node"><title>Node10</title>
<polygon fill="white" stroke="#bfbfbf" points="560.843,-112.5 560.843,-131.5 630.843,-131.5 630.843,-112.5 560.843,-112.5"/>
<text text-anchor="middle" x="595.843" y="-119.5" font-family="Helvetica,sans-Serif" font-size="10.00">glm/glm.hpp</text>
</g>
<!-- Node0&#45;&gt;Node10 -->
<g id="edge12" class="edge"><title>Node0&#45;&gt;Node10</title>
<path fill="none" stroke="midnightblue" d="M595.843,-168.083C595.843,-161.006 595.843,-150.861 595.843,-141.986"/>
<polygon fill="midnightblue" stroke="midnightblue" points="599.343,-141.751 595.843,-131.751 592.343,-141.751 599.343,-141.751"/>
</g>
<!-- Node11 -->
<g id="node12" class="node"><title>Node11</title>
<polygon fill="white" stroke="#bfbfbf" points="649.343,-112.5 649.343,-131.5 792.343,-131.5 792.343,-112.5 649.343,-112.5"/>
<text text-anchor="middle" x="720.843" y="-119.5" font-family="Helvetica,sans-Serif" font-size="10.00">glm/gtc/matrix_transform.hpp</text>
</g>
<!-- Node0&#45;&gt;Node11 -->
<g id="edge13" class="edge"><title>Node0&#45;&gt;Node11</title>
<path fill="none" stroke="midnightblue" d="M615.65,-168.444C636.13,-159.596 668.326,-145.687 691.708,-135.586"/>
<polygon fill="midnightblue" stroke="midnightblue" points="693.337,-138.695 701.129,-131.516 690.561,-132.269 693.337,-138.695"/>
</g>
<!-- Node12 -->
<g id="node13" class="node"><title>Node12</title>
<polygon fill="white" stroke="#bfbfbf" points="810.843,-112.5 810.843,-131.5 916.843,-131.5 916.843,-112.5 810.843,-112.5"/>
<text text-anchor="middle" x="863.843" y="-119.5" font-family="Helvetica,sans-Serif" font-size="10.00">glm/gtc/type_ptr.hpp</text>
</g>
<!-- Node0&#45;&gt;Node12 -->
<g id="edge14" class="edge"><title>Node0&#45;&gt;Node12</title>
<path fill="none" stroke="midnightblue" d="M625.548,-171.015C670.324,-161.993 755.759,-144.778 811.234,-133.6"/>
<polygon fill="midnightblue" stroke="midnightblue" points="812.116,-136.993 821.227,-131.587 810.733,-130.131 812.116,-136.993"/>
</g>
<!-- Node2 -->
<g id="node3" class="node"><title>Node2</title>
<g id="a_node3"><a xlink:href="Shader_8h.html" target="_top" xlink:title="SuperimposeMesh/Shader.h">
<polygon fill="white" stroke="black" points="364.843,-56.5 364.843,-75.5 504.843,-75.5 504.843,-56.5 364.843,-56.5"/>
<text text-anchor="middle" x="434.843" y="-63.5" font-family="Helvetica,sans-Serif" font-size="10.00">SuperimposeMesh/Shader.h</text>
</a>
</g>
</g>
<!-- Node1&#45;&gt;Node2 -->
<g id="edge2" class="edge"><title>Node1&#45;&gt;Node2</title>
<path fill="none" stroke="midnightblue" d="M252.227,-112.444C289.765,-103.102 349.974,-88.1194 390.91,-77.9326"/>
<polygon fill="midnightblue" stroke="midnightblue" points="391.761,-81.3278 400.62,-75.5164 390.07,-74.5349 391.761,-81.3278"/>
</g>
<!-- Node5 -->
<g id="node6" class="node"><title>Node5</title>
<polygon fill="white" stroke="#bfbfbf" points="142.843,-0.5 142.843,-19.5 202.843,-19.5 202.843,-0.5 142.843,-0.5"/>
<text text-anchor="middle" x="172.843" y="-7.5" font-family="Helvetica,sans-Serif" font-size="10.00">GL/glew.h</text>
</g>
<!-- Node1&#45;&gt;Node5 -->
<g id="edge8" class="edge"><title>Node1&#45;&gt;Node5</title>
<path fill="none" stroke="midnightblue" d="M151.118,-115.694C96.5837,-109.808 25.6874,-98.0732 7.84307,-76 -27.7633,-31.9554 72.9996,-17.6467 132.534,-13.0815"/>
<polygon fill="midnightblue" stroke="midnightblue" points="133.044,-16.5543 142.773,-12.3602 132.552,-9.5716 133.044,-16.5543"/>
</g>
<!-- Node6 -->
<g id="node7" class="node"><title>Node6</title>
<polygon fill="white" stroke="#bfbfbf" points="16.8431,-56.5 16.8431,-75.5 58.8431,-75.5 58.8431,-56.5 16.8431,-56.5"/>
<text text-anchor="middle" x="37.8431" y="-63.5" font-family="Helvetica,sans-Serif" font-size="10.00">vector</text>
</g>
<!-- Node1&#45;&gt;Node6 -->
<g id="edge6" class="edge"><title>Node1&#45;&gt;Node6</title>
<path fill="none" stroke="midnightblue" d="M189.322,-112.444C156.441,-102.579 102.59,-86.424 68.7379,-76.2685"/>
<polygon fill="midnightblue" stroke="midnightblue" points="69.5036,-72.8441 58.9196,-73.323 67.4922,-79.5489 69.5036,-72.8441"/>
</g>
<!-- Node7 -->
<g id="node8" class="node"><title>Node7</title>
<polygon fill="white" stroke="#bfbfbf" points="76.8431,-56.5 76.8431,-75.5 162.843,-75.5 162.843,-56.5 76.8431,-56.5"/>
<text text-anchor="middle" x="119.843" y="-63.5" font-family="Helvetica,sans-Serif" font-size="10.00">assimp/scene.h</text>
</g>
<!-- Node1&#45;&gt;Node7 -->
<g id="edge7" class="edge"><title>Node1&#45;&gt;Node7</title>
<path fill="none" stroke="midnightblue" d="M202.098,-112.324C186.524,-103.743 162.466,-90.486 144.384,-80.5224"/>
<polygon fill="midnightblue" stroke="midnightblue" points="145.997,-77.4152 135.549,-75.6545 142.619,-83.546 145.997,-77.4152"/>
</g>
<!-- Node8 -->
<g id="node9" class="node"><title>Node8</title>
<polygon fill="white" stroke="#bfbfbf" points="180.843,-56.5 180.843,-75.5 254.843,-75.5 254.843,-56.5 180.843,-56.5"/>
<text text-anchor="middle" x="217.843" y="-63.5" font-family="Helvetica,sans-Serif" font-size="10.00">glm/vec2.hpp</text>
</g>
<!-- Node1&#45;&gt;Node8 -->
<g id="edge9" class="edge"><title>Node1&#45;&gt;Node8</title>
<path fill="none" stroke="midnightblue" d="M217.843,-112.083C217.843,-105.006 217.843,-94.8611 217.843,-85.9865"/>
<polygon fill="midnightblue" stroke="midnightblue" points="221.343,-85.751 217.843,-75.7511 214.343,-85.7511 221.343,-85.751"/>
</g>
<!-- Node9 -->
<g id="node10" class="node"><title>Node9</title>
<polygon fill="white" stroke="#bfbfbf" points="272.843,-56.5 272.843,-75.5 346.843,-75.5 346.843,-56.5 272.843,-56.5"/>
<text text-anchor="middle" x="309.843" y="-63.5" font-family="Helvetica,sans-Serif" font-size="10.00">glm/vec3.hpp</text>
</g>
<!-- Node1&#45;&gt;Node9 -->
<g id="edge10" class="edge"><title>Node1&#45;&gt;Node9</title>
<path fill="none" stroke="midnightblue" d="M232.624,-112.324C247.11,-103.822 269.416,-90.7288 286.336,-80.7975"/>
<polygon fill="midnightblue" stroke="midnightblue" points="288.246,-83.735 295.098,-75.6545 284.702,-77.6981 288.246,-83.735"/>
</g>
<!-- Node3 -->
<g id="node4" class="node"><title>Node3</title>
<polygon fill="white" stroke="#bfbfbf" points="405.343,-0.5 405.343,-19.5 464.343,-19.5 464.343,-0.5 405.343,-0.5"/>
<text text-anchor="middle" x="434.843" y="-7.5" font-family="Helvetica,sans-Serif" font-size="10.00">exception</text>
</g>
<!-- Node2&#45;&gt;Node3 -->
<g id="edge3" class="edge"><title>Node2&#45;&gt;Node3</title>
<path fill="none" stroke="midnightblue" d="M434.843,-56.083C434.843,-49.0059 434.843,-38.8611 434.843,-29.9865"/>
<polygon fill="midnightblue" stroke="midnightblue" points="438.343,-29.751 434.843,-19.7511 431.343,-29.7511 438.343,-29.751"/>
</g>
<!-- Node2&#45;&gt;Node4 -->
<g id="edge4" class="edge"><title>Node2&#45;&gt;Node4</title>
<path fill="none" stroke="midnightblue" d="M448.178,-56.324C461.005,-47.979 480.628,-35.2122 495.783,-25.3524"/>
<polygon fill="midnightblue" stroke="midnightblue" points="498.067,-28.0417 504.541,-19.6545 494.25,-22.1742 498.067,-28.0417"/>
</g>
<!-- Node2&#45;&gt;Node5 -->
<g id="edge5" class="edge"><title>Node2&#45;&gt;Node5</title>
<path fill="none" stroke="midnightblue" d="M393.328,-56.4435C343.89,-46.254 261.881,-29.3513 213.033,-19.2835"/>
<polygon fill="midnightblue" stroke="midnightblue" points="213.637,-15.8345 203.137,-17.2437 212.224,-22.6904 213.637,-15.8345"/>
</g>
</g>
</svg>
        <g id="navigator" transform="translate(0 0)" fill="#404254">
                <rect fill="#f2f5e9" fill-opacity="0.5" stroke="#606060" stroke-width=".5" x="0" y="0" width="60" height="60"/>
                <use id="zoomplus" xlink:href="#zoomPlus" x="17" y="9" onmousedown="handleZoom(evt,'in')"/>
                <use id="zoomminus" xlink:href="#zoomMin" x="42" y="9" onmousedown="handleZoom(evt,'out')"/>
                <use id="reset" xlink:href="#resetDef" x="30" y="36" onmousedown="handleReset()"/>
                <g id="arrowUp" xlink:href="#dirArrow" transform="translate(30 24)" onmousedown="handlePan(0,-1)">
                  <use xlink:href="#rim" fill="#404040">
                        <set attributeName="fill" to="#808080" begin="arrowUp.mouseover" end="arrowUp.mouseout"/>
                  </use>
                  <path fill="none" stroke="white" stroke-width="1.5" d="M0,-3.0v7 M-2.5,-0.5L0,-3.0L2.5,-0.5"/>
                </g>
                <g id="arrowRight" xlink:href="#dirArrow" transform="rotate(90) translate(36 -43)" onmousedown="handlePan(1,0)">
                  <use xlink:href="#rim" fill="#404040">
                        <set attributeName="fill" to="#808080" begin="arrowRight.mouseover" end="arrowRight.mouseout"/>
                  </use>
                  <path fill="none" stroke="white" stroke-width="1.5" d="M0,-3.0v7 M-2.5,-0.5L0,-3.0L2.5,-0.5"/>
                </g>
                <g id="arrowDown" xlink:href="#dirArrow" transform="rotate(180) translate(-30 -48)" onmousedown="handlePan(0,1)">
                  <use xlink:href="#rim" fill="#404040">
                        <set attributeName="fill" to="#808080" begin="arrowDown.mouseover" end="arrowDown.mouseout"/>
                  </use>
                  <path fill="none" stroke="white" stroke-width="1.5" d="M0,-3.0v7 M-2.5,-0.5L0,-3.0L2.5,-0.5"/>
                </g>
                <g id="arrowLeft" xlink:href="#dirArrow" transform="rotate(270) translate(-36 17)" onmousedown="handlePan(-1,0)">
                  <use xlink:href="#rim" fill="#404040">
                        <set attributeName="fill" to="#808080" begin="arrowLeft.mouseover" end="arrowLeft.mouseout"/>
                  </use>
                  <path fill="none" stroke="white" stroke-width="1.5" d="M0,-3.0v7 M-2.5,-0.5L0,-3.0L2.5,-0.5"/>
                </g>
        </g>
        <svg viewBox="0 0 15 15" width="100%" height="30px" preserveAspectRatio="xMaxYMin meet">
         <g id="arrow_out" transform="scale(0.3 0.3)">
          <a xlink:href="Mesh_8cpp__incl_org.svg" target="_base">
           <rect id="button" ry="5" rx="5" y="6" x="6" height="38" width="38"
                fill="#f2f5e9" fill-opacity="0.5" stroke="#606060" stroke-width="1.0"/>
           <path id="arrow"
             d="M 11.500037,31.436501 C 11.940474,20.09759 22.043105,11.32322 32.158766,21.979434 L 37.068811,17.246167 C 37.068811,17.246167 37.088388,32 37.088388,32 L 22.160133,31.978069 C 22.160133,31.978069 26.997745,27.140456 26.997745,27.140456 C 18.528582,18.264221 13.291696,25.230495 11.500037,31.436501 z"
             style="fill:#404040;"/>
          </a>
         </g>
        </svg>
</svg>
