<?xml version="1.0" encoding="UTF-8" standalone="no"?>
<!DOCTYPE svg PUBLIC "-//W3C//DTD SVG 1.1//EN"
 "http://www.w3.org/Graphics/SVG/1.1/DTD/svg11.dtd">
<!-- Generated by graphviz version 2.38.0 (20140413.2041)
 -->
<!-- Title: Model.h Pages: 1 -->
<svg width="606pt" height="196pt"
 viewBox="0.00 0.00 605.50 196.00" xmlns="http://www.w3.org/2000/svg" xmlns:xlink="http://www.w3.org/1999/xlink">
<g id="graph0" class="graph" transform="scale(1 1) rotate(0) translate(4 192)">
<title>Model.h</title>
<polygon fill="white" stroke="none" points="-4,4 -4,-192 601.5,-192 601.5,4 -4,4"/>
<!-- Node0 -->
<g id="node1" class="node"><title>Node0</title>
<polygon fill="#bfbfbf" stroke="black" points="195,-168.5 195,-187.5 246,-187.5 246,-168.5 195,-168.5"/>
<text text-anchor="middle" x="220.5" y="-175.5" font-family="Helvetica,sans-Serif" font-size="10.00">Model.h</text>
</g>
<!-- Node1 -->
<g id="node2" class="node"><title>Node1</title>
<g id="a_node2"><a xlink:href="Shader_8h.html" target="_top" xlink:title="SuperimposeMesh/Shader.h">
<polygon fill="white" stroke="black" points="33.5,-56.5 33.5,-75.5 173.5,-75.5 173.5,-56.5 33.5,-56.5"/>
<text text-anchor="middle" x="103.5" y="-63.5" font-family="Helvetica,sans-Serif" font-size="10.00">SuperimposeMesh/Shader.h</text>
</a>
</g>
</g>
<!-- Node0&#45;&gt;Node1 -->
<g id="edge1" class="edge"><title>Node0&#45;&gt;Node1</title>
<path fill="none" stroke="midnightblue" d="M211.319,-168.368C191.669,-149.894 145.293,-106.293 120.245,-82.7436"/>
<polygon fill="midnightblue" stroke="midnightblue" points="122.321,-79.8912 112.638,-75.5914 117.526,-84.9912 122.321,-79.8912"/>
</g>
<!-- Node3 -->
<g id="node4" class="node"><title>Node3</title>
<polygon fill="white" stroke="#bfbfbf" points="0,-0.5 0,-19.5 41,-19.5 41,-0.5 0,-0.5"/>
<text text-anchor="middle" x="20.5" y="-7.5" font-family="Helvetica,sans-Serif" font-size="10.00">string</text>
</g>
<!-- Node0&#45;&gt;Node3 -->
<g id="edge13" class="edge"><title>Node0&#45;&gt;Node3</title>
<path fill="none" stroke="midnightblue" d="M194.685,-172.164C151.099,-162.487 63.8321,-136.267 24.5,-76 15.714,-62.5375 15.4539,-43.9778 16.9592,-30.136"/>
<polygon fill="midnightblue" stroke="midnightblue" points="20.4821,-30.2401 18.4904,-19.8342 13.5581,-29.2109 20.4821,-30.2401"/>
</g>
<!-- Node4 -->
<g id="node5" class="node"><title>Node4</title>
<polygon fill="white" stroke="#bfbfbf" points="171.5,-0.5 171.5,-19.5 231.5,-19.5 231.5,-0.5 171.5,-0.5"/>
<text text-anchor="middle" x="201.5" y="-7.5" font-family="Helvetica,sans-Serif" font-size="10.00">GL/glew.h</text>
</g>
<!-- Node0&#45;&gt;Node4 -->
<g id="edge15" class="edge"><title>Node0&#45;&gt;Node4</title>
<path fill="none" stroke="midnightblue" d="M219.478,-168.075C216.488,-141.945 207.705,-65.2106 203.626,-29.577"/>
<polygon fill="midnightblue" stroke="midnightblue" points="207.095,-29.1052 202.481,-19.5681 200.141,-29.9013 207.095,-29.1052"/>
</g>
<!-- Node5 -->
<g id="node6" class="node"><title>Node5</title>
<g id="a_node6"><a xlink:href="Mesh_8h.html" target="_top" xlink:title="SuperimposeMesh/Mesh.h">
<polygon fill="white" stroke="black" points="268,-112.5 268,-131.5 401,-131.5 401,-112.5 268,-112.5"/>
<text text-anchor="middle" x="334.5" y="-119.5" font-family="Helvetica,sans-Serif" font-size="10.00">SuperimposeMesh/Mesh.h</text>
</a>
</g>
</g>
<!-- Node0&#45;&gt;Node5 -->
<g id="edge5" class="edge"><title>Node0&#45;&gt;Node5</title>
<path fill="none" stroke="midnightblue" d="M238.564,-168.444C257.075,-159.675 286.081,-145.935 307.355,-135.858"/>
<polygon fill="midnightblue" stroke="midnightblue" points="308.982,-138.96 316.521,-131.516 305.985,-132.634 308.982,-138.96"/>
</g>
<!-- Node6 -->
<g id="node7" class="node"><title>Node6</title>
<polygon fill="white" stroke="#bfbfbf" points="229.5,-56.5 229.5,-75.5 271.5,-75.5 271.5,-56.5 229.5,-56.5"/>
<text text-anchor="middle" x="250.5" y="-63.5" font-family="Helvetica,sans-Serif" font-size="10.00">vector</text>
</g>
<!-- Node0&#45;&gt;Node6 -->
<g id="edge12" class="edge"><title>Node0&#45;&gt;Node6</title>
<path fill="none" stroke="midnightblue" d="M222.854,-168.368C227.717,-150.537 238.965,-109.295 245.517,-85.2717"/>
<polygon fill="midnightblue" stroke="midnightblue" points="248.902,-86.16 248.157,-75.5914 242.149,-84.3181 248.902,-86.16"/>
</g>
<!-- Node7 -->
<g id="node8" class="node"><title>Node7</title>
<polygon fill="white" stroke="#bfbfbf" points="511.5,-56.5 511.5,-75.5 597.5,-75.5 597.5,-56.5 511.5,-56.5"/>
<text text-anchor="middle" x="554.5" y="-63.5" font-family="Helvetica,sans-Serif" font-size="10.00">assimp/scene.h</text>
</g>
<!-- Node0&#45;&gt;Node7 -->
<g id="edge14" class="edge"><title>Node0&#45;&gt;Node7</title>
<path fill="none" stroke="midnightblue" d="M246.303,-172.451C283.097,-165.607 352.494,-151.372 409.5,-132 452.492,-117.39 500.141,-94.6974 528.686,-80.3549"/>
<polygon fill="midnightblue" stroke="midnightblue" points="530.613,-83.3023 537.948,-75.6569 527.446,-77.0595 530.613,-83.3023"/>
</g>
<!-- Node2 -->
<g id="node3" class="node"><title>Node2</title>
<polygon fill="white" stroke="#bfbfbf" points="74,-0.5 74,-19.5 133,-19.5 133,-0.5 74,-0.5"/>
<text text-anchor="middle" x="103.5" y="-7.5" font-family="Helvetica,sans-Serif" font-size="10.00">exception</text>
</g>
<!-- Node1&#45;&gt;Node2 -->
<g id="edge2" class="edge"><title>Node1&#45;&gt;Node2</title>
<path fill="none" stroke="midnightblue" d="M103.5,-56.083C103.5,-49.0059 103.5,-38.8611 103.5,-29.9865"/>
<polygon fill="midnightblue" stroke="midnightblue" points="107,-29.751 103.5,-19.7511 100,-29.7511 107,-29.751"/>
</g>
<!-- Node1&#45;&gt;Node3 -->
<g id="edge3" class="edge"><title>Node1&#45;&gt;Node3</title>
<path fill="none" stroke="midnightblue" d="M90.1646,-56.324C77.338,-47.979 57.715,-35.2122 42.5602,-25.3524"/>
<polygon fill="midnightblue" stroke="midnightblue" points="44.0932,-22.1742 33.8023,-19.6545 40.2757,-28.0417 44.0932,-22.1742"/>
</g>
<!-- Node1&#45;&gt;Node4 -->
<g id="edge4" class="edge"><title>Node1&#45;&gt;Node4</title>
<path fill="none" stroke="midnightblue" d="M119.245,-56.324C134.819,-47.7428 158.877,-34.486 176.959,-24.5224"/>
<polygon fill="midnightblue" stroke="midnightblue" points="178.724,-27.546 185.794,-19.6545 175.346,-21.4152 178.724,-27.546"/>
</g>
<!-- Node5&#45;&gt;Node1 -->
<g id="edge6" class="edge"><title>Node5&#45;&gt;Node1</title>
<path fill="none" stroke="midnightblue" d="M297.897,-112.444C257.769,-103.063 193.302,-87.9926 149.715,-77.8036"/>
<polygon fill="midnightblue" stroke="midnightblue" points="150.466,-74.3847 139.931,-75.5164 148.872,-81.2009 150.466,-74.3847"/>
</g>
<!-- Node5&#45;&gt;Node4 -->
<g id="edge9" class="edge"><title>Node5&#45;&gt;Node4</title>
<path fill="none" stroke="midnightblue" d="M391.9,-112.413C437.421,-103.193 489.554,-85.7046 464.5,-56 436.505,-22.8082 308.472,-14.0973 241.931,-11.8121"/>
<polygon fill="midnightblue" stroke="midnightblue" points="241.908,-8.30977 231.804,-11.4977 241.691,-15.3064 241.908,-8.30977"/>
</g>
<!-- Node5&#45;&gt;Node6 -->
<g id="edge7" class="edge"><title>Node5&#45;&gt;Node6</title>
<path fill="none" stroke="midnightblue" d="M321.004,-112.324C307.9,-103.9 287.788,-90.9709 272.393,-81.0741"/>
<polygon fill="midnightblue" stroke="midnightblue" points="274.267,-78.118 263.963,-75.6545 270.482,-84.0063 274.267,-78.118"/>
</g>
<!-- Node5&#45;&gt;Node7 -->
<g id="edge8" class="edge"><title>Node5&#45;&gt;Node7</title>
<path fill="none" stroke="midnightblue" d="M369.36,-112.444C407.416,-103.102 468.458,-88.1194 509.96,-77.9326"/>
<polygon fill="midnightblue" stroke="midnightblue" points="510.926,-81.2994 519.803,-75.5164 509.257,-74.5012 510.926,-81.2994"/>
</g>
<!-- Node8 -->
<g id="node9" class="node"><title>Node8</title>
<polygon fill="white" stroke="#bfbfbf" points="381.5,-56.5 381.5,-75.5 455.5,-75.5 455.5,-56.5 381.5,-56.5"/>
<text text-anchor="middle" x="418.5" y="-63.5" font-family="Helvetica,sans-Serif" font-size="10.00">glm/vec2.hpp</text>
</g>
<!-- Node5&#45;&gt;Node8 -->
<g id="edge10" class="edge"><title>Node5&#45;&gt;Node8</title>
<path fill="none" stroke="midnightblue" d="M347.996,-112.324C361.1,-103.9 381.212,-90.9709 396.607,-81.0741"/>
<polygon fill="midnightblue" stroke="midnightblue" points="398.518,-84.0063 405.037,-75.6545 394.733,-78.118 398.518,-84.0063"/>
</g>
<!-- Node9 -->
<g id="node10" class="node"><title>Node9</title>
<polygon fill="white" stroke="#bfbfbf" points="289.5,-56.5 289.5,-75.5 363.5,-75.5 363.5,-56.5 289.5,-56.5"/>
<text text-anchor="middle" x="326.5" y="-63.5" font-family="Helvetica,sans-Serif" font-size="10.00">glm/vec3.hpp</text>
</g>
<!-- Node5&#45;&gt;Node9 -->
<g id="edge11" class="edge"><title>Node5&#45;&gt;Node9</title>
<path fill="none" stroke="midnightblue" d="M333.179,-112.083C332.119,-104.927 330.594,-94.6353 329.269,-85.6911"/>
<polygon fill="midnightblue" stroke="midnightblue" points="332.724,-85.1302 327.796,-75.7511 325.8,-86.1561 332.724,-85.1302"/>
</g>
</g>
</svg>
