<?xml version="1.0" encoding="UTF-8" standalone="no"?>
<!DOCTYPE svg PUBLIC "-//W3C//DTD SVG 1.1//EN"
 "http://www.w3.org/Graphics/SVG/1.1/DTD/svg11.dtd">
<!-- Generated by graphviz version 2.38.0 (20140413.2041)
 -->
<!-- Title: Shader.h Pages: 1 -->
<svg width="205pt" height="84pt"
 viewBox="0.00 0.00 204.50 84.00" xmlns="http://www.w3.org/2000/svg" xmlns:xlink="http://www.w3.org/1999/xlink">
<g id="graph0" class="graph" transform="scale(1 1) rotate(0) translate(4 80)">
<title>Shader.h</title>
<polygon fill="white" stroke="none" points="-4,4 -4,-80 200.5,-80 200.5,4 -4,4"/>
<!-- Node0 -->
<g id="node1" class="node"><title>Node0</title>
<polygon fill="#bfbfbf" stroke="black" points="69.5,-56.5 69.5,-75.5 125.5,-75.5 125.5,-56.5 69.5,-56.5"/>
<text text-anchor="middle" x="97.5" y="-63.5" font-family="Helvetica,sans-Serif" font-size="10.00">Shader.h</text>
</g>
<!-- Node1 -->
<g id="node2" class="node"><title>Node1</title>
<polygon fill="white" stroke="#bfbfbf" points="0,-0.5 0,-19.5 59,-19.5 59,-0.5 0,-0.5"/>
<text text-anchor="middle" x="29.5" y="-7.5" font-family="Helvetica,sans-Serif" font-size="10.00">exception</text>
</g>
<!-- Node0&#45;&gt;Node1 -->
<g id="edge1" class="edge"><title>Node0&#45;&gt;Node1</title>
<path fill="none" stroke="midnightblue" d="M86.5746,-56.324C76.3254,-48.1849 60.7794,-35.8395 48.499,-26.0874"/>
<polygon fill="midnightblue" stroke="midnightblue" points="50.6319,-23.3119 40.6242,-19.8339 46.2787,-28.7937 50.6319,-23.3119"/>
</g>
<!-- Node2 -->
<g id="node3" class="node"><title>Node2</title>
<polygon fill="white" stroke="#bfbfbf" points="77,-0.5 77,-19.5 118,-19.5 118,-0.5 77,-0.5"/>
<text text-anchor="middle" x="97.5" y="-7.5" font-family="Helvetica,sans-Serif" font-size="10.00">string</text>
</g>
<!-- Node0&#45;&gt;Node2 -->
<g id="edge2" class="edge"><title>Node0&#45;&gt;Node2</title>
<path fill="none" stroke="midnightblue" d="M97.5,-56.083C97.5,-49.0059 97.5,-38.8611 97.5,-29.9865"/>
<polygon fill="midnightblue" stroke="midnightblue" points="101,-29.751 97.5,-19.7511 94.0001,-29.7511 101,-29.751"/>
</g>
<!-- Node3 -->
<g id="node4" class="node"><title>Node3</title>
<polygon fill="white" stroke="#bfbfbf" points="136.5,-0.5 136.5,-19.5 196.5,-19.5 196.5,-0.5 136.5,-0.5"/>
<text text-anchor="middle" x="166.5" y="-7.5" font-family="Helvetica,sans-Serif" font-size="10.00">GL/glew.h</text>
</g>
<!-- Node0&#45;&gt;Node3 -->
<g id="edge3" class="edge"><title>Node0&#45;&gt;Node3</title>
<path fill="none" stroke="midnightblue" d="M108.586,-56.324C118.986,-48.1849 134.761,-35.8395 147.222,-26.0874"/>
<polygon fill="midnightblue" stroke="midnightblue" points="149.494,-28.7533 155.212,-19.8339 145.18,-23.2407 149.494,-28.7533"/>
</g>
</g>
</svg>
