<?xml version="1.0" encoding="UTF-8" standalone="no"?>
<!DOCTYPE svg PUBLIC "-//W3C//DTD SVG 1.1//EN"
 "http://www.w3.org/Graphics/SVG/1.1/DTD/svg11.dtd">
<!-- Generated by graphviz version 2.38.0 (20140413.2041)
 -->
<!-- Title: C:/Users/cfantacci/GitHub/superimpose&#45;mesh&#45;lib/src/SuperimposeMesh/include/SuperimposeMesh/Shader.h Pages: 1 -->
<svg width="660pt" height="428pt"
 viewBox="0.00 0.00 659.50 428.00" xmlns="http://www.w3.org/2000/svg" xmlns:xlink="http://www.w3.org/1999/xlink">
<g id="graph0" class="graph" transform="scale(1 1) rotate(0) translate(4 424)">
<title>C:/Users/cfantacci/GitHub/superimpose&#45;mesh&#45;lib/src/SuperimposeMesh/include/SuperimposeMesh/Shader.h</title>
<polygon fill="white" stroke="none" points="-4,4 -4,-424 655.5,-424 655.5,4 -4,4"/>
<!-- Node4 -->
<g id="node1" class="node"><title>Node4</title>
<polygon fill="#bfbfbf" stroke="black" points="242.5,-367.5 242.5,-419.5 418.5,-419.5 418.5,-367.5 242.5,-367.5"/>
<text text-anchor="start" x="250.5" y="-407.5" font-family="Helvetica,sans-Serif" font-size="10.00">C:/Users/cfantacci</text>
<text text-anchor="start" x="250.5" y="-396.5" font-family="Helvetica,sans-Serif" font-size="10.00">/GitHub/superimpose</text>
<text text-anchor="start" x="250.5" y="-385.5" font-family="Helvetica,sans-Serif" font-size="10.00">&#45;mesh&#45;lib/src/SuperimposeMesh</text>
<text text-anchor="middle" x="330.5" y="-374.5" font-family="Helvetica,sans-Serif" font-size="10.00">/include/SuperimposeMesh/Shader.h</text>
</g>
<!-- Node5 -->
<g id="node2" class="node"><title>Node5</title>
<g id="a_node2"><a xlink:href="Mesh_8h.html" target="_top" xlink:title="C:/Users/cfantacci\l/GitHub/superimpose\l&#45;mesh&#45;lib/src/SuperimposeMesh\l/include/SuperimposeMesh/Mesh.h">
<polygon fill="white" stroke="black" points="189.5,-278.5 189.5,-330.5 359.5,-330.5 359.5,-278.5 189.5,-278.5"/>
<text text-anchor="start" x="197.5" y="-318.5" font-family="Helvetica,sans-Serif" font-size="10.00">C:/Users/cfantacci</text>
<text text-anchor="start" x="197.5" y="-307.5" font-family="Helvetica,sans-Serif" font-size="10.00">/GitHub/superimpose</text>
<text text-anchor="start" x="197.5" y="-296.5" font-family="Helvetica,sans-Serif" font-size="10.00">&#45;mesh&#45;lib/src/SuperimposeMesh</text>
<text text-anchor="middle" x="274.5" y="-285.5" font-family="Helvetica,sans-Serif" font-size="10.00">/include/SuperimposeMesh/Mesh.h</text>
</a>
</g>
</g>
<!-- Node4&#45;&gt;Node5 -->
<g id="edge1" class="edge"><title>Node4&#45;&gt;Node5</title>
<path fill="none" stroke="midnightblue" d="M308.89,-358.927C302.829,-349.511 296.346,-339.439 290.661,-330.607"/>
<polygon fill="midnightblue" stroke="midnightblue" points="305.947,-360.822 314.302,-367.336 311.833,-357.033 305.947,-360.822"/>
</g>
<!-- Node6 -->
<g id="node3" class="node"><title>Node6</title>
<g id="a_node3"><a xlink:href="Model_8h.html" target="_top" xlink:title="C:/Users/cfantacci\l/GitHub/superimpose\l&#45;mesh&#45;lib/src/SuperimposeMesh\l/include/SuperimposeMesh/Model.h">
<polygon fill="white" stroke="black" points="11.5,-189.5 11.5,-241.5 183.5,-241.5 183.5,-189.5 11.5,-189.5"/>
<text text-anchor="start" x="19.5" y="-229.5" font-family="Helvetica,sans-Serif" font-size="10.00">C:/Users/cfantacci</text>
<text text-anchor="start" x="19.5" y="-218.5" font-family="Helvetica,sans-Serif" font-size="10.00">/GitHub/superimpose</text>
<text text-anchor="start" x="19.5" y="-207.5" font-family="Helvetica,sans-Serif" font-size="10.00">&#45;mesh&#45;lib/src/SuperimposeMesh</text>
<text text-anchor="middle" x="97.5" y="-196.5" font-family="Helvetica,sans-Serif" font-size="10.00">/include/SuperimposeMesh/Model.h</text>
</a>
</g>
</g>
<!-- Node4&#45;&gt;Node6 -->
<g id="edge10" class="edge"><title>Node4&#45;&gt;Node6</title>
<path fill="none" stroke="midnightblue" d="M236.887,-363.494C217.122,-354.882 197.213,-344.141 180.5,-331 149.234,-306.416 124.301,-267.094 110.207,-241.532"/>
<polygon fill="midnightblue" stroke="midnightblue" points="235.678,-366.783 246.253,-367.427 238.388,-360.328 235.678,-366.783"/>
</g>
<!-- Node7 -->
<g id="node4" class="node"><title>Node7</title>
<g id="a_node4"><a xlink:href="SICAD_8h.html" target="_top" xlink:title="C:/Users/cfantacci\l/GitHub/superimpose\l&#45;mesh&#45;lib/src/SuperimposeMesh\l/include/SuperimposeMesh/SICAD.h">
<polygon fill="white" stroke="black" points="247,-100.5 247,-152.5 422,-152.5 422,-100.5 247,-100.5"/>
<text text-anchor="start" x="255" y="-140.5" font-family="Helvetica,sans-Serif" font-size="10.00">C:/Users/cfantacci</text>
<text text-anchor="start" x="255" y="-129.5" font-family="Helvetica,sans-Serif" font-size="10.00">/GitHub/superimpose</text>
<text text-anchor="start" x="255" y="-118.5" font-family="Helvetica,sans-Serif" font-size="10.00">&#45;mesh&#45;lib/src/SuperimposeMesh</text>
<text text-anchor="middle" x="334.5" y="-107.5" font-family="Helvetica,sans-Serif" font-size="10.00">/include/SuperimposeMesh/SICAD.h</text>
</a>
</g>
</g>
<!-- Node4&#45;&gt;Node7 -->
<g id="edge11" class="edge"><title>Node4&#45;&gt;Node7</title>
<path fill="none" stroke="midnightblue" d="M355.911,-358.769C361.086,-350.145 365.777,-340.588 368.5,-331 385.743,-270.29 384.268,-250.11 368.5,-189 365.208,-176.242 358.642,-163.303 352.151,-152.606"/>
<polygon fill="midnightblue" stroke="midnightblue" points="352.844,-357.069 350.405,-367.379 358.741,-360.84 352.844,-357.069"/>
</g>
<!-- Node14 -->
<g id="node11" class="node"><title>Node14</title>
<g id="a_node11"><a xlink:href="Shader_8cpp.html" target="_top" xlink:title="C:/Users/cfantacci\l/GitHub/superimpose\l&#45;mesh&#45;lib/src/SuperimposeMesh\l/src/Shader.cpp">
<polygon fill="white" stroke="black" points="416,-278.5 416,-330.5 573,-330.5 573,-278.5 416,-278.5"/>
<text text-anchor="start" x="424" y="-318.5" font-family="Helvetica,sans-Serif" font-size="10.00">C:/Users/cfantacci</text>
<text text-anchor="start" x="424" y="-307.5" font-family="Helvetica,sans-Serif" font-size="10.00">/GitHub/superimpose</text>
<text text-anchor="start" x="424" y="-296.5" font-family="Helvetica,sans-Serif" font-size="10.00">&#45;mesh&#45;lib/src/SuperimposeMesh</text>
<text text-anchor="middle" x="494.5" y="-285.5" font-family="Helvetica,sans-Serif" font-size="10.00">/src/Shader.cpp</text>
</a>
</g>
</g>
<!-- Node4&#45;&gt;Node14 -->
<g id="edge12" class="edge"><title>Node4&#45;&gt;Node14</title>
<path fill="none" stroke="midnightblue" d="M386.796,-362.635C406.458,-352.205 428.314,-340.611 447.171,-330.607"/>
<polygon fill="midnightblue" stroke="midnightblue" points="385.129,-359.558 377.936,-367.336 388.41,-365.742 385.129,-359.558"/>
</g>
<!-- Node5&#45;&gt;Node6 -->
<g id="edge2" class="edge"><title>Node5&#45;&gt;Node6</title>
<path fill="none" stroke="midnightblue" d="M214.314,-273.917C192.946,-263.414 169.116,-251.701 148.581,-241.607"/>
<polygon fill="midnightblue" stroke="midnightblue" points="212.786,-277.066 223.304,-278.336 215.874,-270.784 212.786,-277.066"/>
</g>
<!-- Node13 -->
<g id="node10" class="node"><title>Node13</title>
<g id="a_node10"><a xlink:href="Mesh_8cpp.html" target="_top" xlink:title="C:/Users/cfantacci\l/GitHub/superimpose\l&#45;mesh&#45;lib/src/SuperimposeMesh\l/src/Mesh.cpp">
<polygon fill="white" stroke="black" points="202,-189.5 202,-241.5 359,-241.5 359,-189.5 202,-189.5"/>
<text text-anchor="start" x="210" y="-229.5" font-family="Helvetica,sans-Serif" font-size="10.00">C:/Users/cfantacci</text>
<text text-anchor="start" x="210" y="-218.5" font-family="Helvetica,sans-Serif" font-size="10.00">/GitHub/superimpose</text>
<text text-anchor="start" x="210" y="-207.5" font-family="Helvetica,sans-Serif" font-size="10.00">&#45;mesh&#45;lib/src/SuperimposeMesh</text>
<text text-anchor="middle" x="280.5" y="-196.5" font-family="Helvetica,sans-Serif" font-size="10.00">/src/Mesh.cpp</text>
</a>
</g>
</g>
<!-- Node5&#45;&gt;Node13 -->
<g id="edge9" class="edge"><title>Node5&#45;&gt;Node13</title>
<path fill="none" stroke="midnightblue" d="M276.935,-268.191C277.549,-259.282 278.197,-249.899 278.768,-241.607"/>
<polygon fill="midnightblue" stroke="midnightblue" points="273.432,-268.119 276.235,-278.336 280.415,-268.601 273.432,-268.119"/>
</g>
<!-- Node6&#45;&gt;Node7 -->
<g id="edge3" class="edge"><title>Node6&#45;&gt;Node7</title>
<path fill="none" stroke="midnightblue" d="M175.143,-185.998C204.577,-175.193 237.843,-162.982 266.339,-152.521"/>
<polygon fill="midnightblue" stroke="midnightblue" points="173.914,-182.721 165.732,-189.453 176.326,-189.292 173.914,-182.721"/>
</g>
<!-- Node12 -->
<g id="node9" class="node"><title>Node12</title>
<g id="a_node9"><a xlink:href="Model_8cpp.html" target="_top" xlink:title="C:/Users/cfantacci\l/GitHub/superimpose\l&#45;mesh&#45;lib/src/SuperimposeMesh\l/src/Model.cpp">
<polygon fill="white" stroke="black" points="19,-100.5 19,-152.5 176,-152.5 176,-100.5 19,-100.5"/>
<text text-anchor="start" x="27" y="-140.5" font-family="Helvetica,sans-Serif" font-size="10.00">C:/Users/cfantacci</text>
<text text-anchor="start" x="27" y="-129.5" font-family="Helvetica,sans-Serif" font-size="10.00">/GitHub/superimpose</text>
<text text-anchor="start" x="27" y="-118.5" font-family="Helvetica,sans-Serif" font-size="10.00">&#45;mesh&#45;lib/src/SuperimposeMesh</text>
<text text-anchor="middle" x="97.5" y="-107.5" font-family="Helvetica,sans-Serif" font-size="10.00">/src/Model.cpp</text>
</a>
</g>
</g>
<!-- Node6&#45;&gt;Node12 -->
<g id="edge8" class="edge"><title>Node6&#45;&gt;Node12</title>
<path fill="none" stroke="midnightblue" d="M97.5,-179.191C97.5,-170.282 97.5,-160.899 97.5,-152.607"/>
<polygon fill="midnightblue" stroke="midnightblue" points="94.0001,-179.336 97.5,-189.336 101,-179.336 94.0001,-179.336"/>
</g>
<!-- Node8 -->
<g id="node5" class="node"><title>Node8</title>
<g id="a_node5"><a xlink:href="SICAD_8cpp.html" target="_top" xlink:title="C:/Users/cfantacci\l/GitHub/superimpose\l&#45;mesh&#45;lib/src/SuperimposeMesh\l/src/SICAD.cpp">
<polygon fill="white" stroke="black" points="0,-6 0,-58 157,-58 157,-6 0,-6"/>
<text text-anchor="start" x="8" y="-46" font-family="Helvetica,sans-Serif" font-size="10.00">C:/Users/cfantacci</text>
<text text-anchor="start" x="8" y="-35" font-family="Helvetica,sans-Serif" font-size="10.00">/GitHub/superimpose</text>
<text text-anchor="start" x="8" y="-24" font-family="Helvetica,sans-Serif" font-size="10.00">&#45;mesh&#45;lib/src/SuperimposeMesh</text>
<text text-anchor="middle" x="78.5" y="-13" font-family="Helvetica,sans-Serif" font-size="10.00">/src/SICAD.cpp</text>
</a>
</g>
</g>
<!-- Node7&#45;&gt;Node8 -->
<g id="edge4" class="edge"><title>Node7&#45;&gt;Node8</title>
<path fill="none" stroke="midnightblue" d="M255.662,-97.0137C221.202,-84.5623 181.137,-70.0855 147.833,-58.0518"/>
<polygon fill="midnightblue" stroke="midnightblue" points="254.628,-100.362 265.223,-100.468 257.007,-93.7781 254.628,-100.362"/>
</g>
<!-- Node9 -->
<g id="node6" class="node"><title>Node9</title>
<g id="a_node6"><a xlink:href="tutorial__background_8cpp.html" target="_top" xlink:title="C:/Users/cfantacci\l/GitHub/superimpose\l&#45;mesh&#45;lib/doc/tutorial\l_code/tutorial_background.cpp">
<polygon fill="white" stroke="black" points="175,-6 175,-58 324,-58 324,-6 175,-6"/>
<text text-anchor="start" x="183" y="-46" font-family="Helvetica,sans-Serif" font-size="10.00">C:/Users/cfantacci</text>
<text text-anchor="start" x="183" y="-35" font-family="Helvetica,sans-Serif" font-size="10.00">/GitHub/superimpose</text>
<text text-anchor="start" x="183" y="-24" font-family="Helvetica,sans-Serif" font-size="10.00">&#45;mesh&#45;lib/doc/tutorial</text>
<text text-anchor="middle" x="249.5" y="-13" font-family="Helvetica,sans-Serif" font-size="10.00">_code/tutorial_background.cpp</text>
</a>
</g>
</g>
<!-- Node7&#45;&gt;Node9 -->
<g id="edge5" class="edge"><title>Node7&#45;&gt;Node9</title>
<path fill="none" stroke="midnightblue" d="M304.287,-92.6214C293.899,-81.317 282.44,-68.8465 272.699,-58.2455"/>
<polygon fill="midnightblue" stroke="midnightblue" points="301.93,-95.2289 311.273,-100.224 307.084,-90.4925 301.93,-95.2289"/>
</g>
<!-- Node10 -->
<g id="node7" class="node"><title>Node10</title>
<g id="a_node7"><a xlink:href="tutorial__superimpose_8cpp.html" target="_top" xlink:title="C:/Users/cfantacci\l/GitHub/superimpose\l&#45;mesh&#45;lib/doc/tutorial\l_code/tutorial_superimpose.cpp">
<polygon fill="white" stroke="black" points="342,-6 342,-58 497,-58 497,-6 342,-6"/>
<text text-anchor="start" x="350" y="-46" font-family="Helvetica,sans-Serif" font-size="10.00">C:/Users/cfantacci</text>
<text text-anchor="start" x="350" y="-35" font-family="Helvetica,sans-Serif" font-size="10.00">/GitHub/superimpose</text>
<text text-anchor="start" x="350" y="-24" font-family="Helvetica,sans-Serif" font-size="10.00">&#45;mesh&#45;lib/doc/tutorial</text>
<text text-anchor="middle" x="419.5" y="-13" font-family="Helvetica,sans-Serif" font-size="10.00">_code/tutorial_superimpose.cpp</text>
</a>
</g>
</g>
<!-- Node7&#45;&gt;Node10 -->
<g id="edge6" class="edge"><title>Node7&#45;&gt;Node10</title>
<path fill="none" stroke="midnightblue" d="M364.713,-92.6214C375.101,-81.317 386.56,-68.8465 396.301,-58.2455"/>
<polygon fill="midnightblue" stroke="midnightblue" points="361.916,-90.4925 357.727,-100.224 367.07,-95.2289 361.916,-90.4925"/>
</g>
<!-- Node11 -->
<g id="node8" class="node"><title>Node11</title>
<g id="a_node8"><a xlink:href="tutorial__superimpose__customshader_8cpp.html" target="_top" xlink:title="C:/Users/cfantacci\l/GitHub/superimpose\l&#45;mesh&#45;lib/doc/tutorial\l_code/tutorial_superimpose\l_customshader.cpp">
<polygon fill="white" stroke="black" points="515.5,-0.5 515.5,-63.5 651.5,-63.5 651.5,-0.5 515.5,-0.5"/>
<text text-anchor="start" x="523.5" y="-51.5" font-family="Helvetica,sans-Serif" font-size="10.00">C:/Users/cfantacci</text>
<text text-anchor="start" x="523.5" y="-40.5" font-family="Helvetica,sans-Serif" font-size="10.00">/GitHub/superimpose</text>
<text text-anchor="start" x="523.5" y="-29.5" font-family="Helvetica,sans-Serif" font-size="10.00">&#45;mesh&#45;lib/doc/tutorial</text>
<text text-anchor="start" x="523.5" y="-18.5" font-family="Helvetica,sans-Serif" font-size="10.00">_code/tutorial_superimpose</text>
<text text-anchor="middle" x="583.5" y="-7.5" font-family="Helvetica,sans-Serif" font-size="10.00">_customshader.cpp</text>
</a>
</g>
</g>
<!-- Node7&#45;&gt;Node11 -->
<g id="edge7" class="edge"><title>Node7&#45;&gt;Node11</title>
<path fill="none" stroke="midnightblue" d="M416.26,-97.0064C444.891,-86.8327 477.202,-75.1305 506.5,-64 509.329,-62.9252 512.212,-61.8182 515.121,-60.6914"/>
<polygon fill="midnightblue" stroke="midnightblue" points="414.957,-93.7549 406.701,-100.395 417.296,-100.353 414.957,-93.7549"/>
</g>
</g>
</svg>
