<?xml version="1.0" encoding="UTF-8" standalone="no"?>
<!DOCTYPE svg PUBLIC "-//W3C//DTD SVG 1.1//EN"
 "http://www.w3.org/Graphics/SVG/1.1/DTD/svg11.dtd">
<!-- Generated by graphviz version 2.38.0 (20140413.2041)
 -->
<!-- Title: Shader.cpp Pages: 1 -->
<svg width="486pt" height="140pt"
 viewBox="0.00 0.00 485.50 140.00" xmlns="http://www.w3.org/2000/svg" xmlns:xlink="http://www.w3.org/1999/xlink">
<g id="graph0" class="graph" transform="scale(1 1) rotate(0) translate(4 136)">
<title>Shader.cpp</title>
<polygon fill="white" stroke="none" points="-4,4 -4,-136 481.5,-136 481.5,4 -4,4"/>
<!-- Node0 -->
<g id="node1" class="node"><title>Node0</title>
<polygon fill="#bfbfbf" stroke="black" points="277.5,-112.5 277.5,-131.5 343.5,-131.5 343.5,-112.5 277.5,-112.5"/>
<text text-anchor="middle" x="310.5" y="-119.5" font-family="Helvetica,sans-Serif" font-size="10.00">Shader.cpp</text>
</g>
<!-- Node1 -->
<g id="node2" class="node"><title>Node1</title>
<g id="a_node2"><a xlink:href="Shader_8h.html" target="_top" xlink:title="SuperimposeMesh/Shader.h">
<polygon fill="white" stroke="black" points="27.5,-56.5 27.5,-75.5 167.5,-75.5 167.5,-56.5 27.5,-56.5"/>
<text text-anchor="middle" x="97.5" y="-63.5" font-family="Helvetica,sans-Serif" font-size="10.00">SuperimposeMesh/Shader.h</text>
</a>
</g>
</g>
<!-- Node0&#45;&gt;Node1 -->
<g id="edge1" class="edge"><title>Node0&#45;&gt;Node1</title>
<path fill="none" stroke="midnightblue" d="M277.219,-112.563C240.545,-103.265 181.421,-88.2757 141.077,-78.0478"/>
<polygon fill="midnightblue" stroke="midnightblue" points="141.804,-74.6213 131.25,-75.5565 140.084,-81.4067 141.804,-74.6213"/>
</g>
<!-- Node5 -->
<g id="node6" class="node"><title>Node5</title>
<polygon fill="white" stroke="#bfbfbf" points="185.5,-56.5 185.5,-75.5 267.5,-75.5 267.5,-56.5 185.5,-56.5"/>
<text text-anchor="middle" x="226.5" y="-63.5" font-family="Helvetica,sans-Serif" font-size="10.00">cmrc/cmrc.hpp</text>
</g>
<!-- Node0&#45;&gt;Node5 -->
<g id="edge5" class="edge"><title>Node0&#45;&gt;Node5</title>
<path fill="none" stroke="midnightblue" d="M297.004,-112.324C283.9,-103.9 263.788,-90.9709 248.393,-81.0741"/>
<polygon fill="midnightblue" stroke="midnightblue" points="250.267,-78.118 239.963,-75.6545 246.482,-84.0063 250.267,-78.118"/>
</g>
<!-- Node6 -->
<g id="node7" class="node"><title>Node6</title>
<polygon fill="white" stroke="#bfbfbf" points="286,-56.5 286,-75.5 335,-75.5 335,-56.5 286,-56.5"/>
<text text-anchor="middle" x="310.5" y="-63.5" font-family="Helvetica,sans-Serif" font-size="10.00">fstream</text>
</g>
<!-- Node0&#45;&gt;Node6 -->
<g id="edge6" class="edge"><title>Node0&#45;&gt;Node6</title>
<path fill="none" stroke="midnightblue" d="M310.5,-112.083C310.5,-105.006 310.5,-94.8611 310.5,-85.9865"/>
<polygon fill="midnightblue" stroke="midnightblue" points="314,-85.751 310.5,-75.7511 307,-85.7511 314,-85.751"/>
</g>
<!-- Node7 -->
<g id="node8" class="node"><title>Node7</title>
<polygon fill="white" stroke="#bfbfbf" points="353.5,-56.5 353.5,-75.5 405.5,-75.5 405.5,-56.5 353.5,-56.5"/>
<text text-anchor="middle" x="379.5" y="-63.5" font-family="Helvetica,sans-Serif" font-size="10.00">sstream</text>
</g>
<!-- Node0&#45;&gt;Node7 -->
<g id="edge7" class="edge"><title>Node0&#45;&gt;Node7</title>
<path fill="none" stroke="midnightblue" d="M321.586,-112.324C331.986,-104.185 347.761,-91.8395 360.222,-82.0874"/>
<polygon fill="midnightblue" stroke="midnightblue" points="362.494,-84.7533 368.212,-75.8339 358.18,-79.2407 362.494,-84.7533"/>
</g>
<!-- Node8 -->
<g id="node9" class="node"><title>Node8</title>
<polygon fill="white" stroke="#bfbfbf" points="423.5,-56.5 423.5,-75.5 477.5,-75.5 477.5,-56.5 423.5,-56.5"/>
<text text-anchor="middle" x="450.5" y="-63.5" font-family="Helvetica,sans-Serif" font-size="10.00">iostream</text>
</g>
<!-- Node0&#45;&gt;Node8 -->
<g id="edge8" class="edge"><title>Node0&#45;&gt;Node8</title>
<path fill="none" stroke="midnightblue" d="M332.683,-112.444C355.928,-103.478 392.649,-89.314 418.915,-79.1827"/>
<polygon fill="midnightblue" stroke="midnightblue" points="420.35,-82.3807 428.42,-75.5164 417.831,-75.8497 420.35,-82.3807"/>
</g>
<!-- Node2 -->
<g id="node3" class="node"><title>Node2</title>
<polygon fill="white" stroke="#bfbfbf" points="0,-0.5 0,-19.5 59,-19.5 59,-0.5 0,-0.5"/>
<text text-anchor="middle" x="29.5" y="-7.5" font-family="Helvetica,sans-Serif" font-size="10.00">exception</text>
</g>
<!-- Node1&#45;&gt;Node2 -->
<g id="edge2" class="edge"><title>Node1&#45;&gt;Node2</title>
<path fill="none" stroke="midnightblue" d="M86.5746,-56.324C76.3254,-48.1849 60.7794,-35.8395 48.499,-26.0874"/>
<polygon fill="midnightblue" stroke="midnightblue" points="50.6319,-23.3119 40.6242,-19.8339 46.2787,-28.7937 50.6319,-23.3119"/>
</g>
<!-- Node3 -->
<g id="node4" class="node"><title>Node3</title>
<polygon fill="white" stroke="#bfbfbf" points="77,-0.5 77,-19.5 118,-19.5 118,-0.5 77,-0.5"/>
<text text-anchor="middle" x="97.5" y="-7.5" font-family="Helvetica,sans-Serif" font-size="10.00">string</text>
</g>
<!-- Node1&#45;&gt;Node3 -->
<g id="edge3" class="edge"><title>Node1&#45;&gt;Node3</title>
<path fill="none" stroke="midnightblue" d="M97.5,-56.083C97.5,-49.0059 97.5,-38.8611 97.5,-29.9865"/>
<polygon fill="midnightblue" stroke="midnightblue" points="101,-29.751 97.5,-19.7511 94.0001,-29.7511 101,-29.751"/>
</g>
<!-- Node4 -->
<g id="node5" class="node"><title>Node4</title>
<polygon fill="white" stroke="#bfbfbf" points="136.5,-0.5 136.5,-19.5 196.5,-19.5 196.5,-0.5 136.5,-0.5"/>
<text text-anchor="middle" x="166.5" y="-7.5" font-family="Helvetica,sans-Serif" font-size="10.00">GL/glew.h</text>
</g>
<!-- Node1&#45;&gt;Node4 -->
<g id="edge4" class="edge"><title>Node1&#45;&gt;Node4</title>
<path fill="none" stroke="midnightblue" d="M108.586,-56.324C118.986,-48.1849 134.761,-35.8395 147.222,-26.0874"/>
<polygon fill="midnightblue" stroke="midnightblue" points="149.494,-28.7533 155.212,-19.8339 145.18,-23.2407 149.494,-28.7533"/>
</g>
</g>
</svg>
