<?xml version="1.0" encoding="UTF-8" standalone="no"?>
<!DOCTYPE svg PUBLIC "-//W3C//DTD SVG 1.1//EN"
 "http://www.w3.org/Graphics/SVG/1.1/DTD/svg11.dtd">
<!-- Generated by graphviz version 2.38.0 (20140413.2041)
 -->
<!-- Title: Shader.h Pages: 1 -->
<svg width="480pt" height="263pt"
 viewBox="0.00 0.00 480.00 263.00" xmlns="http://www.w3.org/2000/svg" xmlns:xlink="http://www.w3.org/1999/xlink">
<g id="graph0" class="graph" transform="scale(1 1) rotate(0) translate(4 259)">
<title>Shader.h</title>
<polygon fill="white" stroke="none" points="-4,4 -4,-259 476,-259 476,4 -4,4"/>
<!-- Node4 -->
<g id="node1" class="node"><title>Node4</title>
<polygon fill="#bfbfbf" stroke="black" points="184.5,-235.5 184.5,-254.5 240.5,-254.5 240.5,-235.5 184.5,-235.5"/>
<text text-anchor="middle" x="212.5" y="-242.5" font-family="Helvetica,sans-Serif" font-size="10.00">Shader.h</text>
</g>
<!-- Node5 -->
<g id="node2" class="node"><title>Node5</title>
<g id="a_node2"><a xlink:href="Mesh_8h.html" target="_top" xlink:title="Mesh.h">
<polygon fill="white" stroke="black" points="159,-179.5 159,-198.5 208,-198.5 208,-179.5 159,-179.5"/>
<text text-anchor="middle" x="183.5" y="-186.5" font-family="Helvetica,sans-Serif" font-size="10.00">Mesh.h</text>
</a>
</g>
</g>
<!-- Node4&#45;&gt;Node5 -->
<g id="edge1" class="edge"><title>Node4&#45;&gt;Node5</title>
<path fill="none" stroke="midnightblue" d="M202.824,-225.983C197.902,-216.817 192.142,-206.092 188.2,-198.751"/>
<polygon fill="midnightblue" stroke="midnightblue" points="199.896,-227.929 207.711,-235.083 206.063,-224.617 199.896,-227.929"/>
</g>
<!-- Node6 -->
<g id="node3" class="node"><title>Node6</title>
<g id="a_node3"><a xlink:href="Model_8h.html" target="_top" xlink:title="Model.h">
<polygon fill="white" stroke="black" points="85,-123.5 85,-142.5 136,-142.5 136,-123.5 85,-123.5"/>
<text text-anchor="middle" x="110.5" y="-130.5" font-family="Helvetica,sans-Serif" font-size="10.00">Model.h</text>
</a>
</g>
</g>
<!-- Node4&#45;&gt;Node6 -->
<g id="edge10" class="edge"><title>Node4&#45;&gt;Node6</title>
<path fill="none" stroke="midnightblue" d="M188.272,-230.041C175.725,-222.031 160.725,-211.159 149.5,-199 133.253,-181.401 120.395,-155.973 114.32,-142.742"/>
<polygon fill="midnightblue" stroke="midnightblue" points="186.536,-233.083 196.886,-235.346 190.206,-227.122 186.536,-233.083"/>
</g>
<!-- Node7 -->
<g id="node4" class="node"><title>Node7</title>
<g id="a_node4"><a xlink:href="SICAD_8h.html" target="_top" xlink:title="SICAD.h">
<polygon fill="white" stroke="black" points="186.5,-67.5 186.5,-86.5 240.5,-86.5 240.5,-67.5 186.5,-67.5"/>
<text text-anchor="middle" x="213.5" y="-74.5" font-family="Helvetica,sans-Serif" font-size="10.00">SICAD.h</text>
</a>
</g>
</g>
<!-- Node4&#45;&gt;Node7 -->
<g id="edge11" class="edge"><title>Node4&#45;&gt;Node7</title>
<path fill="none" stroke="midnightblue" d="M216.124,-225.424C220.281,-201.659 226.088,-159.233 222.5,-123 221.228,-110.156 217.962,-95.5473 215.735,-86.5508"/>
<polygon fill="midnightblue" stroke="midnightblue" points="212.641,-225.013 214.265,-235.483 219.524,-226.286 212.641,-225.013"/>
</g>
<!-- Node14 -->
<g id="node11" class="node"><title>Node14</title>
<g id="a_node11"><a xlink:href="Shader_8cpp.html" target="_top" xlink:title="Shader.cpp">
<polygon fill="white" stroke="black" points="269.5,-179.5 269.5,-198.5 335.5,-198.5 335.5,-179.5 269.5,-179.5"/>
<text text-anchor="middle" x="302.5" y="-186.5" font-family="Helvetica,sans-Serif" font-size="10.00">Shader.cpp</text>
</a>
</g>
</g>
<!-- Node4&#45;&gt;Node14 -->
<g id="edge12" class="edge"><title>Node4&#45;&gt;Node14</title>
<path fill="none" stroke="midnightblue" d="M235.538,-230.177C252.099,-220.241 273.918,-207.149 288.076,-198.655"/>
<polygon fill="midnightblue" stroke="midnightblue" points="233.734,-227.178 226.96,-235.324 237.336,-233.18 233.734,-227.178"/>
</g>
<!-- Node5&#45;&gt;Node6 -->
<g id="edge2" class="edge"><title>Node5&#45;&gt;Node6</title>
<path fill="none" stroke="midnightblue" d="M163.358,-173.101C150.221,-163.382 133.518,-151.027 122.442,-142.834"/>
<polygon fill="midnightblue" stroke="midnightblue" points="161.65,-176.191 171.771,-179.324 165.813,-170.563 161.65,-176.191"/>
</g>
<!-- Node13 -->
<g id="node10" class="node"><title>Node13</title>
<g id="a_node10"><a xlink:href="Mesh_8cpp.html" target="_top" xlink:title="Mesh.cpp">
<polygon fill="white" stroke="black" points="154,-123.5 154,-142.5 213,-142.5 213,-123.5 154,-123.5"/>
<text text-anchor="middle" x="183.5" y="-130.5" font-family="Helvetica,sans-Serif" font-size="10.00">Mesh.cpp</text>
</a>
</g>
</g>
<!-- Node5&#45;&gt;Node13 -->
<g id="edge9" class="edge"><title>Node5&#45;&gt;Node13</title>
<path fill="none" stroke="midnightblue" d="M183.5,-168.805C183.5,-159.91 183.5,-149.78 183.5,-142.751"/>
<polygon fill="midnightblue" stroke="midnightblue" points="180,-169.083 183.5,-179.083 187,-169.083 180,-169.083"/>
</g>
<!-- Node6&#45;&gt;Node7 -->
<g id="edge3" class="edge"><title>Node6&#45;&gt;Node7</title>
<path fill="none" stroke="midnightblue" d="M136.079,-118.59C155.123,-108.605 180.564,-95.2672 196.992,-86.6545"/>
<polygon fill="midnightblue" stroke="midnightblue" points="134.28,-115.581 127.049,-123.324 137.531,-121.78 134.28,-115.581"/>
</g>
<!-- Node12 -->
<g id="node9" class="node"><title>Node12</title>
<g id="a_node9"><a xlink:href="Model_8cpp.html" target="_top" xlink:title="Model.cpp">
<polygon fill="white" stroke="black" points="79.5,-67.5 79.5,-86.5 141.5,-86.5 141.5,-67.5 79.5,-67.5"/>
<text text-anchor="middle" x="110.5" y="-74.5" font-family="Helvetica,sans-Serif" font-size="10.00">Model.cpp</text>
</a>
</g>
</g>
<!-- Node6&#45;&gt;Node12 -->
<g id="edge8" class="edge"><title>Node6&#45;&gt;Node12</title>
<path fill="none" stroke="midnightblue" d="M110.5,-112.805C110.5,-103.91 110.5,-93.7798 110.5,-86.7511"/>
<polygon fill="midnightblue" stroke="midnightblue" points="107,-113.083 110.5,-123.083 114,-113.083 107,-113.083"/>
</g>
<!-- Node8 -->
<g id="node5" class="node"><title>Node8</title>
<g id="a_node5"><a xlink:href="SICAD_8cpp.html" target="_top" xlink:title="SICAD.cpp">
<polygon fill="white" stroke="black" points="0,-6 0,-25 65,-25 65,-6 0,-6"/>
<text text-anchor="middle" x="32.5" y="-13" font-family="Helvetica,sans-Serif" font-size="10.00">SICAD.cpp</text>
</a>
</g>
</g>
<!-- Node7&#45;&gt;Node8 -->
<g id="edge4" class="edge"><title>Node7&#45;&gt;Node8</title>
<path fill="none" stroke="midnightblue" d="M176.758,-64.3186C148.7,-55.3464 109.1,-42.5722 74.5,-31 68.7938,-29.0915 62.6657,-26.9999 56.9027,-25.014"/>
<polygon fill="midnightblue" stroke="midnightblue" points="175.952,-67.7352 186.543,-67.4429 178.081,-61.0669 175.952,-67.7352"/>
</g>
<!-- Node9 -->
<g id="node6" class="node"><title>Node9</title>
<g id="a_node6"><a xlink:href="tutorial__background_8cpp.html" target="_top" xlink:title="tutorial_background.cpp">
<polygon fill="white" stroke="black" points="83.5,-6 83.5,-25 203.5,-25 203.5,-6 83.5,-6"/>
<text text-anchor="middle" x="143.5" y="-13" font-family="Helvetica,sans-Serif" font-size="10.00">tutorial_background.cpp</text>
</a>
</g>
</g>
<!-- Node7&#45;&gt;Node9 -->
<g id="edge5" class="edge"><title>Node7&#45;&gt;Node9</title>
<path fill="none" stroke="midnightblue" d="M195.821,-60.9727C182.432,-49.5925 164.523,-34.3694 153.511,-25.0091"/>
<polygon fill="midnightblue" stroke="midnightblue" points="193.585,-63.6654 203.471,-67.4751 198.118,-58.3318 193.585,-63.6654"/>
</g>
<!-- Node10 -->
<g id="node7" class="node"><title>Node10</title>
<g id="a_node7"><a xlink:href="tutorial__superimpose_8cpp.html" target="_top" xlink:title="tutorial_superimpose.cpp">
<polygon fill="white" stroke="black" points="222,-6 222,-25 347,-25 347,-6 222,-6"/>
<text text-anchor="middle" x="284.5" y="-13" font-family="Helvetica,sans-Serif" font-size="10.00">tutorial_superimpose.cpp</text>
</a>
</g>
</g>
<!-- Node7&#45;&gt;Node10 -->
<g id="edge6" class="edge"><title>Node7&#45;&gt;Node10</title>
<path fill="none" stroke="midnightblue" d="M231.432,-60.9727C245.011,-49.5925 263.177,-34.3694 274.346,-25.0091"/>
<polygon fill="midnightblue" stroke="midnightblue" points="229.089,-58.3694 223.673,-67.4751 233.585,-63.7346 229.089,-58.3694"/>
</g>
<!-- Node11 -->
<g id="node8" class="node"><title>Node11</title>
<g id="a_node8"><a xlink:href="tutorial__superimpose__customshader_8cpp.html" target="_top" xlink:title="tutorial_superimpose\l_customshader.cpp">
<polygon fill="white" stroke="black" points="365,-0.5 365,-30.5 472,-30.5 472,-0.5 365,-0.5"/>
<text text-anchor="start" x="373" y="-18.5" font-family="Helvetica,sans-Serif" font-size="10.00">tutorial_superimpose</text>
<text text-anchor="middle" x="418.5" y="-7.5" font-family="Helvetica,sans-Serif" font-size="10.00">_customshader.cpp</text>
</a>
</g>
</g>
<!-- Node7&#45;&gt;Node11 -->
<g id="edge7" class="edge"><title>Node7&#45;&gt;Node11</title>
<path fill="none" stroke="midnightblue" d="M250.549,-65.2467C283.966,-55.5475 333.339,-41.2174 369.912,-30.6024"/>
<polygon fill="midnightblue" stroke="midnightblue" points="249.35,-61.9501 240.722,-68.0989 251.302,-68.6727 249.35,-61.9501"/>
</g>
</g>
</svg>
