<?xml version="1.0" encoding="UTF-8" standalone="no"?>
<!DOCTYPE svg PUBLIC "-//W3C//DTD SVG 1.1//EN"
 "http://www.w3.org/Graphics/SVG/1.1/DTD/svg11.dtd">
<!-- Generated by graphviz version 2.38.0 (20140413.2041)
 -->
<!-- Title: SICAD.h Pages: 1 -->
<svg width="480pt" height="95pt"
 viewBox="0.00 0.00 480.00 95.00" xmlns="http://www.w3.org/2000/svg" xmlns:xlink="http://www.w3.org/1999/xlink">
<g id="graph0" class="graph" transform="scale(1 1) rotate(0) translate(4 91)">
<title>SICAD.h</title>
<polygon fill="white" stroke="none" points="-4,4 -4,-91 476,-91 476,4 -4,4"/>
<!-- Node20 -->
<g id="node1" class="node"><title>Node20</title>
<polygon fill="#bfbfbf" stroke="black" points="186.5,-67.5 186.5,-86.5 240.5,-86.5 240.5,-67.5 186.5,-67.5"/>
<text text-anchor="middle" x="213.5" y="-74.5" font-family="Helvetica,sans-Serif" font-size="10.00">SICAD.h</text>
</g>
<!-- Node21 -->
<g id="node2" class="node"><title>Node21</title>
<g id="a_node2"><a xlink:href="SICAD_8cpp.html" target="_top" xlink:title="SICAD.cpp">
<polygon fill="white" stroke="black" points="0,-6 0,-25 65,-25 65,-6 0,-6"/>
<text text-anchor="middle" x="32.5" y="-13" font-family="Helvetica,sans-Serif" font-size="10.00">SICAD.cpp</text>
</a>
</g>
</g>
<!-- Node20&#45;&gt;Node21 -->
<g id="edge1" class="edge"><title>Node20&#45;&gt;Node21</title>
<path fill="none" stroke="midnightblue" d="M176.758,-64.3186C148.7,-55.3464 109.1,-42.5722 74.5,-31 68.7938,-29.0915 62.6657,-26.9999 56.9027,-25.014"/>
<polygon fill="midnightblue" stroke="midnightblue" points="175.952,-67.7352 186.543,-67.4429 178.081,-61.0669 175.952,-67.7352"/>
</g>
<!-- Node22 -->
<g id="node3" class="node"><title>Node22</title>
<g id="a_node3"><a xlink:href="tutorial__background_8cpp.html" target="_top" xlink:title="tutorial_background.cpp">
<polygon fill="white" stroke="black" points="83.5,-6 83.5,-25 203.5,-25 203.5,-6 83.5,-6"/>
<text text-anchor="middle" x="143.5" y="-13" font-family="Helvetica,sans-Serif" font-size="10.00">tutorial_background.cpp</text>
</a>
</g>
</g>
<!-- Node20&#45;&gt;Node22 -->
<g id="edge2" class="edge"><title>Node20&#45;&gt;Node22</title>
<path fill="none" stroke="midnightblue" d="M195.821,-60.9727C182.432,-49.5925 164.523,-34.3694 153.511,-25.0091"/>
<polygon fill="midnightblue" stroke="midnightblue" points="193.585,-63.6654 203.471,-67.4751 198.118,-58.3318 193.585,-63.6654"/>
</g>
<!-- Node23 -->
<g id="node4" class="node"><title>Node23</title>
<g id="a_node4"><a xlink:href="tutorial__superimpose_8cpp.html" target="_top" xlink:title="tutorial_superimpose.cpp">
<polygon fill="white" stroke="black" points="222,-6 222,-25 347,-25 347,-6 222,-6"/>
<text text-anchor="middle" x="284.5" y="-13" font-family="Helvetica,sans-Serif" font-size="10.00">tutorial_superimpose.cpp</text>
</a>
</g>
</g>
<!-- Node20&#45;&gt;Node23 -->
<g id="edge3" class="edge"><title>Node20&#45;&gt;Node23</title>
<path fill="none" stroke="midnightblue" d="M231.432,-60.9727C245.011,-49.5925 263.177,-34.3694 274.346,-25.0091"/>
<polygon fill="midnightblue" stroke="midnightblue" points="229.089,-58.3694 223.673,-67.4751 233.585,-63.7346 229.089,-58.3694"/>
</g>
<!-- Node24 -->
<g id="node5" class="node"><title>Node24</title>
<g id="a_node5"><a xlink:href="tutorial__superimpose__customshader_8cpp.html" target="_top" xlink:title="tutorial_superimpose\l_customshader.cpp">
<polygon fill="white" stroke="black" points="365,-0.5 365,-30.5 472,-30.5 472,-0.5 365,-0.5"/>
<text text-anchor="start" x="373" y="-18.5" font-family="Helvetica,sans-Serif" font-size="10.00">tutorial_superimpose</text>
<text text-anchor="middle" x="418.5" y="-7.5" font-family="Helvetica,sans-Serif" font-size="10.00">_customshader.cpp</text>
</a>
</g>
</g>
<!-- Node20&#45;&gt;Node24 -->
<g id="edge4" class="edge"><title>Node20&#45;&gt;Node24</title>
<path fill="none" stroke="midnightblue" d="M250.549,-65.2467C283.966,-55.5475 333.339,-41.2174 369.912,-30.6024"/>
<polygon fill="midnightblue" stroke="midnightblue" points="249.35,-61.9501 240.722,-68.0989 251.302,-68.6727 249.35,-61.9501"/>
</g>
</g>
</svg>
