<?xml version="1.0" encoding="UTF-8" standalone="no"?>
<!DOCTYPE svg PUBLIC "-//W3C//DTD SVG 1.1//EN"
 "http://www.w3.org/Graphics/SVG/1.1/DTD/svg11.dtd">
<!-- Generated by graphviz version 2.38.0 (20140413.2041)
 -->
<!-- Title: SICAD.cpp Pages: 1 -->
<!--zoomable 308 -->
<svg id="main" version="1.1" xmlns="http://www.w3.org/2000/svg" xmlns:xlink="http://www.w3.org/1999/xlink" xml:space="preserve" onload="init(evt)">
<style type="text/css"><![CDATA[
.edge:hover path { stroke: red; }
.edge:hover polygon { stroke: red; fill: red; }
]]></style>
<script type="text/javascript"><![CDATA[
var edges = document.getElementsByTagName('g');
if (edges && edges.length) {
  for (var i=0;i<edges.length;i++) {
    if (edges[i].id.substr(0,4)=='edge') {
      edges[i].setAttribute('class','edge');
    }
  }
}
]]></script>
        <defs>
                <circle id="rim" cx="0" cy="0" r="7"/>
                <circle id="rim2" cx="0" cy="0" r="3.5"/>
                <g id="zoomPlus">
                        <use xlink:href="#rim" fill="#404040">
                                <set attributeName="fill" to="#808080" begin="zoomplus.mouseover" end="zoomplus.mouseout"/>
                        </use>
                        <path d="M-4,0h8M0,-4v8" fill="none" stroke="white" stroke-width="1.5" pointer-events="none"/>
                </g>
                <g id="zoomMin">
                        <use xlink:href="#rim" fill="#404040">
                                <set attributeName="fill" to="#808080" begin="zoomminus.mouseover" end="zoomminus.mouseout"/>
                        </use>
                        <path d="M-4,0h8" fill="none" stroke="white" stroke-width="1.5" pointer-events="none"/>
                </g>
                <g id="dirArrow">
                        <path fill="none" stroke="white" stroke-width="1.5" d="M0,-3.0v7 M-2.5,-0.5L0,-3.0L2.5,-0.5"/>
                </g>
               <g id="resetDef">
                       <use xlink:href="#rim2" fill="#404040">
                               <set attributeName="fill" to="#808080" begin="reset.mouseover" end="reset.mouseout"/>
                       </use>
               </g>
        </defs>

<script type="text/javascript">
var viewWidth = 1972;
var viewHeight = 308;
var sectionId = 'dynsection-0';
</script>
<script xlink:href="svgpan.js"/>
<svg id="graph" class="graph">
<g id="viewport">
<title>SICAD.cpp</title>
<polygon fill="white" stroke="none" points="-4,4 -4,-304 1968,-304 1968,4 -4,4"/>
<!-- Node0 -->
<g id="node1" class="node"><title>Node0</title>
<polygon fill="#bfbfbf" stroke="black" points="1249.5,-280.5 1249.5,-299.5 1314.5,-299.5 1314.5,-280.5 1249.5,-280.5"/>
<text text-anchor="middle" x="1282" y="-287.5" font-family="Helvetica,sans-Serif" font-size="10.00">SICAD.cpp</text>
</g>
<!-- Node1 -->
<g id="node2" class="node"><title>Node1</title>
<g id="a_node2"><a xlink:href="SICAD_8h.html" target="_top" xlink:title="SuperimposeMesh/SICAD.h">
<polygon fill="white" stroke="black" points="648,-224.5 648,-243.5 786,-243.5 786,-224.5 648,-224.5"/>
<text text-anchor="middle" x="717" y="-231.5" font-family="Helvetica,sans-Serif" font-size="10.00">SuperimposeMesh/SICAD.h</text>
</a>
</g>
</g>
<!-- Node0&#45;&gt;Node1 -->
<g id="edge1" class="edge"><title>Node0&#45;&gt;Node1</title>
<path fill="none" stroke="midnightblue" d="M1249.18,-285.863C1161.9,-277.522 922.17,-254.609 796.397,-242.588"/>
<polygon fill="midnightblue" stroke="midnightblue" points="796.354,-239.068 786.066,-241.601 795.687,-246.037 796.354,-239.068"/>
</g>
<!-- Node3 -->
<g id="node4" class="node"><title>Node3</title>
<polygon fill="white" stroke="#bfbfbf" points="897.5,-0.5 897.5,-19.5 938.5,-19.5 938.5,-0.5 897.5,-0.5"/>
<text text-anchor="middle" x="918" y="-7.5" font-family="Helvetica,sans-Serif" font-size="10.00">string</text>
</g>
<!-- Node0&#45;&gt;Node3 -->
<g id="edge36" class="edge"><title>Node0&#45;&gt;Node3</title>
<path fill="none" stroke="midnightblue" d="M1253.35,-280.361C1234.78,-273.369 1211.46,-261.728 1197,-244 1177.98,-220.675 1178,-209.098 1178,-179 1178,-179 1178,-179 1178,-121 1178,-22.6027 1018.1,-10.8855 949.094,-10.4103"/>
<polygon fill="midnightblue" stroke="midnightblue" points="948.834,-6.91046 938.837,-10.4191 948.84,-13.9105 948.834,-6.91046"/>
</g>
<!-- Node11 -->
<g id="node12" class="node"><title>Node11</title>
<polygon fill="white" stroke="#bfbfbf" points="162.5,-0.5 162.5,-19.5 221.5,-19.5 221.5,-0.5 162.5,-0.5"/>
<text text-anchor="middle" x="192" y="-7.5" font-family="Helvetica,sans-Serif" font-size="10.00">exception</text>
</g>
<!-- Node0&#45;&gt;Node11 -->
<g id="edge35" class="edge"><title>Node0&#45;&gt;Node11</title>
<path fill="none" stroke="midnightblue" d="M1249.35,-287.957C1049.49,-281.367 0,-243.678 0,-179 0,-179 0,-179 0,-121 0,-51.3816 96.2137,-25.2056 152.423,-15.8535"/>
<polygon fill="midnightblue" stroke="midnightblue" points="153.079,-19.2937 162.421,-14.2963 152.001,-12.3771 153.079,-19.2937"/>
</g>
<!-- Node14 -->
<g id="node15" class="node"><title>Node14</title>
<polygon fill="white" stroke="#bfbfbf" points="66,-56.5 66,-75.5 152,-75.5 152,-56.5 66,-56.5"/>
<text text-anchor="middle" x="109" y="-63.5" font-family="Helvetica,sans-Serif" font-size="10.00">assimp/scene.h</text>
</g>
<!-- Node0&#45;&gt;Node14 -->
<g id="edge38" class="edge"><title>Node0&#45;&gt;Node14</title>
<path fill="none" stroke="midnightblue" d="M1249.43,-287.936C1154.83,-284.584 871.958,-272.712 639,-244 497.438,-226.552 458.795,-231.634 323,-188 245.458,-163.084 164.609,-108.08 128.47,-81.6888"/>
<polygon fill="midnightblue" stroke="midnightblue" points="130.397,-78.7607 120.274,-75.6314 126.236,-84.39 130.397,-78.7607"/>
</g>
<!-- Node21 -->
<g id="node22" class="node"><title>Node21</title>
<polygon fill="white" stroke="#bfbfbf" points="1206,-224.5 1206,-243.5 1260,-243.5 1260,-224.5 1206,-224.5"/>
<text text-anchor="middle" x="1233" y="-231.5" font-family="Helvetica,sans-Serif" font-size="10.00">iostream</text>
</g>
<!-- Node0&#45;&gt;Node21 -->
<g id="edge34" class="edge"><title>Node0&#45;&gt;Node21</title>
<path fill="none" stroke="midnightblue" d="M1273.91,-280.083C1266.84,-272.298 1256.41,-260.801 1247.85,-251.367"/>
<polygon fill="midnightblue" stroke="midnightblue" points="1250.25,-248.805 1240.94,-243.751 1245.07,-253.509 1250.25,-248.805"/>
</g>
<!-- Node22 -->
<g id="node23" class="node"><title>Node22</title>
<polygon fill="white" stroke="#bfbfbf" points="1278.5,-224.5 1278.5,-243.5 1383.5,-243.5 1383.5,-224.5 1278.5,-224.5"/>
<text text-anchor="middle" x="1331" y="-231.5" font-family="Helvetica,sans-Serif" font-size="10.00">assimp/Importer.hpp</text>
</g>
<!-- Node0&#45;&gt;Node22 -->
<g id="edge37" class="edge"><title>Node0&#45;&gt;Node22</title>
<path fill="none" stroke="midnightblue" d="M1290.09,-280.083C1297.16,-272.298 1307.59,-260.801 1316.15,-251.367"/>
<polygon fill="midnightblue" stroke="midnightblue" points="1318.93,-253.509 1323.06,-243.751 1313.75,-248.805 1318.93,-253.509"/>
</g>
<!-- Node23 -->
<g id="node24" class="node"><title>Node23</title>
<polygon fill="white" stroke="#bfbfbf" points="1401.5,-224.5 1401.5,-243.5 1514.5,-243.5 1514.5,-224.5 1401.5,-224.5"/>
<text text-anchor="middle" x="1458" y="-231.5" font-family="Helvetica,sans-Serif" font-size="10.00">assimp/postprocess.h</text>
</g>
<!-- Node0&#45;&gt;Node23 -->
<g id="edge39" class="edge"><title>Node0&#45;&gt;Node23</title>
<path fill="none" stroke="midnightblue" d="M1309.89,-280.444C1339.75,-271.28 1387.31,-256.688 1420.46,-246.519"/>
<polygon fill="midnightblue" stroke="midnightblue" points="1421.71,-249.796 1430.24,-243.516 1419.66,-243.104 1421.71,-249.796"/>
</g>
<!-- Node24 -->
<g id="node25" class="node"><title>Node24</title>
<polygon fill="white" stroke="#bfbfbf" points="1532.5,-224.5 1532.5,-243.5 1675.5,-243.5 1675.5,-224.5 1532.5,-224.5"/>
<text text-anchor="middle" x="1604" y="-231.5" font-family="Helvetica,sans-Serif" font-size="10.00">glm/gtc/matrix_transform.hpp</text>
</g>
<!-- Node0&#45;&gt;Node24 -->
<g id="edge40" class="edge"><title>Node0&#45;&gt;Node24</title>
<path fill="none" stroke="midnightblue" d="M1314.65,-283.525C1368.1,-274.56 1475.13,-256.612 1542.97,-245.235"/>
<polygon fill="midnightblue" stroke="midnightblue" points="1543.81,-248.643 1553.09,-243.537 1542.65,-241.739 1543.81,-248.643"/>
</g>
<!-- Node25 -->
<g id="node26" class="node"><title>Node25</title>
<polygon fill="white" stroke="#bfbfbf" points="1694,-224.5 1694,-243.5 1800,-243.5 1800,-224.5 1694,-224.5"/>
<text text-anchor="middle" x="1747" y="-231.5" font-family="Helvetica,sans-Serif" font-size="10.00">glm/gtc/type_ptr.hpp</text>
</g>
<!-- Node0&#45;&gt;Node25 -->
<g id="edge41" class="edge"><title>Node0&#45;&gt;Node25</title>
<path fill="none" stroke="midnightblue" d="M1314.69,-285.719C1381.75,-278.908 1539.97,-262.433 1683.6,-244.143"/>
<polygon fill="midnightblue" stroke="midnightblue" points="1684.44,-247.564 1693.92,-242.823 1683.55,-240.621 1684.44,-247.564"/>
</g>
<!-- Node26 -->
<g id="node27" class="node"><title>Node26</title>
<polygon fill="white" stroke="#bfbfbf" points="1818,-224.5 1818,-243.5 1964,-243.5 1964,-224.5 1818,-224.5"/>
<text text-anchor="middle" x="1891" y="-231.5" font-family="Helvetica,sans-Serif" font-size="10.00">opencv2/imgproc/imgproc.hpp</text>
</g>
<!-- Node0&#45;&gt;Node26 -->
<g id="edge42" class="edge"><title>Node0&#45;&gt;Node26</title>
<path fill="none" stroke="midnightblue" d="M1314.71,-286.483C1396.1,-280.162 1614.47,-262.839 1807.64,-244.113"/>
<polygon fill="midnightblue" stroke="midnightblue" points="1808.08,-247.587 1817.69,-243.135 1807.4,-240.62 1808.08,-247.587"/>
</g>
<!-- Node2 -->
<g id="node3" class="node"><title>Node2</title>
<g id="a_node3"><a xlink:href="Superimpose_8h.html" target="_top" xlink:title="SuperimposeMesh/Superimpose.h">
<polygon fill="white" stroke="black" points="788,-168.5 788,-187.5 954,-187.5 954,-168.5 788,-168.5"/>
<text text-anchor="middle" x="871" y="-175.5" font-family="Helvetica,sans-Serif" font-size="10.00">SuperimposeMesh/Superimpose.h</text>
</a>
</g>
</g>
<!-- Node1&#45;&gt;Node2 -->
<g id="edge2" class="edge"><title>Node1&#45;&gt;Node2</title>
<path fill="none" stroke="midnightblue" d="M741.402,-224.444C767.197,-215.399 808.077,-201.064 837.018,-190.916"/>
<polygon fill="midnightblue" stroke="midnightblue" points="838.434,-194.128 846.712,-187.516 836.118,-187.523 838.434,-194.128"/>
</g>
<!-- Node1&#45;&gt;Node3 -->
<g id="edge27" class="edge"><title>Node1&#45;&gt;Node3</title>
<path fill="none" stroke="midnightblue" d="M786.191,-230.232C895.764,-225.129 1099.12,-212.455 1121,-188 1184.3,-117.259 1019.54,-47.4027 948.623,-21.5168"/>
<polygon fill="midnightblue" stroke="midnightblue" points="949.474,-18.1038 938.879,-18.0217 947.11,-24.6927 949.474,-18.1038"/>
</g>
<!-- Node6 -->
<g id="node7" class="node"><title>Node6</title>
<polygon fill="white" stroke="#bfbfbf" points="680,-112.5 680,-131.5 720,-131.5 720,-112.5 680,-112.5"/>
<text text-anchor="middle" x="700" y="-119.5" font-family="Helvetica,sans-Serif" font-size="10.00">utility</text>
</g>
<!-- Node1&#45;&gt;Node6 -->
<g id="edge29" class="edge"><title>Node1&#45;&gt;Node6</title>
<path fill="none" stroke="midnightblue" d="M715.368,-224.39C713.677,-215.345 711.007,-200.697 709,-188 706.551,-172.508 704.134,-154.88 702.422,-141.894"/>
<polygon fill="midnightblue" stroke="midnightblue" points="705.875,-141.313 701.116,-131.847 698.934,-142.215 705.875,-141.313"/>
</g>
<!-- Node7 -->
<g id="node8" class="node"><title>Node7</title>
<polygon fill="white" stroke="#bfbfbf" points="588,-56.5 588,-75.5 630,-75.5 630,-56.5 588,-56.5"/>
<text text-anchor="middle" x="609" y="-63.5" font-family="Helvetica,sans-Serif" font-size="10.00">vector</text>
</g>
<!-- Node1&#45;&gt;Node7 -->
<g id="edge30" class="edge"><title>Node1&#45;&gt;Node7</title>
<path fill="none" stroke="midnightblue" d="M690.835,-224.387C673.333,-217.303 651.175,-205.544 638,-188 615.052,-157.442 609.971,-111.336 609.023,-85.7627"/>
<polygon fill="midnightblue" stroke="midnightblue" points="612.519,-85.5186 608.828,-75.5874 605.52,-85.6525 612.519,-85.5186"/>
</g>
<!-- Node9 -->
<g id="node10" class="node"><title>Node9</title>
<g id="a_node10"><a xlink:href="Model_8h.html" target="_top" xlink:title="Model.h">
<polygon fill="white" stroke="black" points="420.5,-168.5 420.5,-187.5 471.5,-187.5 471.5,-168.5 420.5,-168.5"/>
<text text-anchor="middle" x="446" y="-175.5" font-family="Helvetica,sans-Serif" font-size="10.00">Model.h</text>
</a>
</g>
</g>
<!-- Node1&#45;&gt;Node9 -->
<g id="edge9" class="edge"><title>Node1&#45;&gt;Node9</title>
<path fill="none" stroke="midnightblue" d="M670.901,-224.426C624.219,-215.648 549.979,-201.426 486,-188 484.563,-187.698 483.098,-187.387 481.619,-187.069"/>
<polygon fill="midnightblue" stroke="midnightblue" points="482.314,-183.639 471.797,-184.919 480.817,-190.477 482.314,-183.639"/>
</g>
<!-- Node10 -->
<g id="node11" class="node"><title>Node10</title>
<g id="a_node11"><a xlink:href="Shader_8h.html" target="_top" xlink:title="SuperimposeMesh/Shader.h">
<polygon fill="white" stroke="black" points="392,-56.5 392,-75.5 532,-75.5 532,-56.5 392,-56.5"/>
<text text-anchor="middle" x="462" y="-63.5" font-family="Helvetica,sans-Serif" font-size="10.00">SuperimposeMesh/Shader.h</text>
</a>
</g>
</g>
<!-- Node1&#45;&gt;Node10 -->
<g id="edge25" class="edge"><title>Node1&#45;&gt;Node10</title>
<path fill="none" stroke="midnightblue" d="M696.221,-224.469C676.757,-216.151 647.129,-202.644 623,-188 568.01,-154.626 508.91,-106.731 480.006,-82.4212"/>
<polygon fill="midnightblue" stroke="midnightblue" points="481.935,-79.4689 472.043,-75.676 477.411,-84.8102 481.935,-79.4689"/>
</g>
<!-- Node12 -->
<g id="node13" class="node"><title>Node12</title>
<polygon fill="white" stroke="#bfbfbf" points="291,-0.5 291,-19.5 351,-19.5 351,-0.5 291,-0.5"/>
<text text-anchor="middle" x="321" y="-7.5" font-family="Helvetica,sans-Serif" font-size="10.00">GL/glew.h</text>
</g>
<!-- Node1&#45;&gt;Node12 -->
<g id="edge31" class="edge"><title>Node1&#45;&gt;Node12</title>
<path fill="none" stroke="midnightblue" d="M712.978,-224.391C704.876,-207.002 686.078,-166.414 671,-132 656.292,-98.4309 668.033,-78.367 639,-56 596.286,-23.0937 436.612,-14.2237 361.079,-11.8535"/>
<polygon fill="midnightblue" stroke="midnightblue" points="361.098,-8.35262 351.001,-11.5603 360.895,-15.3497 361.098,-8.35262"/>
</g>
<!-- Node17 -->
<g id="node18" class="node"><title>Node17</title>
<polygon fill="white" stroke="#bfbfbf" points="718,-168.5 718,-187.5 770,-187.5 770,-168.5 718,-168.5"/>
<text text-anchor="middle" x="744" y="-175.5" font-family="Helvetica,sans-Serif" font-size="10.00">memory</text>
</g>
<!-- Node1&#45;&gt;Node17 -->
<g id="edge26" class="edge"><title>Node1&#45;&gt;Node17</title>
<path fill="none" stroke="midnightblue" d="M721.459,-224.083C725.154,-216.691 730.523,-205.953 735.094,-196.811"/>
<polygon fill="midnightblue" stroke="midnightblue" points="738.283,-198.261 739.624,-187.751 732.022,-195.13 738.283,-198.261"/>
</g>
<!-- Node18 -->
<g id="node19" class="node"><title>Node18</title>
<polygon fill="white" stroke="#bfbfbf" points="972,-168.5 972,-187.5 1016,-187.5 1016,-168.5 972,-168.5"/>
<text text-anchor="middle" x="994" y="-175.5" font-family="Helvetica,sans-Serif" font-size="10.00">thread</text>
</g>
<!-- Node1&#45;&gt;Node18 -->
<g id="edge28" class="edge"><title>Node1&#45;&gt;Node18</title>
<path fill="none" stroke="midnightblue" d="M772.535,-224.496C820.364,-216.798 891.403,-204.476 961.795,-188.099"/>
<polygon fill="midnightblue" stroke="midnightblue" points="962.789,-191.461 971.721,-185.762 961.185,-184.647 962.789,-191.461"/>
</g>
<!-- Node19 -->
<g id="node20" class="node"><title>Node19</title>
<polygon fill="white" stroke="#bfbfbf" points="1034,-168.5 1034,-187.5 1112,-187.5 1112,-168.5 1034,-168.5"/>
<text text-anchor="middle" x="1073" y="-175.5" font-family="Helvetica,sans-Serif" font-size="10.00">GLFW/glfw3.h</text>
</g>
<!-- Node1&#45;&gt;Node19 -->
<g id="edge32" class="edge"><title>Node1&#45;&gt;Node19</title>
<path fill="none" stroke="midnightblue" d="M780.529,-224.479C840.633,-216.245 933.628,-203.06 1023.86,-188.136"/>
<polygon fill="midnightblue" stroke="midnightblue" points="1024.7,-191.544 1033.99,-186.45 1023.55,-184.638 1024.7,-191.544"/>
</g>
<!-- Node20 -->
<g id="node21" class="node"><title>Node20</title>
<polygon fill="white" stroke="#bfbfbf" points="332,-168.5 332,-187.5 402,-187.5 402,-168.5 332,-168.5"/>
<text text-anchor="middle" x="367" y="-175.5" font-family="Helvetica,sans-Serif" font-size="10.00">glm/glm.hpp</text>
</g>
<!-- Node1&#45;&gt;Node20 -->
<g id="edge33" class="edge"><title>Node1&#45;&gt;Node20</title>
<path fill="none" stroke="midnightblue" d="M651.765,-224.48C591.94,-216.421 500.656,-203.514 411.99,-188.093"/>
<polygon fill="midnightblue" stroke="midnightblue" points="412.485,-184.627 402.031,-186.349 411.277,-191.522 412.485,-184.627"/>
</g>
<!-- Node2&#45;&gt;Node3 -->
<g id="edge3" class="edge"><title>Node2&#45;&gt;Node3</title>
<path fill="none" stroke="midnightblue" d="M873.527,-168.075C880.925,-141.945 902.651,-65.2106 912.74,-29.577"/>
<polygon fill="midnightblue" stroke="midnightblue" points="916.217,-30.1434 915.574,-19.5681 909.482,-28.2364 916.217,-30.1434"/>
</g>
<!-- Node4 -->
<g id="node5" class="node"><title>Node4</title>
<polygon fill="white" stroke="#bfbfbf" points="946.5,-112.5 946.5,-131.5 981.5,-131.5 981.5,-112.5 946.5,-112.5"/>
<text text-anchor="middle" x="964" y="-119.5" font-family="Helvetica,sans-Serif" font-size="10.00">map</text>
</g>
<!-- Node2&#45;&gt;Node4 -->
<g id="edge4" class="edge"><title>Node2&#45;&gt;Node4</title>
<path fill="none" stroke="midnightblue" d="M885.942,-168.324C900.585,-159.822 923.134,-146.729 940.238,-136.797"/>
<polygon fill="midnightblue" stroke="midnightblue" points="942.205,-139.703 949.095,-131.655 938.69,-133.649 942.205,-139.703"/>
</g>
<!-- Node5 -->
<g id="node6" class="node"><title>Node5</title>
<polygon fill="white" stroke="#bfbfbf" points="999.5,-112.5 999.5,-131.5 1082.5,-131.5 1082.5,-112.5 999.5,-112.5"/>
<text text-anchor="middle" x="1041" y="-119.5" font-family="Helvetica,sans-Serif" font-size="10.00">unordered_map</text>
</g>
<!-- Node2&#45;&gt;Node5 -->
<g id="edge5" class="edge"><title>Node2&#45;&gt;Node5</title>
<path fill="none" stroke="midnightblue" d="M897.937,-168.444C926.66,-159.32 972.329,-144.813 1004.32,-134.651"/>
<polygon fill="midnightblue" stroke="midnightblue" points="1005.72,-137.88 1014.19,-131.516 1003.6,-131.208 1005.72,-137.88"/>
</g>
<!-- Node2&#45;&gt;Node6 -->
<g id="edge6" class="edge"><title>Node2&#45;&gt;Node6</title>
<path fill="none" stroke="midnightblue" d="M843.905,-168.444C812.803,-158.622 761.95,-142.563 729.767,-132.4"/>
<polygon fill="midnightblue" stroke="midnightblue" points="730.613,-128.997 720.023,-129.323 728.505,-135.672 730.613,-128.997"/>
</g>
<!-- Node2&#45;&gt;Node7 -->
<g id="edge7" class="edge"><title>Node2&#45;&gt;Node7</title>
<path fill="none" stroke="midnightblue" d="M872.493,-168.487C874.392,-154.623 875.835,-127.196 861,-112 830.762,-81.0252 700.623,-71.1339 640.132,-68.175"/>
<polygon fill="midnightblue" stroke="midnightblue" points="640.176,-64.6734 630.026,-67.7139 639.856,-71.6661 640.176,-64.6734"/>
</g>
<!-- Node8 -->
<g id="node9" class="node"><title>Node8</title>
<polygon fill="white" stroke="#bfbfbf" points="738,-112.5 738,-131.5 852,-131.5 852,-112.5 738,-112.5"/>
<text text-anchor="middle" x="795" y="-119.5" font-family="Helvetica,sans-Serif" font-size="10.00">opencv2/core/core.hpp</text>
</g>
<!-- Node2&#45;&gt;Node8 -->
<g id="edge8" class="edge"><title>Node2&#45;&gt;Node8</title>
<path fill="none" stroke="midnightblue" d="M858.789,-168.324C847.224,-160.107 829.625,-147.602 815.839,-137.807"/>
<polygon fill="midnightblue" stroke="midnightblue" points="817.612,-134.773 807.433,-131.834 813.557,-140.479 817.612,-134.773"/>
</g>
<!-- Node9&#45;&gt;Node3 -->
<g id="edge22" class="edge"><title>Node9&#45;&gt;Node3</title>
<path fill="none" stroke="midnightblue" d="M452.312,-168.391C469.61,-145.539 520.402,-83.2352 579,-56 633.539,-30.6511 814.076,-17.2402 887.021,-12.7483"/>
<polygon fill="midnightblue" stroke="midnightblue" points="887.601,-16.2199 897.373,-12.1266 887.181,-9.23248 887.601,-16.2199"/>
</g>
<!-- Node9&#45;&gt;Node7 -->
<g id="edge21" class="edge"><title>Node9&#45;&gt;Node7</title>
<path fill="none" stroke="midnightblue" d="M471.633,-169.714C494.193,-162.499 527.215,-149.926 552,-132 570.356,-118.723 586.882,-98.5068 597.354,-84.1491"/>
<polygon fill="midnightblue" stroke="midnightblue" points="600.415,-85.8809 603.32,-75.6919 594.696,-81.8457 600.415,-85.8809"/>
</g>
<!-- Node9&#45;&gt;Node10 -->
<g id="edge10" class="edge"><title>Node9&#45;&gt;Node10</title>
<path fill="none" stroke="midnightblue" d="M447.255,-168.368C449.838,-150.617 455.794,-109.666 459.295,-85.5974"/>
<polygon fill="midnightblue" stroke="midnightblue" points="462.774,-85.9911 460.75,-75.5914 455.847,-84.9835 462.774,-85.9911"/>
</g>
<!-- Node9&#45;&gt;Node12 -->
<g id="edge24" class="edge"><title>Node9&#45;&gt;Node12</title>
<path fill="none" stroke="midnightblue" d="M420.44,-170.183C417.27,-169.409 414.066,-168.662 411,-168 252.106,-133.674 149.544,-209.646 57,-76 51.9396,-68.6921 51.2669,-62.793 57,-56 71.2616,-39.1017 210.109,-22.4687 280.507,-15.0379"/>
<polygon fill="midnightblue" stroke="midnightblue" points="281.197,-18.485 290.781,-13.9675 280.472,-11.5227 281.197,-18.485"/>
</g>
<!-- Node13 -->
<g id="node14" class="node"><title>Node13</title>
<g id="a_node14"><a xlink:href="Mesh_8h.html" target="_top" xlink:title="SuperimposeMesh/Mesh.h">
<polygon fill="white" stroke="black" points="270.5,-112.5 270.5,-131.5 403.5,-131.5 403.5,-112.5 270.5,-112.5"/>
<text text-anchor="middle" x="337" y="-119.5" font-family="Helvetica,sans-Serif" font-size="10.00">SuperimposeMesh/Mesh.h</text>
</a>
</g>
</g>
<!-- Node9&#45;&gt;Node13 -->
<g id="edge14" class="edge"><title>Node9&#45;&gt;Node13</title>
<path fill="none" stroke="midnightblue" d="M428.487,-168.324C410.928,-159.625 383.669,-146.12 363.469,-136.113"/>
<polygon fill="midnightblue" stroke="midnightblue" points="364.984,-132.958 354.469,-131.655 361.876,-139.23 364.984,-132.958"/>
</g>
<!-- Node9&#45;&gt;Node14 -->
<g id="edge23" class="edge"><title>Node9&#45;&gt;Node14</title>
<path fill="none" stroke="midnightblue" d="M420.398,-170.366C417.235,-169.561 414.044,-168.757 411,-168 344.465,-151.462 326.083,-153.555 261,-132 215.96,-117.083 165.706,-94.3269 135.754,-80.0759"/>
<polygon fill="midnightblue" stroke="midnightblue" points="136.941,-76.7636 126.411,-75.5927 133.912,-83.0746 136.941,-76.7636"/>
</g>
<!-- Node10&#45;&gt;Node3 -->
<g id="edge12" class="edge"><title>Node10&#45;&gt;Node3</title>
<path fill="none" stroke="midnightblue" d="M532.251,-56.6808C633.005,-44.7494 814.373,-23.2716 886.844,-14.6895"/>
<polygon fill="midnightblue" stroke="midnightblue" points="887.599,-18.1246 897.118,-13.4728 886.776,-11.1732 887.599,-18.1246"/>
</g>
<!-- Node10&#45;&gt;Node11 -->
<g id="edge11" class="edge"><title>Node10&#45;&gt;Node11</title>
<path fill="none" stroke="midnightblue" d="M419.218,-56.4435C367.607,-46.1214 281.551,-28.9102 231.47,-18.8939"/>
<polygon fill="midnightblue" stroke="midnightblue" points="232.146,-15.46 221.654,-16.9308 230.773,-22.3241 232.146,-15.46"/>
</g>
<!-- Node10&#45;&gt;Node12 -->
<g id="edge13" class="edge"><title>Node10&#45;&gt;Node12</title>
<path fill="none" stroke="midnightblue" d="M439.658,-56.4435C416.247,-47.4776 379.264,-33.314 352.81,-23.1827"/>
<polygon fill="midnightblue" stroke="midnightblue" points="353.828,-19.8245 343.237,-19.5164 351.324,-26.3615 353.828,-19.8245"/>
</g>
<!-- Node13&#45;&gt;Node7 -->
<g id="edge16" class="edge"><title>Node13&#45;&gt;Node7</title>
<path fill="none" stroke="midnightblue" d="M380.099,-112.444C435.225,-101.5 529.357,-82.8115 577.946,-73.165"/>
<polygon fill="midnightblue" stroke="midnightblue" points="578.746,-76.5747 587.873,-71.1943 577.383,-69.7087 578.746,-76.5747"/>
</g>
<!-- Node13&#45;&gt;Node10 -->
<g id="edge15" class="edge"><title>Node13&#45;&gt;Node10</title>
<path fill="none" stroke="midnightblue" d="M356.807,-112.444C377.287,-103.596 409.483,-89.6875 432.865,-79.5865"/>
<polygon fill="midnightblue" stroke="midnightblue" points="434.494,-82.6953 442.286,-75.5164 431.718,-76.2692 434.494,-82.6953"/>
</g>
<!-- Node13&#45;&gt;Node12 -->
<g id="edge18" class="edge"><title>Node13&#45;&gt;Node12</title>
<path fill="none" stroke="midnightblue" d="M270.147,-115.832C243.556,-110.105 215.43,-98.6384 199,-76 175.003,-42.9341 236.873,-25.1013 281.019,-16.8641"/>
<polygon fill="midnightblue" stroke="midnightblue" points="281.723,-20.294 290.964,-15.1112 280.508,-13.4003 281.723,-20.294"/>
</g>
<!-- Node13&#45;&gt;Node14 -->
<g id="edge17" class="edge"><title>Node13&#45;&gt;Node14</title>
<path fill="none" stroke="midnightblue" d="M300.873,-112.444C261.349,-103.083 197.903,-88.0561 154.887,-77.868"/>
<polygon fill="midnightblue" stroke="midnightblue" points="155.496,-74.4154 144.958,-75.5164 153.882,-81.2269 155.496,-74.4154"/>
</g>
<!-- Node15 -->
<g id="node16" class="node"><title>Node15</title>
<polygon fill="white" stroke="#bfbfbf" points="300,-56.5 300,-75.5 374,-75.5 374,-56.5 300,-56.5"/>
<text text-anchor="middle" x="337" y="-63.5" font-family="Helvetica,sans-Serif" font-size="10.00">glm/vec2.hpp</text>
</g>
<!-- Node13&#45;&gt;Node15 -->
<g id="edge19" class="edge"><title>Node13&#45;&gt;Node15</title>
<path fill="none" stroke="midnightblue" d="M337,-112.083C337,-105.006 337,-94.8611 337,-85.9865"/>
<polygon fill="midnightblue" stroke="midnightblue" points="340.5,-85.751 337,-75.7511 333.5,-85.7511 340.5,-85.751"/>
</g>
<!-- Node16 -->
<g id="node17" class="node"><title>Node16</title>
<polygon fill="white" stroke="#bfbfbf" points="208,-56.5 208,-75.5 282,-75.5 282,-56.5 208,-56.5"/>
<text text-anchor="middle" x="245" y="-63.5" font-family="Helvetica,sans-Serif" font-size="10.00">glm/vec3.hpp</text>
</g>
<!-- Node13&#45;&gt;Node16 -->
<g id="edge20" class="edge"><title>Node13&#45;&gt;Node16</title>
<path fill="none" stroke="midnightblue" d="M322.219,-112.324C307.733,-103.822 285.427,-90.7288 268.507,-80.7975"/>
<polygon fill="midnightblue" stroke="midnightblue" points="270.141,-77.6981 259.745,-75.6545 266.597,-83.735 270.141,-77.6981"/>
</g>
</g>
</svg>
        <g id="navigator" transform="translate(0 0)" fill="#404254">
                <rect fill="#f2f5e9" fill-opacity="0.5" stroke="#606060" stroke-width=".5" x="0" y="0" width="60" height="60"/>
                <use id="zoomplus" xlink:href="#zoomPlus" x="17" y="9" onmousedown="handleZoom(evt,'in')"/>
                <use id="zoomminus" xlink:href="#zoomMin" x="42" y="9" onmousedown="handleZoom(evt,'out')"/>
                <use id="reset" xlink:href="#resetDef" x="30" y="36" onmousedown="handleReset()"/>
                <g id="arrowUp" xlink:href="#dirArrow" transform="translate(30 24)" onmousedown="handlePan(0,-1)">
                  <use xlink:href="#rim" fill="#404040">
                        <set attributeName="fill" to="#808080" begin="arrowUp.mouseover" end="arrowUp.mouseout"/>
                  </use>
                  <path fill="none" stroke="white" stroke-width="1.5" d="M0,-3.0v7 M-2.5,-0.5L0,-3.0L2.5,-0.5"/>
                </g>
                <g id="arrowRight" xlink:href="#dirArrow" transform="rotate(90) translate(36 -43)" onmousedown="handlePan(1,0)">
                  <use xlink:href="#rim" fill="#404040">
                        <set attributeName="fill" to="#808080" begin="arrowRight.mouseover" end="arrowRight.mouseout"/>
                  </use>
                  <path fill="none" stroke="white" stroke-width="1.5" d="M0,-3.0v7 M-2.5,-0.5L0,-3.0L2.5,-0.5"/>
                </g>
                <g id="arrowDown" xlink:href="#dirArrow" transform="rotate(180) translate(-30 -48)" onmousedown="handlePan(0,1)">
                  <use xlink:href="#rim" fill="#404040">
                        <set attributeName="fill" to="#808080" begin="arrowDown.mouseover" end="arrowDown.mouseout"/>
                  </use>
                  <path fill="none" stroke="white" stroke-width="1.5" d="M0,-3.0v7 M-2.5,-0.5L0,-3.0L2.5,-0.5"/>
                </g>
                <g id="arrowLeft" xlink:href="#dirArrow" transform="rotate(270) translate(-36 17)" onmousedown="handlePan(-1,0)">
                  <use xlink:href="#rim" fill="#404040">
                        <set attributeName="fill" to="#808080" begin="arrowLeft.mouseover" end="arrowLeft.mouseout"/>
                  </use>
                  <path fill="none" stroke="white" stroke-width="1.5" d="M0,-3.0v7 M-2.5,-0.5L0,-3.0L2.5,-0.5"/>
                </g>
        </g>
        <svg viewBox="0 0 15 15" width="100%" height="30px" preserveAspectRatio="xMaxYMin meet">
         <g id="arrow_out" transform="scale(0.3 0.3)">
          <a xlink:href="SICAD_8cpp__incl_org.svg" target="_base">
           <rect id="button" ry="5" rx="5" y="6" x="6" height="38" width="38"
                fill="#f2f5e9" fill-opacity="0.5" stroke="#606060" stroke-width="1.0"/>
           <path id="arrow"
             d="M 11.500037,31.436501 C 11.940474,20.09759 22.043105,11.32322 32.158766,21.979434 L 37.068811,17.246167 C 37.068811,17.246167 37.088388,32 37.088388,32 L 22.160133,31.978069 C 22.160133,31.978069 26.997745,27.140456 26.997745,27.140456 C 18.528582,18.264221 13.291696,25.230495 11.500037,31.436501 z"
             style="fill:#404040;"/>
          </a>
         </g>
        </svg>
</svg>
