<?xml version="1.0" encoding="UTF-8" standalone="no"?>
<!DOCTYPE svg PUBLIC "-//W3C//DTD SVG 1.1//EN"
 "http://www.w3.org/Graphics/SVG/1.1/DTD/svg11.dtd">
<!-- Generated by graphviz version 2.38.0 (20140413.2041)
 -->
<!-- Title: SICAD.h Pages: 1 -->
<svg width="1299pt" height="252pt"
 viewBox="0.00 0.00 1298.50 252.00" xmlns="http://www.w3.org/2000/svg" xmlns:xlink="http://www.w3.org/1999/xlink">
<g id="graph0" class="graph" transform="scale(1 1) rotate(0) translate(4 248)">
<title>SICAD.h</title>
<polygon fill="white" stroke="none" points="-4,4 -4,-248 1294.5,-248 1294.5,4 -4,4"/>
<!-- Node0 -->
<g id="node1" class="node"><title>Node0</title>
<polygon fill="#bfbfbf" stroke="black" points="899.5,-224.5 899.5,-243.5 953.5,-243.5 953.5,-224.5 899.5,-224.5"/>
<text text-anchor="middle" x="926.5" y="-231.5" font-family="Helvetica,sans-Serif" font-size="10.00">SICAD.h</text>
</g>
<!-- Node1 -->
<g id="node2" class="node"><title>Node1</title>
<g id="a_node2"><a xlink:href="Superimpose_8h.html" target="_top" xlink:title="SuperimposeMesh/Superimpose.h">
<polygon fill="white" stroke="black" points="166.5,-168.5 166.5,-187.5 332.5,-187.5 332.5,-168.5 166.5,-168.5"/>
<text text-anchor="middle" x="249.5" y="-175.5" font-family="Helvetica,sans-Serif" font-size="10.00">SuperimposeMesh/Superimpose.h</text>
</a>
</g>
</g>
<!-- Node0&#45;&gt;Node1 -->
<g id="edge1" class="edge"><title>Node0&#45;&gt;Node1</title>
<path fill="none" stroke="midnightblue" d="M899.122,-230.816C806.05,-223.392 498.973,-198.899 342.669,-186.432"/>
<polygon fill="midnightblue" stroke="midnightblue" points="342.842,-182.934 332.596,-185.628 342.286,-189.912 342.842,-182.934"/>
</g>
<!-- Node2 -->
<g id="node3" class="node"><title>Node2</title>
<polygon fill="white" stroke="#bfbfbf" points="453,-0.5 453,-19.5 494,-19.5 494,-0.5 453,-0.5"/>
<text text-anchor="middle" x="473.5" y="-7.5" font-family="Helvetica,sans-Serif" font-size="10.00">string</text>
</g>
<!-- Node0&#45;&gt;Node2 -->
<g id="edge26" class="edge"><title>Node0&#45;&gt;Node2</title>
<path fill="none" stroke="midnightblue" d="M899.107,-233.137C839.359,-232.649 693.546,-227.166 579.5,-188 505.442,-162.567 467.833,-150.426 443.5,-76 437.914,-58.915 448.214,-40.3887 458.234,-27.5025"/>
<polygon fill="midnightblue" stroke="midnightblue" points="461.154,-29.4694 464.927,-19.5693 455.804,-24.9555 461.154,-29.4694"/>
</g>
<!-- Node5 -->
<g id="node6" class="node"><title>Node5</title>
<polygon fill="white" stroke="#bfbfbf" points="362.5,-112.5 362.5,-131.5 402.5,-131.5 402.5,-112.5 362.5,-112.5"/>
<text text-anchor="middle" x="382.5" y="-119.5" font-family="Helvetica,sans-Serif" font-size="10.00">utility</text>
</g>
<!-- Node0&#45;&gt;Node5 -->
<g id="edge28" class="edge"><title>Node0&#45;&gt;Node5</title>
<path fill="none" stroke="midnightblue" d="M899.476,-232.121C799.862,-228.678 456.888,-214.95 416.5,-188 400.474,-177.306 391.516,-156.552 386.868,-141.363"/>
<polygon fill="midnightblue" stroke="midnightblue" points="390.193,-140.25 384.207,-131.509 383.436,-142.076 390.193,-140.25"/>
</g>
<!-- Node6 -->
<g id="node7" class="node"><title>Node6</title>
<polygon fill="white" stroke="#bfbfbf" points="452.5,-56.5 452.5,-75.5 494.5,-75.5 494.5,-56.5 452.5,-56.5"/>
<text text-anchor="middle" x="473.5" y="-63.5" font-family="Helvetica,sans-Serif" font-size="10.00">vector</text>
</g>
<!-- Node0&#45;&gt;Node6 -->
<g id="edge29" class="edge"><title>Node0&#45;&gt;Node6</title>
<path fill="none" stroke="midnightblue" d="M899.385,-229.646C816.048,-218.869 565.554,-182.84 503.5,-132 489.25,-120.325 481.444,-100.38 477.398,-85.6553"/>
<polygon fill="midnightblue" stroke="midnightblue" points="480.73,-84.542 474.991,-75.6358 473.924,-86.1767 480.73,-84.542"/>
</g>
<!-- Node8 -->
<g id="node9" class="node"><title>Node8</title>
<g id="a_node9"><a xlink:href="Model_8h.html" target="_top" xlink:title="Model.h">
<polygon fill="white" stroke="black" points="802,-168.5 802,-187.5 853,-187.5 853,-168.5 802,-168.5"/>
<text text-anchor="middle" x="827.5" y="-175.5" font-family="Helvetica,sans-Serif" font-size="10.00">Model.h</text>
</a>
</g>
</g>
<!-- Node0&#45;&gt;Node8 -->
<g id="edge8" class="edge"><title>Node0&#45;&gt;Node8</title>
<path fill="none" stroke="midnightblue" d="M910.594,-224.324C894.862,-215.743 870.558,-202.486 852.291,-192.522"/>
<polygon fill="midnightblue" stroke="midnightblue" points="853.822,-189.37 843.367,-187.655 850.47,-195.516 853.822,-189.37"/>
</g>
<!-- Node9 -->
<g id="node10" class="node"><title>Node9</title>
<g id="a_node10"><a xlink:href="Shader_8h.html" target="_top" xlink:title="SuperimposeMesh/Shader.h">
<polygon fill="white" stroke="black" points="876.5,-56.5 876.5,-75.5 1016.5,-75.5 1016.5,-56.5 876.5,-56.5"/>
<text text-anchor="middle" x="946.5" y="-63.5" font-family="Helvetica,sans-Serif" font-size="10.00">SuperimposeMesh/Shader.h</text>
</a>
</g>
</g>
<!-- Node0&#45;&gt;Node9 -->
<g id="edge24" class="edge"><title>Node0&#45;&gt;Node9</title>
<path fill="none" stroke="midnightblue" d="M927.575,-224.075C930.723,-197.945 939.969,-121.211 944.262,-85.577"/>
<polygon fill="midnightblue" stroke="midnightblue" points="947.746,-85.915 945.468,-75.5681 940.797,-85.0776 947.746,-85.915"/>
</g>
<!-- Node11 -->
<g id="node12" class="node"><title>Node11</title>
<polygon fill="white" stroke="#bfbfbf" points="1004.5,-0.5 1004.5,-19.5 1064.5,-19.5 1064.5,-0.5 1004.5,-0.5"/>
<text text-anchor="middle" x="1034.5" y="-7.5" font-family="Helvetica,sans-Serif" font-size="10.00">GL/glew.h</text>
</g>
<!-- Node0&#45;&gt;Node11 -->
<g id="edge30" class="edge"><title>Node0&#45;&gt;Node11</title>
<path fill="none" stroke="midnightblue" d="M933.99,-224.497C957.985,-197.038 1032.05,-110.524 1043.5,-76 1048.54,-60.7938 1045.33,-42.68 1041.41,-29.4414"/>
<polygon fill="midnightblue" stroke="midnightblue" points="1044.62,-28.0029 1038.12,-19.6385 1037.98,-30.2325 1044.62,-28.0029"/>
</g>
<!-- Node16 -->
<g id="node17" class="node"><title>Node16</title>
<polygon fill="white" stroke="#bfbfbf" points="992.5,-168.5 992.5,-187.5 1044.5,-187.5 1044.5,-168.5 992.5,-168.5"/>
<text text-anchor="middle" x="1018.5" y="-175.5" font-family="Helvetica,sans-Serif" font-size="10.00">memory</text>
</g>
<!-- Node0&#45;&gt;Node16 -->
<g id="edge25" class="edge"><title>Node0&#45;&gt;Node16</title>
<path fill="none" stroke="midnightblue" d="M941.281,-224.324C955.767,-215.822 978.073,-202.729 994.993,-192.797"/>
<polygon fill="midnightblue" stroke="midnightblue" points="996.903,-195.735 1003.76,-187.655 993.359,-189.698 996.903,-195.735"/>
</g>
<!-- Node17 -->
<g id="node18" class="node"><title>Node17</title>
<polygon fill="white" stroke="#bfbfbf" points="1062.5,-168.5 1062.5,-187.5 1106.5,-187.5 1106.5,-168.5 1062.5,-168.5"/>
<text text-anchor="middle" x="1084.5" y="-175.5" font-family="Helvetica,sans-Serif" font-size="10.00">thread</text>
</g>
<!-- Node0&#45;&gt;Node17 -->
<g id="edge27" class="edge"><title>Node0&#45;&gt;Node17</title>
<path fill="none" stroke="midnightblue" d="M951.536,-224.444C978.976,-215.065 1023.06,-200 1052.87,-189.811"/>
<polygon fill="midnightblue" stroke="midnightblue" points="1054.06,-193.104 1062.39,-186.558 1051.79,-186.48 1054.06,-193.104"/>
</g>
<!-- Node18 -->
<g id="node19" class="node"><title>Node18</title>
<polygon fill="white" stroke="#bfbfbf" points="1124.5,-168.5 1124.5,-187.5 1202.5,-187.5 1202.5,-168.5 1124.5,-168.5"/>
<text text-anchor="middle" x="1163.5" y="-175.5" font-family="Helvetica,sans-Serif" font-size="10.00">GLFW/glfw3.h</text>
</g>
<!-- Node0&#45;&gt;Node18 -->
<g id="edge31" class="edge"><title>Node0&#45;&gt;Node18</title>
<path fill="none" stroke="midnightblue" d="M953.687,-226.806C993.303,-217.779 1067.47,-200.881 1116.16,-189.786"/>
<polygon fill="midnightblue" stroke="midnightblue" points="1117.17,-193.145 1126.15,-187.511 1115.62,-186.32 1117.17,-193.145"/>
</g>
<!-- Node19 -->
<g id="node20" class="node"><title>Node19</title>
<polygon fill="white" stroke="#bfbfbf" points="1220.5,-168.5 1220.5,-187.5 1290.5,-187.5 1290.5,-168.5 1220.5,-168.5"/>
<text text-anchor="middle" x="1255.5" y="-175.5" font-family="Helvetica,sans-Serif" font-size="10.00">glm/glm.hpp</text>
</g>
<!-- Node0&#45;&gt;Node19 -->
<g id="edge32" class="edge"><title>Node0&#45;&gt;Node19</title>
<path fill="none" stroke="midnightblue" d="M953.683,-229.125C1002.82,-222.032 1109.91,-206.163 1210.44,-188.124"/>
<polygon fill="midnightblue" stroke="midnightblue" points="1211.24,-191.536 1220.46,-186.315 1210,-184.648 1211.24,-191.536"/>
</g>
<!-- Node1&#45;&gt;Node2 -->
<g id="edge2" class="edge"><title>Node1&#45;&gt;Node2</title>
<path fill="none" stroke="midnightblue" d="M228.963,-168.486C204.025,-156.892 167.197,-134.941 183.5,-112 243.806,-27.1378 380.848,-12.973 442.469,-11.028"/>
<polygon fill="midnightblue" stroke="midnightblue" points="442.801,-14.5215 452.72,-10.7972 442.643,-7.52329 442.801,-14.5215"/>
</g>
<!-- Node3 -->
<g id="node4" class="node"><title>Node3</title>
<polygon fill="white" stroke="#bfbfbf" points="0,-112.5 0,-131.5 35,-131.5 35,-112.5 0,-112.5"/>
<text text-anchor="middle" x="17.5" y="-119.5" font-family="Helvetica,sans-Serif" font-size="10.00">map</text>
</g>
<!-- Node1&#45;&gt;Node3 -->
<g id="edge3" class="edge"><title>Node1&#45;&gt;Node3</title>
<path fill="none" stroke="midnightblue" d="M202.888,-168.451C163.096,-160.788 104.209,-148.586 44.9331,-132.166"/>
<polygon fill="midnightblue" stroke="midnightblue" points="45.607,-128.719 35.033,-129.384 43.7136,-135.459 45.607,-128.719"/>
</g>
<!-- Node4 -->
<g id="node5" class="node"><title>Node4</title>
<polygon fill="white" stroke="#bfbfbf" points="53,-112.5 53,-131.5 136,-131.5 136,-112.5 53,-112.5"/>
<text text-anchor="middle" x="94.5" y="-119.5" font-family="Helvetica,sans-Serif" font-size="10.00">unordered_map</text>
</g>
<!-- Node1&#45;&gt;Node4 -->
<g id="edge4" class="edge"><title>Node1&#45;&gt;Node4</title>
<path fill="none" stroke="midnightblue" d="M224.94,-168.444C198.977,-159.399 157.832,-145.064 128.703,-134.916"/>
<polygon fill="midnightblue" stroke="midnightblue" points="129.54,-131.501 118.945,-131.516 127.237,-138.112 129.54,-131.501"/>
</g>
<!-- Node1&#45;&gt;Node5 -->
<g id="edge5" class="edge"><title>Node1&#45;&gt;Node5</title>
<path fill="none" stroke="midnightblue" d="M270.574,-168.444C292.818,-159.412 328.052,-145.107 353.04,-134.961"/>
<polygon fill="midnightblue" stroke="midnightblue" points="354.446,-138.168 362.395,-131.163 351.813,-131.682 354.446,-138.168"/>
</g>
<!-- Node1&#45;&gt;Node6 -->
<g id="edge6" class="edge"><title>Node1&#45;&gt;Node6</title>
<path fill="none" stroke="midnightblue" d="M261.524,-168.367C280.431,-155.054 318.563,-129.252 353.5,-112 382.782,-97.54 417.934,-84.8685 442.599,-76.688"/>
<polygon fill="midnightblue" stroke="midnightblue" points="443.733,-79.9995 452.154,-73.5695 441.561,-73.345 443.733,-79.9995"/>
</g>
<!-- Node7 -->
<g id="node8" class="node"><title>Node7</title>
<polygon fill="white" stroke="#bfbfbf" points="192.5,-112.5 192.5,-131.5 306.5,-131.5 306.5,-112.5 192.5,-112.5"/>
<text text-anchor="middle" x="249.5" y="-119.5" font-family="Helvetica,sans-Serif" font-size="10.00">opencv2/core/core.hpp</text>
</g>
<!-- Node1&#45;&gt;Node7 -->
<g id="edge7" class="edge"><title>Node1&#45;&gt;Node7</title>
<path fill="none" stroke="midnightblue" d="M249.5,-168.083C249.5,-161.006 249.5,-150.861 249.5,-141.986"/>
<polygon fill="midnightblue" stroke="midnightblue" points="253,-141.751 249.5,-131.751 246,-141.751 253,-141.751"/>
</g>
<!-- Node8&#45;&gt;Node2 -->
<g id="edge21" class="edge"><title>Node8&#45;&gt;Node2</title>
<path fill="none" stroke="midnightblue" d="M801.71,-172.648C748.904,-162.773 626.314,-134.812 541.5,-76 521.082,-61.8415 500.916,-41.5543 487.913,-27.4237"/>
<polygon fill="midnightblue" stroke="midnightblue" points="490.434,-24.9919 481.138,-19.908 485.234,-29.679 490.434,-24.9919"/>
</g>
<!-- Node8&#45;&gt;Node6 -->
<g id="edge20" class="edge"><title>Node8&#45;&gt;Node6</title>
<path fill="none" stroke="midnightblue" d="M801.957,-175.377C738.845,-171.013 577.281,-157.594 530.5,-132 510.218,-120.904 493.708,-99.6287 483.772,-84.441"/>
<polygon fill="midnightblue" stroke="midnightblue" points="486.72,-82.553 478.461,-75.9165 480.779,-86.2547 486.72,-82.553"/>
</g>
<!-- Node8&#45;&gt;Node9 -->
<g id="edge9" class="edge"><title>Node8&#45;&gt;Node9</title>
<path fill="none" stroke="midnightblue" d="M836.838,-168.368C856.911,-149.814 904.403,-105.913 929.799,-82.4376"/>
<polygon fill="midnightblue" stroke="midnightblue" points="932.238,-84.9495 937.206,-75.5914 927.487,-79.8092 932.238,-84.9495"/>
</g>
<!-- Node8&#45;&gt;Node11 -->
<g id="edge23" class="edge"><title>Node8&#45;&gt;Node11</title>
<path fill="none" stroke="midnightblue" d="M853.087,-171.92C896.376,-161.874 983.445,-135.114 1025.5,-76 1034.89,-62.8008 1036.63,-44.2118 1036.31,-30.2922"/>
<polygon fill="midnightblue" stroke="midnightblue" points="1039.78,-29.6914 1035.69,-19.9186 1032.8,-30.11 1039.78,-29.6914"/>
</g>
<!-- Node12 -->
<g id="node13" class="node"><title>Node12</title>
<g id="a_node13"><a xlink:href="Mesh_8h.html" target="_top" xlink:title="SuperimposeMesh/Mesh.h">
<polygon fill="white" stroke="black" points="666,-112.5 666,-131.5 799,-131.5 799,-112.5 666,-112.5"/>
<text text-anchor="middle" x="732.5" y="-119.5" font-family="Helvetica,sans-Serif" font-size="10.00">SuperimposeMesh/Mesh.h</text>
</a>
</g>
</g>
<!-- Node8&#45;&gt;Node12 -->
<g id="edge13" class="edge"><title>Node8&#45;&gt;Node12</title>
<path fill="none" stroke="midnightblue" d="M812.237,-168.324C797.279,-159.822 774.245,-146.729 756.773,-136.797"/>
<polygon fill="midnightblue" stroke="midnightblue" points="758.149,-133.553 747.726,-131.655 754.69,-139.639 758.149,-133.553"/>
</g>
<!-- Node13 -->
<g id="node14" class="node"><title>Node13</title>
<polygon fill="white" stroke="#bfbfbf" points="772.5,-56.5 772.5,-75.5 858.5,-75.5 858.5,-56.5 772.5,-56.5"/>
<text text-anchor="middle" x="815.5" y="-63.5" font-family="Helvetica,sans-Serif" font-size="10.00">assimp/scene.h</text>
</g>
<!-- Node8&#45;&gt;Node13 -->
<g id="edge22" class="edge"><title>Node8&#45;&gt;Node13</title>
<path fill="none" stroke="midnightblue" d="M826.558,-168.368C824.622,-150.617 820.155,-109.666 817.529,-85.5974"/>
<polygon fill="midnightblue" stroke="midnightblue" points="821.001,-85.1528 816.437,-75.5914 814.042,-85.912 821.001,-85.1528"/>
</g>
<!-- Node9&#45;&gt;Node2 -->
<g id="edge11" class="edge"><title>Node9&#45;&gt;Node2</title>
<path fill="none" stroke="midnightblue" d="M876.453,-57.0031C771.791,-45.0543 578.912,-23.0343 504.193,-14.504"/>
<polygon fill="midnightblue" stroke="midnightblue" points="504.383,-11.0031 494.051,-13.3462 503.589,-17.9579 504.383,-11.0031"/>
</g>
<!-- Node10 -->
<g id="node11" class="node"><title>Node10</title>
<polygon fill="white" stroke="#bfbfbf" points="917,-0.5 917,-19.5 976,-19.5 976,-0.5 917,-0.5"/>
<text text-anchor="middle" x="946.5" y="-7.5" font-family="Helvetica,sans-Serif" font-size="10.00">exception</text>
</g>
<!-- Node9&#45;&gt;Node10 -->
<g id="edge10" class="edge"><title>Node9&#45;&gt;Node10</title>
<path fill="none" stroke="midnightblue" d="M946.5,-56.083C946.5,-49.0059 946.5,-38.8611 946.5,-29.9865"/>
<polygon fill="midnightblue" stroke="midnightblue" points="950,-29.751 946.5,-19.7511 943,-29.7511 950,-29.751"/>
</g>
<!-- Node9&#45;&gt;Node11 -->
<g id="edge12" class="edge"><title>Node9&#45;&gt;Node11</title>
<path fill="none" stroke="midnightblue" d="M960.639,-56.324C974.366,-47.9002 995.436,-34.9709 1011.56,-25.0741"/>
<polygon fill="midnightblue" stroke="midnightblue" points="1013.7,-27.8678 1020.4,-19.6545 1010.04,-21.9016 1013.7,-27.8678"/>
</g>
<!-- Node12&#45;&gt;Node6 -->
<g id="edge15" class="edge"><title>Node12&#45;&gt;Node6</title>
<path fill="none" stroke="midnightblue" d="M691.461,-112.444C639.478,-101.605 551.068,-83.1724 504.424,-73.4476"/>
<polygon fill="midnightblue" stroke="midnightblue" points="505.096,-70.0124 494.592,-71.3976 503.667,-76.865 505.096,-70.0124"/>
</g>
<!-- Node12&#45;&gt;Node9 -->
<g id="edge14" class="edge"><title>Node12&#45;&gt;Node9</title>
<path fill="none" stroke="midnightblue" d="M766.409,-112.444C803.349,-103.122 862.554,-88.1828 902.918,-77.9972"/>
<polygon fill="midnightblue" stroke="midnightblue" points="903.91,-81.3568 912.75,-75.5164 902.197,-74.5695 903.91,-81.3568"/>
</g>
<!-- Node12&#45;&gt;Node11 -->
<g id="edge17" class="edge"><title>Node12&#45;&gt;Node11</title>
<path fill="none" stroke="midnightblue" d="M734.012,-112.207C736.96,-97.9411 744.893,-69.9484 763.5,-56 843.478,3.95496 887.006,-37.0295 985.5,-20 988.376,-19.5027 991.346,-18.98 994.334,-18.4474"/>
<polygon fill="midnightblue" stroke="midnightblue" points="995.239,-21.8409 1004.46,-16.6204 993.995,-14.9522 995.239,-21.8409"/>
</g>
<!-- Node12&#45;&gt;Node13 -->
<g id="edge16" class="edge"><title>Node12&#45;&gt;Node13</title>
<path fill="none" stroke="midnightblue" d="M745.835,-112.324C758.662,-103.979 778.285,-91.2122 793.44,-81.3524"/>
<polygon fill="midnightblue" stroke="midnightblue" points="795.724,-84.0417 802.198,-75.6545 791.907,-78.1742 795.724,-84.0417"/>
</g>
<!-- Node14 -->
<g id="node15" class="node"><title>Node14</title>
<polygon fill="white" stroke="#bfbfbf" points="642.5,-56.5 642.5,-75.5 716.5,-75.5 716.5,-56.5 642.5,-56.5"/>
<text text-anchor="middle" x="679.5" y="-63.5" font-family="Helvetica,sans-Serif" font-size="10.00">glm/vec2.hpp</text>
</g>
<!-- Node12&#45;&gt;Node14 -->
<g id="edge18" class="edge"><title>Node12&#45;&gt;Node14</title>
<path fill="none" stroke="midnightblue" d="M723.748,-112.083C716.03,-104.22 704.595,-92.5688 695.283,-83.0813"/>
<polygon fill="midnightblue" stroke="midnightblue" points="697.592,-80.4363 688.089,-75.7511 692.596,-85.3396 697.592,-80.4363"/>
</g>
<!-- Node15 -->
<g id="node16" class="node"><title>Node15</title>
<polygon fill="white" stroke="#bfbfbf" points="550.5,-56.5 550.5,-75.5 624.5,-75.5 624.5,-56.5 550.5,-56.5"/>
<text text-anchor="middle" x="587.5" y="-63.5" font-family="Helvetica,sans-Serif" font-size="10.00">glm/vec3.hpp</text>
</g>
<!-- Node12&#45;&gt;Node15 -->
<g id="edge19" class="edge"><title>Node12&#45;&gt;Node15</title>
<path fill="none" stroke="midnightblue" d="M709.524,-112.444C685.343,-103.438 647.082,-89.1891 619.854,-79.049"/>
<polygon fill="midnightblue" stroke="midnightblue" points="620.961,-75.7265 610.368,-75.5164 618.518,-82.2864 620.961,-75.7265"/>
</g>
</g>
</svg>
