<?xml version="1.0" encoding="UTF-8" standalone="no"?>
<!DOCTYPE svg PUBLIC "-//W3C//DTD SVG 1.1//EN"
 "http://www.w3.org/Graphics/SVG/1.1/DTD/svg11.dtd">
<!-- Generated by graphviz version 2.38.0 (20140413.2041)
 -->
<!-- Title: SISkeleton.h Pages: 1 -->
<svg width="454pt" height="140pt"
 viewBox="0.00 0.00 453.50 140.00" xmlns="http://www.w3.org/2000/svg" xmlns:xlink="http://www.w3.org/1999/xlink">
<g id="graph0" class="graph" transform="scale(1 1) rotate(0) translate(4 136)">
<title>SISkeleton.h</title>
<polygon fill="white" stroke="none" points="-4,4 -4,-136 449.5,-136 449.5,4 -4,4"/>
<!-- Node0 -->
<g id="node1" class="node"><title>Node0</title>
<polygon fill="#bfbfbf" stroke="black" points="154.5,-112.5 154.5,-131.5 226.5,-131.5 226.5,-112.5 154.5,-112.5"/>
<text text-anchor="middle" x="190.5" y="-119.5" font-family="Helvetica,sans-Serif" font-size="10.00">SISkeleton.h</text>
</g>
<!-- Node1 -->
<g id="node2" class="node"><title>Node1</title>
<g id="a_node2"><a xlink:href="Superimpose_8h.html" target="_top" xlink:title="Superimpose.h">
<polygon fill="white" stroke="black" points="112.5,-56.5 112.5,-75.5 194.5,-75.5 194.5,-56.5 112.5,-56.5"/>
<text text-anchor="middle" x="153.5" y="-63.5" font-family="Helvetica,sans-Serif" font-size="10.00">Superimpose.h</text>
</a>
</g>
</g>
<!-- Node0&#45;&gt;Node1 -->
<g id="edge1" class="edge"><title>Node0&#45;&gt;Node1</title>
<path fill="none" stroke="midnightblue" d="M184.39,-112.083C179.218,-104.534 171.654,-93.4948 165.306,-84.2298"/>
<polygon fill="midnightblue" stroke="midnightblue" points="168.036,-82.0221 159.496,-75.7511 162.261,-85.9787 168.036,-82.0221"/>
</g>
<!-- Node2 -->
<g id="node3" class="node"><title>Node2</title>
<polygon fill="white" stroke="#bfbfbf" points="0,-0.5 0,-19.5 41,-19.5 41,-0.5 0,-0.5"/>
<text text-anchor="middle" x="20.5" y="-7.5" font-family="Helvetica,sans-Serif" font-size="10.00">string</text>
</g>
<!-- Node0&#45;&gt;Node2 -->
<g id="edge9" class="edge"><title>Node0&#45;&gt;Node2</title>
<path fill="none" stroke="midnightblue" d="M171.609,-112.488C153.597,-104.083 125.965,-90.4263 103.5,-76 79.6316,-60.6722 54.2424,-40.0798 37.922,-26.2153"/>
<polygon fill="midnightblue" stroke="midnightblue" points="40.1363,-23.5033 30.2702,-19.6417 35.5748,-28.813 40.1363,-23.5033"/>
</g>
<!-- Node8 -->
<g id="node9" class="node"><title>Node8</title>
<polygon fill="white" stroke="#bfbfbf" points="213,-56.5 213,-75.5 242,-75.5 242,-56.5 213,-56.5"/>
<text text-anchor="middle" x="227.5" y="-63.5" font-family="Helvetica,sans-Serif" font-size="10.00">list</text>
</g>
<!-- Node0&#45;&gt;Node8 -->
<g id="edge8" class="edge"><title>Node0&#45;&gt;Node8</title>
<path fill="none" stroke="midnightblue" d="M196.61,-112.083C201.782,-104.534 209.346,-93.4948 215.694,-84.2298"/>
<polygon fill="midnightblue" stroke="midnightblue" points="218.739,-85.9787 221.504,-75.7511 212.964,-82.0221 218.739,-85.9787"/>
</g>
<!-- Node9 -->
<g id="node10" class="node"><title>Node9</title>
<polygon fill="white" stroke="#bfbfbf" points="260.5,-56.5 260.5,-75.5 330.5,-75.5 330.5,-56.5 260.5,-56.5"/>
<text text-anchor="middle" x="295.5" y="-63.5" font-family="Helvetica,sans-Serif" font-size="10.00">glm/glm.hpp</text>
</g>
<!-- Node0&#45;&gt;Node9 -->
<g id="edge10" class="edge"><title>Node0&#45;&gt;Node9</title>
<path fill="none" stroke="midnightblue" d="M207.37,-112.324C224.209,-103.664 250.307,-90.2424 269.738,-80.249"/>
<polygon fill="midnightblue" stroke="midnightblue" points="271.38,-83.3405 278.672,-75.6545 268.178,-77.1155 271.38,-83.3405"/>
</g>
<!-- Node1&#45;&gt;Node2 -->
<g id="edge2" class="edge"><title>Node1&#45;&gt;Node2</title>
<path fill="none" stroke="midnightblue" d="M132.426,-56.4435C110.311,-47.4646 75.3574,-33.2729 50.3969,-23.1386"/>
<polygon fill="midnightblue" stroke="midnightblue" points="51.6207,-19.8581 41.0386,-19.339 48.9874,-26.3439 51.6207,-19.8581"/>
</g>
<!-- Node3 -->
<g id="node4" class="node"><title>Node3</title>
<polygon fill="white" stroke="#bfbfbf" points="59,-0.5 59,-19.5 94,-19.5 94,-0.5 59,-0.5"/>
<text text-anchor="middle" x="76.5" y="-7.5" font-family="Helvetica,sans-Serif" font-size="10.00">map</text>
</g>
<!-- Node1&#45;&gt;Node3 -->
<g id="edge3" class="edge"><title>Node1&#45;&gt;Node3</title>
<path fill="none" stroke="midnightblue" d="M141.129,-56.324C129.342,-48.0577 111.368,-35.4527 97.3645,-25.6322"/>
<polygon fill="midnightblue" stroke="midnightblue" points="99.0376,-22.5307 88.8407,-19.6545 95.0184,-28.2619 99.0376,-22.5307"/>
</g>
<!-- Node4 -->
<g id="node5" class="node"><title>Node4</title>
<polygon fill="white" stroke="#bfbfbf" points="112,-0.5 112,-19.5 195,-19.5 195,-0.5 112,-0.5"/>
<text text-anchor="middle" x="153.5" y="-7.5" font-family="Helvetica,sans-Serif" font-size="10.00">unordered_map</text>
</g>
<!-- Node1&#45;&gt;Node4 -->
<g id="edge4" class="edge"><title>Node1&#45;&gt;Node4</title>
<path fill="none" stroke="midnightblue" d="M153.5,-56.083C153.5,-49.0059 153.5,-38.8611 153.5,-29.9865"/>
<polygon fill="midnightblue" stroke="midnightblue" points="157,-29.751 153.5,-19.7511 150,-29.7511 157,-29.751"/>
</g>
<!-- Node5 -->
<g id="node6" class="node"><title>Node5</title>
<polygon fill="white" stroke="#bfbfbf" points="213.5,-0.5 213.5,-19.5 253.5,-19.5 253.5,-0.5 213.5,-0.5"/>
<text text-anchor="middle" x="233.5" y="-7.5" font-family="Helvetica,sans-Serif" font-size="10.00">utility</text>
</g>
<!-- Node1&#45;&gt;Node5 -->
<g id="edge5" class="edge"><title>Node1&#45;&gt;Node5</title>
<path fill="none" stroke="midnightblue" d="M166.353,-56.324C178.716,-47.979 197.63,-35.2122 212.237,-25.3524"/>
<polygon fill="midnightblue" stroke="midnightblue" points="214.348,-28.1503 220.679,-19.6545 210.432,-22.3483 214.348,-28.1503"/>
</g>
<!-- Node6 -->
<g id="node7" class="node"><title>Node6</title>
<polygon fill="white" stroke="#bfbfbf" points="271.5,-0.5 271.5,-19.5 313.5,-19.5 313.5,-0.5 271.5,-0.5"/>
<text text-anchor="middle" x="292.5" y="-7.5" font-family="Helvetica,sans-Serif" font-size="10.00">vector</text>
</g>
<!-- Node1&#45;&gt;Node6 -->
<g id="edge6" class="edge"><title>Node1&#45;&gt;Node6</title>
<path fill="none" stroke="midnightblue" d="M175.525,-56.4435C198.875,-47.3721 235.922,-32.98 262.057,-22.8268"/>
<polygon fill="midnightblue" stroke="midnightblue" points="263.434,-26.0467 271.488,-19.1629 260.899,-19.5218 263.434,-26.0467"/>
</g>
<!-- Node7 -->
<g id="node8" class="node"><title>Node7</title>
<polygon fill="white" stroke="#bfbfbf" points="331.5,-0.5 331.5,-19.5 445.5,-19.5 445.5,-0.5 331.5,-0.5"/>
<text text-anchor="middle" x="388.5" y="-7.5" font-family="Helvetica,sans-Serif" font-size="10.00">opencv2/core/core.hpp</text>
</g>
<!-- Node1&#45;&gt;Node7 -->
<g id="edge7" class="edge"><title>Node1&#45;&gt;Node7</title>
<path fill="none" stroke="midnightblue" d="M190.736,-56.4435C231.56,-47.0629 297.143,-31.9926 341.484,-21.8036"/>
<polygon fill="midnightblue" stroke="midnightblue" points="342.476,-25.1671 351.438,-19.5164 340.908,-18.3449 342.476,-25.1671"/>
</g>
</g>
</svg>
