<?xml version="1.0" encoding="UTF-8" standalone="no"?>
<!DOCTYPE svg PUBLIC "-//W3C//DTD SVG 1.1//EN"
 "http://www.w3.org/Graphics/SVG/1.1/DTD/svg11.dtd">
<!-- Generated by graphviz version 2.38.0 (20140413.2041)
 -->
<!-- Title: Superimpose.h Pages: 1 -->
<svg width="454pt" height="84pt"
 viewBox="0.00 0.00 453.50 84.00" xmlns="http://www.w3.org/2000/svg" xmlns:xlink="http://www.w3.org/1999/xlink">
<g id="graph0" class="graph" transform="scale(1 1) rotate(0) translate(4 80)">
<title>Superimpose.h</title>
<polygon fill="white" stroke="none" points="-4,4 -4,-80 449.5,-80 449.5,4 -4,4"/>
<!-- Node0 -->
<g id="node1" class="node"><title>Node0</title>
<polygon fill="#bfbfbf" stroke="black" points="152.5,-56.5 152.5,-75.5 234.5,-75.5 234.5,-56.5 152.5,-56.5"/>
<text text-anchor="middle" x="193.5" y="-63.5" font-family="Helvetica,sans-Serif" font-size="10.00">Superimpose.h</text>
</g>
<!-- Node1 -->
<g id="node2" class="node"><title>Node1</title>
<polygon fill="white" stroke="#bfbfbf" points="0,-0.5 0,-19.5 41,-19.5 41,-0.5 0,-0.5"/>
<text text-anchor="middle" x="20.5" y="-7.5" font-family="Helvetica,sans-Serif" font-size="10.00">string</text>
</g>
<!-- Node0&#45;&gt;Node1 -->
<g id="edge1" class="edge"><title>Node0&#45;&gt;Node1</title>
<path fill="none" stroke="midnightblue" d="M166.088,-56.4435C134.708,-46.6487 83.4556,-30.6509 50.8825,-20.4836"/>
<polygon fill="midnightblue" stroke="midnightblue" points="51.6007,-17.0413 41.012,-17.4026 49.5149,-23.7233 51.6007,-17.0413"/>
</g>
<!-- Node2 -->
<g id="node3" class="node"><title>Node2</title>
<polygon fill="white" stroke="#bfbfbf" points="59,-0.5 59,-19.5 94,-19.5 94,-0.5 59,-0.5"/>
<text text-anchor="middle" x="76.5" y="-7.5" font-family="Helvetica,sans-Serif" font-size="10.00">map</text>
</g>
<!-- Node0&#45;&gt;Node2 -->
<g id="edge2" class="edge"><title>Node0&#45;&gt;Node2</title>
<path fill="none" stroke="midnightblue" d="M174.961,-56.4435C155.653,-47.532 125.219,-33.4856 103.296,-23.3674"/>
<polygon fill="midnightblue" stroke="midnightblue" points="104.733,-20.1757 94.1864,-19.1629 101.799,-26.5314 104.733,-20.1757"/>
</g>
<!-- Node3 -->
<g id="node4" class="node"><title>Node3</title>
<polygon fill="white" stroke="#bfbfbf" points="112,-0.5 112,-19.5 195,-19.5 195,-0.5 112,-0.5"/>
<text text-anchor="middle" x="153.5" y="-7.5" font-family="Helvetica,sans-Serif" font-size="10.00">unordered_map</text>
</g>
<!-- Node0&#45;&gt;Node3 -->
<g id="edge3" class="edge"><title>Node0&#45;&gt;Node3</title>
<path fill="none" stroke="midnightblue" d="M186.895,-56.083C181.245,-48.4554 172.955,-37.2645 166.049,-27.9408"/>
<polygon fill="midnightblue" stroke="midnightblue" points="168.747,-25.7034 159.982,-19.7511 163.122,-29.87 168.747,-25.7034"/>
</g>
<!-- Node4 -->
<g id="node5" class="node"><title>Node4</title>
<polygon fill="white" stroke="#bfbfbf" points="213.5,-0.5 213.5,-19.5 253.5,-19.5 253.5,-0.5 213.5,-0.5"/>
<text text-anchor="middle" x="233.5" y="-7.5" font-family="Helvetica,sans-Serif" font-size="10.00">utility</text>
</g>
<!-- Node0&#45;&gt;Node4 -->
<g id="edge4" class="edge"><title>Node0&#45;&gt;Node4</title>
<path fill="none" stroke="midnightblue" d="M200.105,-56.083C205.755,-48.4554 214.045,-37.2645 220.951,-27.9408"/>
<polygon fill="midnightblue" stroke="midnightblue" points="223.878,-29.87 227.018,-19.7511 218.253,-25.7034 223.878,-29.87"/>
</g>
<!-- Node5 -->
<g id="node6" class="node"><title>Node5</title>
<polygon fill="white" stroke="#bfbfbf" points="271.5,-0.5 271.5,-19.5 313.5,-19.5 313.5,-0.5 271.5,-0.5"/>
<text text-anchor="middle" x="292.5" y="-7.5" font-family="Helvetica,sans-Serif" font-size="10.00">vector</text>
</g>
<!-- Node0&#45;&gt;Node5 -->
<g id="edge5" class="edge"><title>Node0&#45;&gt;Node5</title>
<path fill="none" stroke="midnightblue" d="M209.406,-56.324C225.138,-47.7428 249.442,-34.486 267.709,-24.5224"/>
<polygon fill="midnightblue" stroke="midnightblue" points="269.53,-27.5157 276.633,-19.6545 266.178,-21.3704 269.53,-27.5157"/>
</g>
<!-- Node6 -->
<g id="node7" class="node"><title>Node6</title>
<polygon fill="white" stroke="#bfbfbf" points="331.5,-0.5 331.5,-19.5 445.5,-19.5 445.5,-0.5 331.5,-0.5"/>
<text text-anchor="middle" x="388.5" y="-7.5" font-family="Helvetica,sans-Serif" font-size="10.00">opencv2/core/core.hpp</text>
</g>
<!-- Node0&#45;&gt;Node6 -->
<g id="edge6" class="edge"><title>Node0&#45;&gt;Node6</title>
<path fill="none" stroke="midnightblue" d="M224.398,-56.4435C257.774,-47.2011 311.094,-32.4356 347.849,-22.2572"/>
<polygon fill="midnightblue" stroke="midnightblue" points="349.043,-25.5583 357.746,-19.5164 347.175,-18.8122 349.043,-25.5583"/>
</g>
</g>
</svg>
