<?xml version="1.0" encoding="UTF-8" standalone="no"?>
<!DOCTYPE svg PUBLIC "-//W3C//DTD SVG 1.1//EN"
 "http://www.w3.org/Graphics/SVG/1.1/DTD/svg11.dtd">
<!-- Generated by graphviz version 2.38.0 (20140413.2041)
 -->
<!-- Title: tutorial_superimpose_customshader.cpp Pages: 1 -->
<svg width="1847pt" height="319pt"
 viewBox="0.00 0.00 1847.00 319.00" xmlns="http://www.w3.org/2000/svg" xmlns:xlink="http://www.w3.org/1999/xlink">
<g id="graph0" class="graph" transform="scale(1 1) rotate(0) translate(4 315)">
<title>tutorial_superimpose_customshader.cpp</title>
<polygon fill="white" stroke="none" points="-4,4 -4,-315 1843,-315 1843,4 -4,4"/>
<!-- Node0 -->
<g id="node1" class="node"><title>Node0</title>
<polygon fill="#bfbfbf" stroke="black" points="1209.5,-280.5 1209.5,-310.5 1316.5,-310.5 1316.5,-280.5 1209.5,-280.5"/>
<text text-anchor="start" x="1217.5" y="-298.5" font-family="Helvetica,sans-Serif" font-size="10.00">tutorial_superimpose</text>
<text text-anchor="middle" x="1263" y="-287.5" font-family="Helvetica,sans-Serif" font-size="10.00">_customshader.cpp</text>
</g>
<!-- Node1 -->
<g id="node2" class="node"><title>Node1</title>
<g id="a_node2"><a xlink:href="SICAD_8h.html" target="_top" xlink:title="SuperimposeMesh/SICAD.h">
<polygon fill="white" stroke="black" points="665,-224.5 665,-243.5 803,-243.5 803,-224.5 665,-224.5"/>
<text text-anchor="middle" x="734" y="-231.5" font-family="Helvetica,sans-Serif" font-size="10.00">SuperimposeMesh/SICAD.h</text>
</a>
</g>
</g>
<!-- Node0&#45;&gt;Node1 -->
<g id="edge1" class="edge"><title>Node0&#45;&gt;Node1</title>
<path fill="none" stroke="midnightblue" d="M1209.37,-288.467C1115.76,-277.939 922.156,-256.163 813.112,-243.898"/>
<polygon fill="midnightblue" stroke="midnightblue" points="813.481,-240.418 803.152,-242.778 812.698,-247.374 813.481,-240.418"/>
</g>
<!-- Node8 -->
<g id="node9" class="node"><title>Node8</title>
<polygon fill="white" stroke="#bfbfbf" points="1020,-112.5 1020,-131.5 1134,-131.5 1134,-112.5 1020,-112.5"/>
<text text-anchor="middle" x="1077" y="-119.5" font-family="Helvetica,sans-Serif" font-size="10.00">opencv2/core/core.hpp</text>
</g>
<!-- Node0&#45;&gt;Node8 -->
<g id="edge38" class="edge"><title>Node0&#45;&gt;Node8</title>
<path fill="none" stroke="midnightblue" d="M1244.06,-280.455C1231.08,-270.611 1213.62,-256.947 1199,-244 1158.64,-208.268 1114.47,-162.695 1091.98,-138.975"/>
<polygon fill="midnightblue" stroke="midnightblue" points="1094.38,-136.418 1084.97,-131.548 1089.29,-141.223 1094.38,-136.418"/>
</g>
<!-- Node11 -->
<g id="node12" class="node"><title>Node11</title>
<polygon fill="white" stroke="#bfbfbf" points="19.5,-0.5 19.5,-19.5 78.5,-19.5 78.5,-0.5 19.5,-0.5"/>
<text text-anchor="middle" x="49" y="-7.5" font-family="Helvetica,sans-Serif" font-size="10.00">exception</text>
</g>
<!-- Node0&#45;&gt;Node11 -->
<g id="edge35" class="edge"><title>Node0&#45;&gt;Node11</title>
<path fill="none" stroke="midnightblue" d="M1209.13,-292.443C968.064,-282.89 0,-240.686 0,-179 0,-179 0,-179 0,-121 0,-85.4659 21.6,-48.627 36.1178,-27.8799"/>
<polygon fill="midnightblue" stroke="midnightblue" points="39.1314,-29.6871 42.1868,-19.5423 33.4719,-25.5675 39.1314,-29.6871"/>
</g>
<!-- Node21 -->
<g id="node22" class="node"><title>Node21</title>
<polygon fill="white" stroke="#bfbfbf" points="1208,-224.5 1208,-243.5 1252,-243.5 1252,-224.5 1208,-224.5"/>
<text text-anchor="middle" x="1230" y="-231.5" font-family="Helvetica,sans-Serif" font-size="10.00">cmath</text>
</g>
<!-- Node0&#45;&gt;Node21 -->
<g id="edge34" class="edge"><title>Node0&#45;&gt;Node21</title>
<path fill="none" stroke="midnightblue" d="M1255.18,-280.399C1250.53,-272.021 1244.6,-261.327 1239.66,-252.423"/>
<polygon fill="midnightblue" stroke="midnightblue" points="1242.71,-250.705 1234.8,-243.658 1236.59,-254.1 1242.71,-250.705"/>
</g>
<!-- Node22 -->
<g id="node23" class="node"><title>Node22</title>
<polygon fill="white" stroke="#bfbfbf" points="1270,-224.5 1270,-243.5 1324,-243.5 1324,-224.5 1270,-224.5"/>
<text text-anchor="middle" x="1297" y="-231.5" font-family="Helvetica,sans-Serif" font-size="10.00">iostream</text>
</g>
<!-- Node0&#45;&gt;Node22 -->
<g id="edge36" class="edge"><title>Node0&#45;&gt;Node22</title>
<path fill="none" stroke="midnightblue" d="M1271.06,-280.399C1275.85,-272.021 1281.96,-261.327 1287.04,-252.423"/>
<polygon fill="midnightblue" stroke="midnightblue" points="1290.13,-254.077 1292.05,-243.658 1284.05,-250.604 1290.13,-254.077"/>
</g>
<!-- Node23 -->
<g id="node24" class="node"><title>Node23</title>
<polygon fill="white" stroke="#bfbfbf" points="1342.5,-224.5 1342.5,-243.5 1485.5,-243.5 1485.5,-224.5 1342.5,-224.5"/>
<text text-anchor="middle" x="1414" y="-231.5" font-family="Helvetica,sans-Serif" font-size="10.00">glm/gtc/matrix_transform.hpp</text>
</g>
<!-- Node0&#45;&gt;Node23 -->
<g id="edge37" class="edge"><title>Node0&#45;&gt;Node23</title>
<path fill="none" stroke="midnightblue" d="M1298.78,-280.399C1324.23,-270.372 1358.1,-257.028 1382.52,-247.405"/>
<polygon fill="midnightblue" stroke="midnightblue" points="1384.01,-250.58 1392.03,-243.658 1381.44,-244.068 1384.01,-250.58"/>
</g>
<!-- Node24 -->
<g id="node25" class="node"><title>Node24</title>
<polygon fill="white" stroke="#bfbfbf" points="1503.5,-224.5 1503.5,-243.5 1674.5,-243.5 1674.5,-224.5 1503.5,-224.5"/>
<text text-anchor="middle" x="1589" y="-231.5" font-family="Helvetica,sans-Serif" font-size="10.00">opencv2/imgcodecs/imgcodecs.hpp</text>
</g>
<!-- Node0&#45;&gt;Node24 -->
<g id="edge39" class="edge"><title>Node0&#45;&gt;Node24</title>
<path fill="none" stroke="midnightblue" d="M1316.83,-284.675C1376.24,-273.832 1471.45,-256.454 1532.07,-245.391"/>
<polygon fill="midnightblue" stroke="midnightblue" points="1533.02,-248.775 1542.23,-243.536 1531.76,-241.889 1533.02,-248.775"/>
</g>
<!-- Node25 -->
<g id="node26" class="node"><title>Node25</title>
<polygon fill="white" stroke="#bfbfbf" points="1693,-224.5 1693,-243.5 1839,-243.5 1839,-224.5 1693,-224.5"/>
<text text-anchor="middle" x="1766" y="-231.5" font-family="Helvetica,sans-Serif" font-size="10.00">opencv2/imgproc/imgproc.hpp</text>
</g>
<!-- Node0&#45;&gt;Node25 -->
<g id="edge40" class="edge"><title>Node0&#45;&gt;Node25</title>
<path fill="none" stroke="midnightblue" d="M1316.83,-288.132C1404.88,-277.717 1580.26,-256.971 1683.91,-244.711"/>
<polygon fill="midnightblue" stroke="midnightblue" points="1684.5,-248.166 1694.02,-243.515 1683.67,-241.214 1684.5,-248.166"/>
</g>
<!-- Node2 -->
<g id="node3" class="node"><title>Node2</title>
<g id="a_node3"><a xlink:href="Superimpose_8h.html" target="_top" xlink:title="SuperimposeMesh/Superimpose.h">
<polygon fill="white" stroke="black" points="871,-168.5 871,-187.5 1037,-187.5 1037,-168.5 871,-168.5"/>
<text text-anchor="middle" x="954" y="-175.5" font-family="Helvetica,sans-Serif" font-size="10.00">SuperimposeMesh/Superimpose.h</text>
</a>
</g>
</g>
<!-- Node1&#45;&gt;Node2 -->
<g id="edge2" class="edge"><title>Node1&#45;&gt;Node2</title>
<path fill="none" stroke="midnightblue" d="M768.86,-224.444C806.916,-215.102 867.958,-200.119 909.46,-189.933"/>
<polygon fill="midnightblue" stroke="midnightblue" points="910.426,-193.299 919.303,-187.516 908.757,-186.501 910.426,-193.299"/>
</g>
<!-- Node3 -->
<g id="node4" class="node"><title>Node3</title>
<polygon fill="white" stroke="#bfbfbf" points="726.5,-0.5 726.5,-19.5 767.5,-19.5 767.5,-0.5 726.5,-0.5"/>
<text text-anchor="middle" x="747" y="-7.5" font-family="Helvetica,sans-Serif" font-size="10.00">string</text>
</g>
<!-- Node1&#45;&gt;Node3 -->
<g id="edge27" class="edge"><title>Node1&#45;&gt;Node3</title>
<path fill="none" stroke="midnightblue" d="M803.148,-232.913C871.407,-230.694 977.651,-221.431 1063,-188 1103.41,-172.171 1122.96,-170.496 1143,-132 1178.59,-63.6345 876.707,-24.9016 777.741,-14.1266"/>
<polygon fill="midnightblue" stroke="midnightblue" points="778.072,-10.6422 767.757,-13.0601 777.329,-17.6026 778.072,-10.6422"/>
</g>
<!-- Node6 -->
<g id="node7" class="node"><title>Node6</title>
<polygon fill="white" stroke="#bfbfbf" points="962,-112.5 962,-131.5 1002,-131.5 1002,-112.5 962,-112.5"/>
<text text-anchor="middle" x="982" y="-119.5" font-family="Helvetica,sans-Serif" font-size="10.00">utility</text>
</g>
<!-- Node1&#45;&gt;Node6 -->
<g id="edge29" class="edge"><title>Node1&#45;&gt;Node6</title>
<path fill="none" stroke="midnightblue" d="M803.137,-233.129C885.315,-231.637 1015.23,-223.525 1046,-188 1062.2,-169.295 1034.78,-149.207 1010.95,-136.394"/>
<polygon fill="midnightblue" stroke="midnightblue" points="1012.26,-133.132 1001.77,-131.696 1009.08,-139.365 1012.26,-133.132"/>
</g>
<!-- Node7 -->
<g id="node8" class="node"><title>Node7</title>
<polygon fill="white" stroke="#bfbfbf" points="588,-56.5 588,-75.5 630,-75.5 630,-56.5 588,-56.5"/>
<text text-anchor="middle" x="609" y="-63.5" font-family="Helvetica,sans-Serif" font-size="10.00">vector</text>
</g>
<!-- Node1&#45;&gt;Node7 -->
<g id="edge30" class="edge"><title>Node1&#45;&gt;Node7</title>
<path fill="none" stroke="midnightblue" d="M765.586,-224.466C798.497,-213.953 842.84,-194.216 824,-168 794.719,-127.255 762.541,-153.061 717,-132 685.164,-117.277 650.857,-95.5102 629.653,-81.2911"/>
<polygon fill="midnightblue" stroke="midnightblue" points="631.391,-78.2407 621.151,-75.5218 627.46,-84.033 631.391,-78.2407"/>
</g>
<!-- Node9 -->
<g id="node10" class="node"><title>Node9</title>
<g id="a_node10"><a xlink:href="Model_8h.html" target="_top" xlink:title="Model.h">
<polygon fill="white" stroke="black" points="409.5,-168.5 409.5,-187.5 460.5,-187.5 460.5,-168.5 409.5,-168.5"/>
<text text-anchor="middle" x="435" y="-175.5" font-family="Helvetica,sans-Serif" font-size="10.00">Model.h</text>
</a>
</g>
</g>
<!-- Node1&#45;&gt;Node9 -->
<g id="edge9" class="edge"><title>Node1&#45;&gt;Node9</title>
<path fill="none" stroke="midnightblue" d="M680.285,-224.46C627.803,-215.93 545.719,-202.091 475,-188 473.56,-187.713 472.093,-187.414 470.611,-187.107"/>
<polygon fill="midnightblue" stroke="midnightblue" points="471.293,-183.673 460.781,-184.997 469.824,-190.517 471.293,-183.673"/>
</g>
<!-- Node10 -->
<g id="node11" class="node"><title>Node10</title>
<g id="a_node11"><a xlink:href="Shader_8h.html" target="_top" xlink:title="SuperimposeMesh/Shader.h">
<polygon fill="white" stroke="black" points="28,-56.5 28,-75.5 168,-75.5 168,-56.5 28,-56.5"/>
<text text-anchor="middle" x="98" y="-63.5" font-family="Helvetica,sans-Serif" font-size="10.00">SuperimposeMesh/Shader.h</text>
</a>
</g>
</g>
<!-- Node1&#45;&gt;Node10 -->
<g id="edge25" class="edge"><title>Node1&#45;&gt;Node10</title>
<path fill="none" stroke="midnightblue" d="M664.956,-227.14C596.994,-220.567 490.532,-208.108 400,-188 318.625,-169.926 297.949,-164.052 221,-132 184.98,-116.997 145.438,-95.0432 121.163,-80.8869"/>
<polygon fill="midnightblue" stroke="midnightblue" points="122.741,-77.7541 112.348,-75.6961 119.189,-83.7861 122.741,-77.7541"/>
</g>
<!-- Node12 -->
<g id="node13" class="node"><title>Node12</title>
<polygon fill="white" stroke="#bfbfbf" points="421,-0.5 421,-19.5 481,-19.5 481,-0.5 421,-0.5"/>
<text text-anchor="middle" x="451" y="-7.5" font-family="Helvetica,sans-Serif" font-size="10.00">GL/glew.h</text>
</g>
<!-- Node1&#45;&gt;Node12 -->
<g id="edge31" class="edge"><title>Node1&#45;&gt;Node12</title>
<path fill="none" stroke="midnightblue" d="M664.835,-228.655C605.861,-223.336 527.604,-211.892 508,-188 468.273,-139.583 533.209,-181.084 597,-132 627.586,-108.465 662.903,-86.2993 639,-56 620.952,-33.1228 540.888,-20.5765 491.244,-14.8719"/>
<polygon fill="midnightblue" stroke="midnightblue" points="491.47,-11.3756 481.146,-13.7572 490.702,-18.3334 491.47,-11.3756"/>
</g>
<!-- Node17 -->
<g id="node18" class="node"><title>Node17</title>
<polygon fill="white" stroke="#bfbfbf" points="517,-168.5 517,-187.5 569,-187.5 569,-168.5 517,-168.5"/>
<text text-anchor="middle" x="543" y="-175.5" font-family="Helvetica,sans-Serif" font-size="10.00">memory</text>
</g>
<!-- Node1&#45;&gt;Node17 -->
<g id="edge26" class="edge"><title>Node1&#45;&gt;Node17</title>
<path fill="none" stroke="midnightblue" d="M703.735,-224.444C669.795,-214.848 614.796,-199.298 578.761,-189.11"/>
<polygon fill="midnightblue" stroke="midnightblue" points="579.708,-185.741 569.133,-186.388 577.804,-192.477 579.708,-185.741"/>
</g>
<!-- Node18 -->
<g id="node19" class="node"><title>Node18</title>
<polygon fill="white" stroke="#bfbfbf" points="587,-168.5 587,-187.5 631,-187.5 631,-168.5 587,-168.5"/>
<text text-anchor="middle" x="609" y="-175.5" font-family="Helvetica,sans-Serif" font-size="10.00">thread</text>
</g>
<!-- Node1&#45;&gt;Node18 -->
<g id="edge28" class="edge"><title>Node1&#45;&gt;Node18</title>
<path fill="none" stroke="midnightblue" d="M714.193,-224.444C693.713,-215.596 661.517,-201.687 638.135,-191.586"/>
<polygon fill="midnightblue" stroke="midnightblue" points="639.282,-188.269 628.714,-187.516 636.506,-194.695 639.282,-188.269"/>
</g>
<!-- Node19 -->
<g id="node20" class="node"><title>Node19</title>
<polygon fill="white" stroke="#bfbfbf" points="649,-168.5 649,-187.5 727,-187.5 727,-168.5 649,-168.5"/>
<text text-anchor="middle" x="688" y="-175.5" font-family="Helvetica,sans-Serif" font-size="10.00">GLFW/glfw3.h</text>
</g>
<!-- Node1&#45;&gt;Node19 -->
<g id="edge32" class="edge"><title>Node1&#45;&gt;Node19</title>
<path fill="none" stroke="midnightblue" d="M726.404,-224.083C719.773,-216.298 709.979,-204.801 701.942,-195.367"/>
<polygon fill="midnightblue" stroke="midnightblue" points="704.604,-193.094 695.455,-187.751 699.275,-197.633 704.604,-193.094"/>
</g>
<!-- Node20 -->
<g id="node21" class="node"><title>Node20</title>
<polygon fill="white" stroke="#bfbfbf" points="745,-168.5 745,-187.5 815,-187.5 815,-168.5 745,-168.5"/>
<text text-anchor="middle" x="780" y="-175.5" font-family="Helvetica,sans-Serif" font-size="10.00">glm/glm.hpp</text>
</g>
<!-- Node1&#45;&gt;Node20 -->
<g id="edge33" class="edge"><title>Node1&#45;&gt;Node20</title>
<path fill="none" stroke="midnightblue" d="M741.596,-224.083C748.227,-216.298 758.021,-204.801 766.058,-195.367"/>
<polygon fill="midnightblue" stroke="midnightblue" points="768.725,-197.633 772.545,-187.751 763.396,-193.094 768.725,-197.633"/>
</g>
<!-- Node2&#45;&gt;Node3 -->
<g id="edge3" class="edge"><title>Node2&#45;&gt;Node3</title>
<path fill="none" stroke="midnightblue" d="M950.196,-168.104C944.114,-154.673 931.118,-128.986 914,-112 873.109,-71.4236 812.874,-40.1956 777.025,-23.7957"/>
<polygon fill="midnightblue" stroke="midnightblue" points="778.153,-20.4658 767.596,-19.5678 775.289,-26.8531 778.153,-20.4658"/>
</g>
<!-- Node4 -->
<g id="node5" class="node"><title>Node4</title>
<polygon fill="white" stroke="#bfbfbf" points="870.5,-112.5 870.5,-131.5 905.5,-131.5 905.5,-112.5 870.5,-112.5"/>
<text text-anchor="middle" x="888" y="-119.5" font-family="Helvetica,sans-Serif" font-size="10.00">map</text>
</g>
<!-- Node2&#45;&gt;Node4 -->
<g id="edge4" class="edge"><title>Node2&#45;&gt;Node4</title>
<path fill="none" stroke="midnightblue" d="M943.396,-168.324C933.544,-160.263 918.649,-148.077 906.785,-138.369"/>
<polygon fill="midnightblue" stroke="midnightblue" points="908.753,-135.457 898.797,-131.834 904.32,-140.875 908.753,-135.457"/>
</g>
<!-- Node5 -->
<g id="node6" class="node"><title>Node5</title>
<polygon fill="white" stroke="#bfbfbf" points="769.5,-112.5 769.5,-131.5 852.5,-131.5 852.5,-112.5 769.5,-112.5"/>
<text text-anchor="middle" x="811" y="-119.5" font-family="Helvetica,sans-Serif" font-size="10.00">unordered_map</text>
</g>
<!-- Node2&#45;&gt;Node5 -->
<g id="edge5" class="edge"><title>Node2&#45;&gt;Node5</title>
<path fill="none" stroke="midnightblue" d="M931.341,-168.444C907.598,-159.478 870.091,-145.314 843.262,-135.183"/>
<polygon fill="midnightblue" stroke="midnightblue" points="844.144,-131.775 833.553,-131.516 841.671,-138.324 844.144,-131.775"/>
</g>
<!-- Node2&#45;&gt;Node6 -->
<g id="edge6" class="edge"><title>Node2&#45;&gt;Node6</title>
<path fill="none" stroke="midnightblue" d="M958.624,-168.083C962.456,-160.691 968.024,-149.953 972.765,-140.811"/>
<polygon fill="midnightblue" stroke="midnightblue" points="975.966,-142.24 977.462,-131.751 969.752,-139.018 975.966,-142.24"/>
</g>
<!-- Node2&#45;&gt;Node7 -->
<g id="edge7" class="edge"><title>Node2&#45;&gt;Node7</title>
<path fill="none" stroke="midnightblue" d="M904.575,-168.473C864.889,-160.93 808.055,-148.548 760,-132 740.071,-125.137 736.287,-120.499 717,-112 691.048,-100.564 661.28,-88.217 639.578,-79.3544"/>
<polygon fill="midnightblue" stroke="midnightblue" points="640.798,-76.0723 630.216,-75.5433 638.159,-82.5556 640.798,-76.0723"/>
</g>
<!-- Node2&#45;&gt;Node8 -->
<g id="edge8" class="edge"><title>Node2&#45;&gt;Node8</title>
<path fill="none" stroke="midnightblue" d="M973.49,-168.444C993.642,-159.596 1025.32,-145.687 1048.33,-135.586"/>
<polygon fill="midnightblue" stroke="midnightblue" points="1049.85,-138.741 1057.6,-131.516 1047.04,-132.332 1049.85,-138.741"/>
</g>
<!-- Node9&#45;&gt;Node3 -->
<g id="edge22" class="edge"><title>Node9&#45;&gt;Node3</title>
<path fill="none" stroke="midnightblue" d="M447.203,-168.353C459.507,-159.518 478.925,-145.253 495,-132 533.846,-99.9735 534.783,-80.0742 579,-56 623.341,-31.8585 681.427,-20.0559 716.388,-14.7728"/>
<polygon fill="midnightblue" stroke="midnightblue" points="717.05,-18.2139 726.455,-13.336 716.061,-11.2841 717.05,-18.2139"/>
</g>
<!-- Node9&#45;&gt;Node7 -->
<g id="edge21" class="edge"><title>Node9&#45;&gt;Node7</title>
<path fill="none" stroke="midnightblue" d="M460.723,-171.11C495.893,-162.655 556.612,-146.497 574,-132 588.575,-119.848 597.999,-100.009 603.354,-85.4407"/>
<polygon fill="midnightblue" stroke="midnightblue" points="606.676,-86.5431 606.55,-75.949 600.042,-84.3093 606.676,-86.5431"/>
</g>
<!-- Node9&#45;&gt;Node10 -->
<g id="edge10" class="edge"><title>Node9&#45;&gt;Node10</title>
<path fill="none" stroke="midnightblue" d="M409.348,-170.065C378.489,-161.604 325.191,-146.615 280,-132 227.037,-114.872 166.285,-92.645 130.082,-79.1216"/>
<polygon fill="midnightblue" stroke="midnightblue" points="131.141,-75.7809 120.548,-75.5496 128.684,-82.3359 131.141,-75.7809"/>
</g>
<!-- Node9&#45;&gt;Node12 -->
<g id="edge24" class="edge"><title>Node9&#45;&gt;Node12</title>
<path fill="none" stroke="midnightblue" d="M443.403,-168.497C458.825,-152.221 491.15,-114.818 503,-76 505.595,-67.4984 506.695,-64.0844 503,-56 497.223,-43.3602 485.948,-32.911 475.369,-25.2737"/>
<polygon fill="midnightblue" stroke="midnightblue" points="477.042,-22.1817 466.783,-19.5333 473.151,-28.0009 477.042,-22.1817"/>
</g>
<!-- Node13 -->
<g id="node14" class="node"><title>Node13</title>
<g id="a_node14"><a xlink:href="Mesh_8h.html" target="_top" xlink:title="SuperimposeMesh/Mesh.h">
<polygon fill="white" stroke="black" points="289.5,-112.5 289.5,-131.5 422.5,-131.5 422.5,-112.5 289.5,-112.5"/>
<text text-anchor="middle" x="356" y="-119.5" font-family="Helvetica,sans-Serif" font-size="10.00">SuperimposeMesh/Mesh.h</text>
</a>
</g>
</g>
<!-- Node9&#45;&gt;Node13 -->
<g id="edge14" class="edge"><title>Node9&#45;&gt;Node13</title>
<path fill="none" stroke="midnightblue" d="M422.307,-168.324C410.099,-159.979 391.422,-147.212 376.997,-137.352"/>
<polygon fill="midnightblue" stroke="midnightblue" points="378.892,-134.408 368.661,-131.655 374.942,-140.187 378.892,-134.408"/>
</g>
<!-- Node14 -->
<g id="node15" class="node"><title>Node14</title>
<polygon fill="white" stroke="#bfbfbf" points="408,-56.5 408,-75.5 494,-75.5 494,-56.5 408,-56.5"/>
<text text-anchor="middle" x="451" y="-63.5" font-family="Helvetica,sans-Serif" font-size="10.00">assimp/scene.h</text>
</g>
<!-- Node9&#45;&gt;Node14 -->
<g id="edge23" class="edge"><title>Node9&#45;&gt;Node14</title>
<path fill="none" stroke="midnightblue" d="M436.255,-168.368C438.838,-150.617 444.794,-109.666 448.295,-85.5974"/>
<polygon fill="midnightblue" stroke="midnightblue" points="451.774,-85.9911 449.75,-75.5914 444.847,-84.9835 451.774,-85.9911"/>
</g>
<!-- Node10&#45;&gt;Node3 -->
<g id="edge12" class="edge"><title>Node10&#45;&gt;Node3</title>
<path fill="none" stroke="midnightblue" d="M168.198,-56.875C171.171,-56.5713 174.115,-56.2782 177,-56 382.619,-36.177 630.597,-18.8463 716.197,-13.0548"/>
<polygon fill="midnightblue" stroke="midnightblue" points="716.531,-16.5403 726.273,-12.3757 716.06,-9.55615 716.531,-16.5403"/>
</g>
<!-- Node10&#45;&gt;Node11 -->
<g id="edge11" class="edge"><title>Node10&#45;&gt;Node11</title>
<path fill="none" stroke="midnightblue" d="M89.9086,-56.083C82.8446,-48.2982 72.4124,-36.8015 63.8511,-27.3665"/>
<polygon fill="midnightblue" stroke="midnightblue" points="66.2527,-24.8047 56.9408,-19.7511 61.0688,-29.5087 66.2527,-24.8047"/>
</g>
<!-- Node10&#45;&gt;Node12 -->
<g id="edge13" class="edge"><title>Node10&#45;&gt;Node12</title>
<path fill="none" stroke="midnightblue" d="M153.934,-56.4435C225.57,-45.485 347.964,-26.7619 410.95,-17.1267"/>
<polygon fill="midnightblue" stroke="midnightblue" points="411.542,-20.5769 420.897,-15.6049 410.483,-13.6574 411.542,-20.5769"/>
</g>
<!-- Node13&#45;&gt;Node7 -->
<g id="edge16" class="edge"><title>Node13&#45;&gt;Node7</title>
<path fill="none" stroke="midnightblue" d="M396.089,-112.444C446.502,-101.683 531.989,-83.4372 577.803,-73.6587"/>
<polygon fill="midnightblue" stroke="midnightblue" points="578.702,-77.0457 587.751,-71.5354 577.241,-70.1999 578.702,-77.0457"/>
</g>
<!-- Node13&#45;&gt;Node10 -->
<g id="edge15" class="edge"><title>Node13&#45;&gt;Node10</title>
<path fill="none" stroke="midnightblue" d="M315.119,-112.444C270.017,-103.004 197.388,-87.802 148.698,-77.6111"/>
<polygon fill="midnightblue" stroke="midnightblue" points="149.195,-74.1394 138.69,-75.5164 147.76,-80.9909 149.195,-74.1394"/>
</g>
<!-- Node13&#45;&gt;Node12 -->
<g id="edge18" class="edge"><title>Node13&#45;&gt;Node12</title>
<path fill="none" stroke="midnightblue" d="M360.627,-112.483C367.869,-99.5475 382.745,-74.4984 399,-56 408.728,-44.9298 421.164,-34.0729 431.436,-25.7974"/>
<polygon fill="midnightblue" stroke="midnightblue" points="433.745,-28.4343 439.447,-19.5051 429.421,-22.9292 433.745,-28.4343"/>
</g>
<!-- Node13&#45;&gt;Node14 -->
<g id="edge17" class="edge"><title>Node13&#45;&gt;Node14</title>
<path fill="none" stroke="midnightblue" d="M371.263,-112.324C386.221,-103.822 409.255,-90.7288 426.727,-80.7975"/>
<polygon fill="midnightblue" stroke="midnightblue" points="428.81,-83.639 435.774,-75.6545 425.351,-77.5534 428.81,-83.639"/>
</g>
<!-- Node15 -->
<g id="node16" class="node"><title>Node15</title>
<polygon fill="white" stroke="#bfbfbf" points="186,-56.5 186,-75.5 260,-75.5 260,-56.5 186,-56.5"/>
<text text-anchor="middle" x="223" y="-63.5" font-family="Helvetica,sans-Serif" font-size="10.00">glm/vec2.hpp</text>
</g>
<!-- Node13&#45;&gt;Node15 -->
<g id="edge19" class="edge"><title>Node13&#45;&gt;Node15</title>
<path fill="none" stroke="midnightblue" d="M334.926,-112.444C312.94,-103.517 278.266,-89.4387 253.336,-79.3168"/>
<polygon fill="midnightblue" stroke="midnightblue" points="254.558,-76.0355 243.976,-75.5164 251.924,-82.5213 254.558,-76.0355"/>
</g>
<!-- Node16 -->
<g id="node17" class="node"><title>Node16</title>
<polygon fill="white" stroke="#bfbfbf" points="278,-56.5 278,-75.5 352,-75.5 352,-56.5 278,-56.5"/>
<text text-anchor="middle" x="315" y="-63.5" font-family="Helvetica,sans-Serif" font-size="10.00">glm/vec3.hpp</text>
</g>
<!-- Node13&#45;&gt;Node16 -->
<g id="edge20" class="edge"><title>Node13&#45;&gt;Node16</title>
<path fill="none" stroke="midnightblue" d="M349.23,-112.083C343.438,-104.455 334.942,-93.2645 327.862,-83.9408"/>
<polygon fill="midnightblue" stroke="midnightblue" points="330.479,-81.5991 321.644,-75.7511 324.904,-85.8321 330.479,-81.5991"/>
</g>
</g>
</svg>
