<?xml version="1.0" encoding="UTF-8" standalone="no"?>
<!DOCTYPE svg PUBLIC "-//W3C//DTD SVG 1.1//EN"
 "http://www.w3.org/Graphics/SVG/1.1/DTD/svg11.dtd">
<!-- Generated by graphviz version 2.38.0 (20140413.2041)
 -->
<!-- Title: main Pages: 1 -->
<svg width="215pt" height="66pt"
 viewBox="0.00 0.00 215.00 66.00" xmlns="http://www.w3.org/2000/svg" xmlns:xlink="http://www.w3.org/1999/xlink">
<g id="graph0" class="graph" transform="scale(1 1) rotate(0) translate(4 62)">
<title>main</title>
<polygon fill="white" stroke="none" points="-4,4 -4,-62 211,-62 211,4 -4,4"/>
<!-- Node0 -->
<g id="node1" class="node"><title>Node0</title>
<polygon fill="#bfbfbf" stroke="black" points="0,-19.5 0,-38.5 38,-38.5 38,-19.5 0,-19.5"/>
<text text-anchor="middle" x="19" y="-26.5" font-family="Helvetica,sans-Serif" font-size="10.00">main</text>
</g>
<!-- Node1 -->
<g id="node2" class="node"><title>Node1</title>
<g id="a_node2"><a xlink:href="classSICAD.html#a07921943ad3d4016dcbe76135e799754" target="_top" xlink:title="SICAD::setBackgroundOpt">
<polygon fill="white" stroke="black" points="74,-38.5 74,-57.5 207,-57.5 207,-38.5 74,-38.5"/>
<text text-anchor="middle" x="140.5" y="-45.5" font-family="Helvetica,sans-Serif" font-size="10.00">SICAD::setBackgroundOpt</text>
</a>
</g>
</g>
<!-- Node0&#45;&gt;Node1 -->
<g id="edge1" class="edge"><title>Node0&#45;&gt;Node1</title>
<path fill="none" stroke="midnightblue" d="M38.1495,-31.8857C46.9232,-33.2807 58.0726,-35.0534 69.7464,-36.9095"/>
<polygon fill="midnightblue" stroke="midnightblue" points="69.2096,-40.368 79.6351,-38.4817 70.3088,-33.4548 69.2096,-40.368"/>
</g>
<!-- Node2 -->
<g id="node3" class="node"><title>Node2</title>
<g id="a_node3"><a xlink:href="classSICAD.html#a356e0ac8a0f130952a72326bedd4ab60" target="_top" xlink:title="Render the mesh models in the pose specified in objpos_map and move the virtual camera in cam_x posit...">
<polygon fill="white" stroke="black" points="87,-0.5 87,-19.5 194,-19.5 194,-0.5 87,-0.5"/>
<text text-anchor="middle" x="140.5" y="-7.5" font-family="Helvetica,sans-Serif" font-size="10.00">SICAD::superimpose</text>
</a>
</g>
</g>
<!-- Node0&#45;&gt;Node2 -->
<g id="edge2" class="edge"><title>Node0&#45;&gt;Node2</title>
<path fill="none" stroke="midnightblue" d="M38.1495,-26.1143C48.6049,-24.4519 62.4343,-22.2531 76.5043,-20.0161"/>
<polygon fill="midnightblue" stroke="midnightblue" points="77.4209,-23.4144 86.7472,-18.3875 76.3217,-16.5012 77.4209,-23.4144"/>
</g>
</g>
</svg>
