<?xml version="1.0" encoding="UTF-8" standalone="no"?>
<!DOCTYPE svg PUBLIC "-//W3C//DTD SVG 1.1//EN"
 "http://www.w3.org/Graphics/SVG/1.1/DTD/svg11.dtd">
<!-- Generated by graphviz version 2.38.0 (20140413.2041)
 -->
<!-- Title: tutorial_background.cpp Pages: 1 -->
<svg width="1223pt" height="308pt"
 viewBox="0.00 0.00 1223.00 308.00" xmlns="http://www.w3.org/2000/svg" xmlns:xlink="http://www.w3.org/1999/xlink">
<g id="graph0" class="graph" transform="scale(1 1) rotate(0) translate(4 304)">
<title>tutorial_background.cpp</title>
<polygon fill="white" stroke="none" points="-4,4 -4,-304 1219,-304 1219,4 -4,4"/>
<!-- Node0 -->
<g id="node1" class="node"><title>Node0</title>
<polygon fill="#bfbfbf" stroke="black" points="557,-280.5 557,-299.5 677,-299.5 677,-280.5 557,-280.5"/>
<text text-anchor="middle" x="617" y="-287.5" font-family="Helvetica,sans-Serif" font-size="10.00">tutorial_background.cpp</text>
</g>
<!-- Node1 -->
<g id="node2" class="node"><title>Node1</title>
<polygon fill="white" stroke="#bfbfbf" points="0,-224.5 0,-243.5 44,-243.5 44,-224.5 0,-224.5"/>
<text text-anchor="middle" x="22" y="-231.5" font-family="Helvetica,sans-Serif" font-size="10.00">cmath</text>
</g>
<!-- Node0&#45;&gt;Node1 -->
<g id="edge1" class="edge"><title>Node0&#45;&gt;Node1</title>
<path fill="none" stroke="midnightblue" d="M556.631,-287.394C453.701,-283.933 237.905,-273.523 58,-244 56.7484,-243.795 55.4764,-243.568 54.1945,-243.323"/>
<polygon fill="midnightblue" stroke="midnightblue" points="54.8636,-239.887 44.3495,-241.193 53.3828,-246.729 54.8636,-239.887"/>
</g>
<!-- Node2 -->
<g id="node3" class="node"><title>Node2</title>
<polygon fill="white" stroke="#bfbfbf" points="120.5,-0.5 120.5,-19.5 179.5,-19.5 179.5,-0.5 120.5,-0.5"/>
<text text-anchor="middle" x="150" y="-7.5" font-family="Helvetica,sans-Serif" font-size="10.00">exception</text>
</g>
<!-- Node0&#45;&gt;Node2 -->
<g id="edge2" class="edge"><title>Node0&#45;&gt;Node2</title>
<path fill="none" stroke="midnightblue" d="M556.855,-289.407C415.118,-288.75 72,-277.034 72,-179 72,-179 72,-179 72,-121 72,-80.967 106.802,-45.3355 129.913,-26.0874"/>
<polygon fill="midnightblue" stroke="midnightblue" points="132.196,-28.7432 137.813,-19.7595 127.82,-23.2799 132.196,-28.7432"/>
</g>
<!-- Node3 -->
<g id="node4" class="node"><title>Node3</title>
<polygon fill="white" stroke="#bfbfbf" points="359,-224.5 359,-243.5 413,-243.5 413,-224.5 359,-224.5"/>
<text text-anchor="middle" x="386" y="-231.5" font-family="Helvetica,sans-Serif" font-size="10.00">iostream</text>
</g>
<!-- Node0&#45;&gt;Node3 -->
<g id="edge3" class="edge"><title>Node0&#45;&gt;Node3</title>
<path fill="none" stroke="midnightblue" d="M580.397,-280.444C537.291,-270.367 466.1,-253.725 422.876,-243.62"/>
<polygon fill="midnightblue" stroke="midnightblue" points="423.582,-240.191 413.048,-241.323 421.989,-247.007 423.582,-240.191"/>
</g>
<!-- Node4 -->
<g id="node5" class="node"><title>Node4</title>
<polygon fill="white" stroke="#bfbfbf" points="1010.5,-0.5 1010.5,-19.5 1051.5,-19.5 1051.5,-0.5 1010.5,-0.5"/>
<text text-anchor="middle" x="1031" y="-7.5" font-family="Helvetica,sans-Serif" font-size="10.00">string</text>
</g>
<!-- Node0&#45;&gt;Node4 -->
<g id="edge4" class="edge"><title>Node0&#45;&gt;Node4</title>
<path fill="none" stroke="midnightblue" d="M677.053,-287.001C811.47,-282.116 1128.1,-268.171 1170,-244 1200.44,-226.443 1215,-214.136 1215,-179 1215,-179 1215,-179 1215,-121 1215,-50.4919 1114.23,-24.0991 1061.84,-15.1417"/>
<polygon fill="midnightblue" stroke="midnightblue" points="1062.18,-11.6511 1051.75,-13.5299 1061.07,-18.5634 1062.18,-11.6511"/>
</g>
<!-- Node5 -->
<g id="node6" class="node"><title>Node5</title>
<polygon fill="white" stroke="#bfbfbf" points="100,-168.5 100,-187.5 170,-187.5 170,-168.5 100,-168.5"/>
<text text-anchor="middle" x="135" y="-175.5" font-family="Helvetica,sans-Serif" font-size="10.00">glm/glm.hpp</text>
</g>
<!-- Node0&#45;&gt;Node5 -->
<g id="edge5" class="edge"><title>Node0&#45;&gt;Node5</title>
<path fill="none" stroke="midnightblue" d="M579.162,-280.473C546.901,-272.658 499.601,-259.9 460,-244 442.289,-236.889 440.133,-229.955 422,-224 320.359,-190.622 289.512,-205.665 184,-188 182.728,-187.787 181.439,-187.568 180.138,-187.346"/>
<polygon fill="midnightblue" stroke="midnightblue" points="180.495,-183.855 170.04,-185.575 179.285,-190.75 180.495,-183.855"/>
</g>
<!-- Node6 -->
<g id="node7" class="node"><title>Node6</title>
<polygon fill="white" stroke="#bfbfbf" points="625.5,-224.5 625.5,-243.5 768.5,-243.5 768.5,-224.5 625.5,-224.5"/>
<text text-anchor="middle" x="697" y="-231.5" font-family="Helvetica,sans-Serif" font-size="10.00">glm/gtc/matrix_transform.hpp</text>
</g>
<!-- Node0&#45;&gt;Node6 -->
<g id="edge6" class="edge"><title>Node0&#45;&gt;Node6</title>
<path fill="none" stroke="midnightblue" d="M629.853,-280.324C642.216,-271.979 661.13,-259.212 675.737,-249.352"/>
<polygon fill="midnightblue" stroke="midnightblue" points="677.848,-252.15 684.179,-243.655 673.932,-246.348 677.848,-252.15"/>
</g>
<!-- Node7 -->
<g id="node8" class="node"><title>Node7</title>
<polygon fill="white" stroke="#bfbfbf" points="797,-112.5 797,-131.5 911,-131.5 911,-112.5 797,-112.5"/>
<text text-anchor="middle" x="854" y="-119.5" font-family="Helvetica,sans-Serif" font-size="10.00">opencv2/core/core.hpp</text>
</g>
<!-- Node0&#45;&gt;Node7 -->
<g id="edge7" class="edge"><title>Node0&#45;&gt;Node7</title>
<path fill="none" stroke="midnightblue" d="M677.175,-284.042C710.037,-278.627 749.681,-267.365 778,-244 807.13,-219.966 795.227,-199.538 816,-168 822.665,-157.881 831.302,-147.488 838.657,-139.243"/>
<polygon fill="midnightblue" stroke="midnightblue" points="841.296,-141.543 845.464,-131.803 836.132,-136.818 841.296,-141.543"/>
</g>
<!-- Node8 -->
<g id="node9" class="node"><title>Node8</title>
<polygon fill="white" stroke="#bfbfbf" points="825.5,-224.5 825.5,-243.5 996.5,-243.5 996.5,-224.5 825.5,-224.5"/>
<text text-anchor="middle" x="911" y="-231.5" font-family="Helvetica,sans-Serif" font-size="10.00">opencv2/imgcodecs/imgcodecs.hpp</text>
</g>
<!-- Node0&#45;&gt;Node8 -->
<g id="edge8" class="edge"><title>Node0&#45;&gt;Node8</title>
<path fill="none" stroke="midnightblue" d="M663.585,-280.444C715.41,-270.925 799.132,-255.547 854.615,-245.356"/>
<polygon fill="midnightblue" stroke="midnightblue" points="855.43,-248.765 864.633,-243.516 854.165,-241.881 855.43,-248.765"/>
</g>
<!-- Node9 -->
<g id="node10" class="node"><title>Node9</title>
<polygon fill="white" stroke="#bfbfbf" points="1015,-224.5 1015,-243.5 1161,-243.5 1161,-224.5 1015,-224.5"/>
<text text-anchor="middle" x="1088" y="-231.5" font-family="Helvetica,sans-Serif" font-size="10.00">opencv2/imgproc/imgproc.hpp</text>
</g>
<!-- Node0&#45;&gt;Node9 -->
<g id="edge9" class="edge"><title>Node0&#45;&gt;Node9</title>
<path fill="none" stroke="midnightblue" d="M677.131,-282.106C760.281,-272.573 910.722,-255.325 1004.67,-244.554"/>
<polygon fill="midnightblue" stroke="midnightblue" points="1005.17,-248.02 1014.7,-243.403 1004.37,-241.065 1005.17,-248.02"/>
</g>
<!-- Node10 -->
<g id="node11" class="node"><title>Node10</title>
<g id="a_node11"><a xlink:href="SICAD_8h.html" target="_top" xlink:title="SuperimposeMesh/SICAD.h">
<polygon fill="white" stroke="black" points="469,-224.5 469,-243.5 607,-243.5 607,-224.5 469,-224.5"/>
<text text-anchor="middle" x="538" y="-231.5" font-family="Helvetica,sans-Serif" font-size="10.00">SuperimposeMesh/SICAD.h</text>
</a>
</g>
</g>
<!-- Node0&#45;&gt;Node10 -->
<g id="edge10" class="edge"><title>Node0&#45;&gt;Node10</title>
<path fill="none" stroke="midnightblue" d="M604.307,-280.324C592.099,-271.979 573.422,-259.212 558.997,-249.352"/>
<polygon fill="midnightblue" stroke="midnightblue" points="560.892,-246.408 550.661,-243.655 556.942,-252.187 560.892,-246.408"/>
</g>
<!-- Node10&#45;&gt;Node4 -->
<g id="edge36" class="edge"><title>Node10&#45;&gt;Node4</title>
<path fill="none" stroke="midnightblue" d="M607.304,-224.826C610.241,-224.536 613.149,-224.259 616,-224 676.107,-218.539 1116.76,-232.069 1158,-188 1209.59,-132.87 1103.49,-56.0861 1054.26,-24.9459"/>
<polygon fill="midnightblue" stroke="midnightblue" points="1055.85,-21.8137 1045.51,-19.5119 1052.16,-27.7605 1055.85,-21.8137"/>
</g>
<!-- Node10&#45;&gt;Node5 -->
<g id="edge42" class="edge"><title>Node10&#45;&gt;Node5</title>
<path fill="none" stroke="midnightblue" d="M468.985,-225.369C397.523,-217.2 282.716,-203.328 184,-188 182.726,-187.802 181.434,-187.597 180.131,-187.386"/>
<polygon fill="midnightblue" stroke="midnightblue" points="180.468,-183.893 170.024,-185.676 179.3,-190.795 180.468,-183.893"/>
</g>
<!-- Node11 -->
<g id="node12" class="node"><title>Node11</title>
<g id="a_node12"><a xlink:href="Superimpose_8h.html" target="_top" xlink:title="SuperimposeMesh/Superimpose.h">
<polygon fill="white" stroke="black" points="825,-168.5 825,-187.5 991,-187.5 991,-168.5 825,-168.5"/>
<text text-anchor="middle" x="908" y="-175.5" font-family="Helvetica,sans-Serif" font-size="10.00">SuperimposeMesh/Superimpose.h</text>
</a>
</g>
</g>
<!-- Node10&#45;&gt;Node11 -->
<g id="edge11" class="edge"><title>Node10&#45;&gt;Node11</title>
<path fill="none" stroke="midnightblue" d="M596.628,-224.444C662.662,-214.806 769.843,-199.163 839.631,-188.978"/>
<polygon fill="midnightblue" stroke="midnightblue" points="840.257,-192.424 849.647,-187.516 839.246,-185.497 840.257,-192.424"/>
</g>
<!-- Node14 -->
<g id="node15" class="node"><title>Node14</title>
<polygon fill="white" stroke="#bfbfbf" points="739,-112.5 739,-131.5 779,-131.5 779,-112.5 739,-112.5"/>
<text text-anchor="middle" x="759" y="-119.5" font-family="Helvetica,sans-Serif" font-size="10.00">utility</text>
</g>
<!-- Node10&#45;&gt;Node14 -->
<g id="edge38" class="edge"><title>Node10&#45;&gt;Node14</title>
<path fill="none" stroke="midnightblue" d="M607.234,-225.147C657.849,-218.047 720.859,-205.932 740,-188 752.592,-176.203 756.991,-156.568 758.452,-141.96"/>
<polygon fill="midnightblue" stroke="midnightblue" points="761.971,-141.765 759.095,-131.568 754.984,-141.333 761.971,-141.765"/>
</g>
<!-- Node15 -->
<g id="node16" class="node"><title>Node15</title>
<polygon fill="white" stroke="#bfbfbf" points="698,-56.5 698,-75.5 740,-75.5 740,-56.5 698,-56.5"/>
<text text-anchor="middle" x="719" y="-63.5" font-family="Helvetica,sans-Serif" font-size="10.00">vector</text>
</g>
<!-- Node10&#45;&gt;Node15 -->
<g id="edge39" class="edge"><title>Node10&#45;&gt;Node15</title>
<path fill="none" stroke="midnightblue" d="M553.025,-224.462C579.909,-208.684 637.068,-172.821 676,-132 689.676,-117.66 701.778,-98.4544 709.63,-84.6432"/>
<polygon fill="midnightblue" stroke="midnightblue" points="712.804,-86.1352 714.559,-75.6867 706.671,-82.7604 712.804,-86.1352"/>
</g>
<!-- Node16 -->
<g id="node17" class="node"><title>Node16</title>
<g id="a_node17"><a xlink:href="Model_8h.html" target="_top" xlink:title="Model.h">
<polygon fill="white" stroke="black" points="533.5,-168.5 533.5,-187.5 584.5,-187.5 584.5,-168.5 533.5,-168.5"/>
<text text-anchor="middle" x="559" y="-175.5" font-family="Helvetica,sans-Serif" font-size="10.00">Model.h</text>
</a>
</g>
</g>
<!-- Node10&#45;&gt;Node16 -->
<g id="edge18" class="edge"><title>Node10&#45;&gt;Node16</title>
<path fill="none" stroke="midnightblue" d="M541.468,-224.083C544.312,-216.77 548.429,-206.181 551.96,-197.103"/>
<polygon fill="midnightblue" stroke="midnightblue" points="555.234,-198.34 555.597,-187.751 548.71,-195.803 555.234,-198.34"/>
</g>
<!-- Node17 -->
<g id="node18" class="node"><title>Node17</title>
<g id="a_node18"><a xlink:href="Shader_8h.html" target="_top" xlink:title="SuperimposeMesh/Shader.h">
<polygon fill="white" stroke="black" points="138,-56.5 138,-75.5 278,-75.5 278,-56.5 138,-56.5"/>
<text text-anchor="middle" x="208" y="-63.5" font-family="Helvetica,sans-Serif" font-size="10.00">SuperimposeMesh/Shader.h</text>
</a>
</g>
</g>
<!-- Node10&#45;&gt;Node17 -->
<g id="edge34" class="edge"><title>Node10&#45;&gt;Node17</title>
<path fill="none" stroke="midnightblue" d="M518.598,-224.391C480.767,-207.485 394.663,-168.417 324,-132 291.356,-115.177 254.489,-94.1617 231.253,-80.661"/>
<polygon fill="midnightblue" stroke="midnightblue" points="232.873,-77.5542 222.472,-75.5393 229.346,-83.6009 232.873,-77.5542"/>
</g>
<!-- Node18 -->
<g id="node19" class="node"><title>Node18</title>
<polygon fill="white" stroke="#bfbfbf" points="227,-0.5 227,-19.5 287,-19.5 287,-0.5 227,-0.5"/>
<text text-anchor="middle" x="257" y="-7.5" font-family="Helvetica,sans-Serif" font-size="10.00">GL/glew.h</text>
</g>
<!-- Node10&#45;&gt;Node18 -->
<g id="edge40" class="edge"><title>Node10&#45;&gt;Node18</title>
<path fill="none" stroke="midnightblue" d="M500.566,-224.442C407.877,-202.404 172.071,-140.868 129,-76 105.353,-40.3854 170.858,-23.3154 216.663,-15.928"/>
<polygon fill="midnightblue" stroke="midnightblue" points="217.306,-19.3705 226.67,-14.4141 216.259,-12.4493 217.306,-19.3705"/>
</g>
<!-- Node23 -->
<g id="node24" class="node"><title>Node23</title>
<polygon fill="white" stroke="#bfbfbf" points="679,-168.5 679,-187.5 731,-187.5 731,-168.5 679,-168.5"/>
<text text-anchor="middle" x="705" y="-175.5" font-family="Helvetica,sans-Serif" font-size="10.00">memory</text>
</g>
<!-- Node10&#45;&gt;Node23 -->
<g id="edge35" class="edge"><title>Node10&#45;&gt;Node23</title>
<path fill="none" stroke="midnightblue" d="M564.462,-224.444C592.761,-215.293 637.805,-200.728 669.245,-190.561"/>
<polygon fill="midnightblue" stroke="midnightblue" points="670.499,-193.835 678.937,-187.428 668.345,-187.174 670.499,-193.835"/>
</g>
<!-- Node24 -->
<g id="node25" class="node"><title>Node24</title>
<polygon fill="white" stroke="#bfbfbf" points="1009,-168.5 1009,-187.5 1053,-187.5 1053,-168.5 1009,-168.5"/>
<text text-anchor="middle" x="1031" y="-175.5" font-family="Helvetica,sans-Serif" font-size="10.00">thread</text>
</g>
<!-- Node10&#45;&gt;Node24 -->
<g id="edge37" class="edge"><title>Node10&#45;&gt;Node24</title>
<path fill="none" stroke="midnightblue" d="M607.314,-224.924C610.248,-224.607 613.153,-224.298 616,-224 783.239,-206.514 829.842,-219.523 998.792,-187.892"/>
<polygon fill="midnightblue" stroke="midnightblue" points="999.599,-191.302 1008.77,-185.999 998.294,-184.424 999.599,-191.302"/>
</g>
<!-- Node25 -->
<g id="node26" class="node"><title>Node25</title>
<polygon fill="white" stroke="#bfbfbf" points="1071,-168.5 1071,-187.5 1149,-187.5 1149,-168.5 1071,-168.5"/>
<text text-anchor="middle" x="1110" y="-175.5" font-family="Helvetica,sans-Serif" font-size="10.00">GLFW/glfw3.h</text>
</g>
<!-- Node10&#45;&gt;Node25 -->
<g id="edge41" class="edge"><title>Node10&#45;&gt;Node25</title>
<path fill="none" stroke="midnightblue" d="M607.309,-224.878C610.245,-224.573 613.151,-224.279 616,-224 810.633,-204.922 863.155,-214.045 1060.63,-188.051"/>
<polygon fill="midnightblue" stroke="midnightblue" points="1061.31,-191.492 1070.76,-186.704 1060.39,-184.553 1061.31,-191.492"/>
</g>
<!-- Node11&#45;&gt;Node4 -->
<g id="edge12" class="edge"><title>Node11&#45;&gt;Node4</title>
<path fill="none" stroke="midnightblue" d="M951.836,-168.436C973.192,-161.993 997.362,-150.897 1012,-132 1035.04,-102.261 1035.31,-55.8419 1033.28,-29.9972"/>
<polygon fill="midnightblue" stroke="midnightblue" points="1036.73,-29.3096 1032.25,-19.7043 1029.76,-30.0012 1036.73,-29.3096"/>
</g>
<!-- Node11&#45;&gt;Node7 -->
<g id="edge17" class="edge"><title>Node11&#45;&gt;Node7</title>
<path fill="none" stroke="midnightblue" d="M899.083,-168.083C891.22,-160.22 879.569,-148.569 870.081,-139.081"/>
<polygon fill="midnightblue" stroke="midnightblue" points="872.297,-136.347 862.751,-131.751 867.347,-141.297 872.297,-136.347"/>
</g>
<!-- Node12 -->
<g id="node13" class="node"><title>Node12</title>
<polygon fill="white" stroke="#bfbfbf" points="967.5,-112.5 967.5,-131.5 1002.5,-131.5 1002.5,-112.5 967.5,-112.5"/>
<text text-anchor="middle" x="985" y="-119.5" font-family="Helvetica,sans-Serif" font-size="10.00">map</text>
</g>
<!-- Node11&#45;&gt;Node12 -->
<g id="edge13" class="edge"><title>Node11&#45;&gt;Node12</title>
<path fill="none" stroke="midnightblue" d="M920.371,-168.324C932.158,-160.058 950.132,-147.453 964.136,-137.632"/>
<polygon fill="midnightblue" stroke="midnightblue" points="966.482,-140.262 972.659,-131.655 962.462,-134.531 966.482,-140.262"/>
</g>
<!-- Node13 -->
<g id="node14" class="node"><title>Node13</title>
<polygon fill="white" stroke="#bfbfbf" points="1059.5,-112.5 1059.5,-131.5 1142.5,-131.5 1142.5,-112.5 1059.5,-112.5"/>
<text text-anchor="middle" x="1101" y="-119.5" font-family="Helvetica,sans-Serif" font-size="10.00">unordered_map</text>
</g>
<!-- Node11&#45;&gt;Node13 -->
<g id="edge14" class="edge"><title>Node11&#45;&gt;Node13</title>
<path fill="none" stroke="midnightblue" d="M938.581,-168.444C971.615,-159.201 1024.39,-144.436 1060.77,-134.257"/>
<polygon fill="midnightblue" stroke="midnightblue" points="1061.87,-137.582 1070.56,-131.516 1059.99,-130.84 1061.87,-137.582"/>
</g>
<!-- Node11&#45;&gt;Node14 -->
<g id="edge15" class="edge"><title>Node11&#45;&gt;Node14</title>
<path fill="none" stroke="midnightblue" d="M884.391,-168.444C858.519,-159.067 816.963,-144.007 788.85,-133.818"/>
<polygon fill="midnightblue" stroke="midnightblue" points="789.748,-130.421 779.154,-130.304 787.363,-137.002 789.748,-130.421"/>
</g>
<!-- Node11&#45;&gt;Node15 -->
<g id="edge16" class="edge"><title>Node11&#45;&gt;Node15</title>
<path fill="none" stroke="midnightblue" d="M913.446,-168.378C921.225,-154.85 933.199,-128.481 920,-112 899.078,-85.8767 801.289,-73.8968 750.228,-69.3438"/>
<polygon fill="midnightblue" stroke="midnightblue" points="750.346,-65.8413 740.085,-68.4826 749.753,-72.8162 750.346,-65.8413"/>
</g>
<!-- Node16&#45;&gt;Node4 -->
<g id="edge31" class="edge"><title>Node16&#45;&gt;Node4</title>
<path fill="none" stroke="midnightblue" d="M572.444,-168.456C585.441,-159.923 605.402,-146.082 621,-132 654.642,-101.627 648.921,-77.1653 689,-56 742.755,-27.613 926.334,-15.9491 1000.02,-12.337"/>
<polygon fill="midnightblue" stroke="midnightblue" points="1000.24,-15.8305 1010.07,-11.8615 999.914,-8.8383 1000.24,-15.8305"/>
</g>
<!-- Node16&#45;&gt;Node15 -->
<g id="edge30" class="edge"><title>Node16&#45;&gt;Node15</title>
<path fill="none" stroke="midnightblue" d="M580.315,-168.401C599.175,-160.324 627.032,-147.224 649,-132 669.738,-117.628 690.55,-97.3814 704.024,-83.3184"/>
<polygon fill="midnightblue" stroke="midnightblue" points="706.752,-85.5266 711.053,-75.8441 701.653,-80.7311 706.752,-85.5266"/>
</g>
<!-- Node16&#45;&gt;Node17 -->
<g id="edge19" class="edge"><title>Node16&#45;&gt;Node17</title>
<path fill="none" stroke="midnightblue" d="M533.437,-171.094C499.659,-163.112 438.422,-148.026 387,-132 334.345,-115.59 274.306,-92.9665 238.865,-79.1949"/>
<polygon fill="midnightblue" stroke="midnightblue" points="240.136,-75.9338 229.548,-75.5579 237.59,-82.4546 240.136,-75.9338"/>
</g>
<!-- Node16&#45;&gt;Node18 -->
<g id="edge33" class="edge"><title>Node16&#45;&gt;Node18</title>
<path fill="none" stroke="midnightblue" d="M568.62,-168.408C591.317,-147.137 644.033,-91.2024 613,-56 592.365,-32.5927 385.971,-18.2608 297.222,-13.1363"/>
<polygon fill="midnightblue" stroke="midnightblue" points="297.185,-9.62861 287.003,-12.557 296.789,-16.6174 297.185,-9.62861"/>
</g>
<!-- Node19 -->
<g id="node20" class="node"><title>Node19</title>
<g id="a_node20"><a xlink:href="Mesh_8h.html" target="_top" xlink:title="SuperimposeMesh/Mesh.h">
<polygon fill="white" stroke="black" points="396.5,-112.5 396.5,-131.5 529.5,-131.5 529.5,-112.5 396.5,-112.5"/>
<text text-anchor="middle" x="463" y="-119.5" font-family="Helvetica,sans-Serif" font-size="10.00">SuperimposeMesh/Mesh.h</text>
</a>
</g>
</g>
<!-- Node16&#45;&gt;Node19 -->
<g id="edge23" class="edge"><title>Node16&#45;&gt;Node19</title>
<path fill="none" stroke="midnightblue" d="M543.576,-168.324C528.46,-159.822 505.185,-146.729 487.529,-136.797"/>
<polygon fill="midnightblue" stroke="midnightblue" points="488.817,-133.507 478.386,-131.655 485.386,-139.608 488.817,-133.507"/>
</g>
<!-- Node20 -->
<g id="node21" class="node"><title>Node20</title>
<polygon fill="white" stroke="#bfbfbf" points="518,-56.5 518,-75.5 604,-75.5 604,-56.5 518,-56.5"/>
<text text-anchor="middle" x="561" y="-63.5" font-family="Helvetica,sans-Serif" font-size="10.00">assimp/scene.h</text>
</g>
<!-- Node16&#45;&gt;Node20 -->
<g id="edge32" class="edge"><title>Node16&#45;&gt;Node20</title>
<path fill="none" stroke="midnightblue" d="M559.157,-168.368C559.48,-150.617 560.224,-109.666 560.662,-85.5974"/>
<polygon fill="midnightblue" stroke="midnightblue" points="564.161,-85.6534 560.844,-75.5914 557.162,-85.5261 564.161,-85.6534"/>
</g>
<!-- Node17&#45;&gt;Node2 -->
<g id="edge20" class="edge"><title>Node17&#45;&gt;Node2</title>
<path fill="none" stroke="midnightblue" d="M198.681,-56.324C190.107,-48.3414 177.188,-36.3128 166.812,-26.6529"/>
<polygon fill="midnightblue" stroke="midnightblue" points="169.192,-24.0865 159.488,-19.8339 164.422,-29.2098 169.192,-24.0865"/>
</g>
<!-- Node17&#45;&gt;Node4 -->
<g id="edge21" class="edge"><title>Node17&#45;&gt;Node4</title>
<path fill="none" stroke="midnightblue" d="M278.21,-59.4487C293.623,-58.272 309.86,-57.0648 325,-56 586.271,-37.6253 902.17,-18.6367 1000.38,-12.8079"/>
<polygon fill="midnightblue" stroke="midnightblue" points="1000.71,-16.2942 1010.49,-12.2086 1000.3,-9.30643 1000.71,-16.2942"/>
</g>
<!-- Node17&#45;&gt;Node18 -->
<g id="edge22" class="edge"><title>Node17&#45;&gt;Node18</title>
<path fill="none" stroke="midnightblue" d="M216.091,-56.083C223.155,-48.2982 233.588,-36.8015 242.149,-27.3665"/>
<polygon fill="midnightblue" stroke="midnightblue" points="244.931,-29.5087 249.059,-19.7511 239.747,-24.8047 244.931,-29.5087"/>
</g>
<!-- Node19&#45;&gt;Node15 -->
<g id="edge25" class="edge"><title>Node19&#45;&gt;Node15</title>
<path fill="none" stroke="midnightblue" d="M503.564,-112.444C554.706,-101.656 641.52,-83.3435 687.788,-73.5837"/>
<polygon fill="midnightblue" stroke="midnightblue" points="688.764,-76.9549 697.827,-71.4662 687.32,-70.1056 688.764,-76.9549"/>
</g>
<!-- Node19&#45;&gt;Node17 -->
<g id="edge24" class="edge"><title>Node19&#45;&gt;Node17</title>
<path fill="none" stroke="midnightblue" d="M422.594,-112.444C378.017,-103.004 306.232,-87.802 258.108,-77.6111"/>
<polygon fill="midnightblue" stroke="midnightblue" points="258.725,-74.1641 248.216,-75.5164 257.274,-81.0123 258.725,-74.1641"/>
</g>
<!-- Node19&#45;&gt;Node18 -->
<g id="edge27" class="edge"><title>Node19&#45;&gt;Node18</title>
<path fill="none" stroke="midnightblue" d="M420.782,-112.433C392.341,-105.448 354.737,-93.7859 325,-76 303.442,-63.1059 283.242,-42.2413 270.55,-27.6388"/>
<polygon fill="midnightblue" stroke="midnightblue" points="273.117,-25.2544 263.991,-19.8723 267.769,-29.7707 273.117,-25.2544"/>
</g>
<!-- Node19&#45;&gt;Node20 -->
<g id="edge26" class="edge"><title>Node19&#45;&gt;Node20</title>
<path fill="none" stroke="midnightblue" d="M478.745,-112.324C494.319,-103.743 518.377,-90.486 536.459,-80.5224"/>
<polygon fill="midnightblue" stroke="midnightblue" points="538.224,-83.546 545.294,-75.6545 534.846,-77.4152 538.224,-83.546"/>
</g>
<!-- Node21 -->
<g id="node22" class="node"><title>Node21</title>
<polygon fill="white" stroke="#bfbfbf" points="334,-56.5 334,-75.5 408,-75.5 408,-56.5 334,-56.5"/>
<text text-anchor="middle" x="371" y="-63.5" font-family="Helvetica,sans-Serif" font-size="10.00">glm/vec2.hpp</text>
</g>
<!-- Node19&#45;&gt;Node21 -->
<g id="edge28" class="edge"><title>Node19&#45;&gt;Node21</title>
<path fill="none" stroke="midnightblue" d="M448.219,-112.324C433.733,-103.822 411.427,-90.7288 394.507,-80.7975"/>
<polygon fill="midnightblue" stroke="midnightblue" points="396.141,-77.6981 385.745,-75.6545 392.597,-83.735 396.141,-77.6981"/>
</g>
<!-- Node22 -->
<g id="node23" class="node"><title>Node22</title>
<polygon fill="white" stroke="#bfbfbf" points="426,-56.5 426,-75.5 500,-75.5 500,-56.5 426,-56.5"/>
<text text-anchor="middle" x="463" y="-63.5" font-family="Helvetica,sans-Serif" font-size="10.00">glm/vec3.hpp</text>
</g>
<!-- Node19&#45;&gt;Node22 -->
<g id="edge29" class="edge"><title>Node19&#45;&gt;Node22</title>
<path fill="none" stroke="midnightblue" d="M463,-112.083C463,-105.006 463,-94.8611 463,-85.9865"/>
<polygon fill="midnightblue" stroke="midnightblue" points="466.5,-85.751 463,-75.7511 459.5,-85.7511 466.5,-85.751"/>
</g>
</g>
</svg>
